<svg width="211" height="191" viewBox="0 0 211 191" fill="none" xmlns="http://www.w3.org/2000/svg">
<g clip-path="url(#clip0)">
<path d="M140.511 67.089H70.3916C69.1879 67.0876 68.0339 66.6064 67.1828 65.7508C66.3317 64.8952 65.8529 63.7351 65.8516 62.5251V7.16238C65.8525 6.27591 66.2033 5.42604 66.8268 4.7992C67.4503 4.17236 68.2957 3.81975 69.1776 3.81873H141.667C142.564 3.81975 143.424 4.17845 144.059 4.81613C144.693 5.45381 145.05 6.31839 145.051 7.22019V62.5251C145.05 63.7351 144.571 64.8952 143.72 65.7508C142.869 66.6064 141.715 67.0876 140.511 67.089Z" fill="#F2F2F2"/>
<path d="M74.794 62.5251H136.108C137.276 62.5251 138.396 62.0588 139.221 61.2288C140.047 60.3989 140.511 59.2732 140.511 58.0995V15.628C140.511 14.4543 140.047 13.3286 139.221 12.4986C138.396 11.6687 137.276 11.2024 136.108 11.2024H74.794C73.6264 11.2024 72.5067 11.6687 71.681 12.4986C70.8554 13.3286 70.3916 14.4543 70.3916 15.628V58.0995C70.3916 59.2732 70.8554 60.3989 71.681 61.2288C72.5067 62.0588 73.6264 62.5251 74.794 62.5251Z" fill="white"/>
<path d="M144.988 6.90125H65.7879V4.57769C65.7896 3.36366 66.2704 2.1999 67.1246 1.34172C67.9788 0.483532 69.1367 0.00100666 70.3444 0H140.431C141.639 0.000997148 142.797 0.48352 143.651 1.34171C144.505 2.19989 144.986 3.36366 144.988 4.57769V6.90125Z" fill="#CCCCCC"/>
<path d="M74.0687 4.6423C74.7196 4.6423 75.2473 4.11185 75.2473 3.4575C75.2473 2.80316 74.7196 2.27271 74.0687 2.27271C73.4177 2.27271 72.8901 2.80316 72.8901 3.4575C72.8901 4.11185 73.4177 4.6423 74.0687 4.6423Z" fill="white"/>
<path d="M78.5423 4.6423C79.1932 4.6423 79.7209 4.11185 79.7209 3.4575C79.7209 2.80316 79.1932 2.27271 78.5423 2.27271C77.8914 2.27271 77.3637 2.80316 77.3637 3.4575C77.3637 4.11185 77.8914 4.6423 78.5423 4.6423Z" fill="white"/>
<path d="M83.016 4.6423C83.6669 4.6423 84.1946 4.11185 84.1946 3.4575C84.1946 2.80316 83.6669 2.27271 83.016 2.27271C82.3651 2.27271 81.8374 2.80316 81.8374 3.4575C81.8374 4.11185 82.3651 4.6423 83.016 4.6423Z" fill="white"/>
<path d="M79.3061 31.1054H76.2695C76.1048 31.1052 75.9469 31.0394 75.8305 30.9223C75.7141 30.8053 75.6486 30.6466 75.6484 30.481V27.4285C75.6486 27.2629 75.7141 27.1042 75.8305 26.9872C75.9469 26.8701 76.1048 26.8043 76.2695 26.8041H79.3061C79.4707 26.8043 79.6286 26.8701 79.7451 26.9872C79.8615 27.1042 79.927 27.2629 79.9272 27.4285V30.481C79.927 30.6466 79.8615 30.8053 79.7451 30.9223C79.6286 31.0394 79.4707 31.1052 79.3061 31.1054Z" fill="#F9BC04"/>
<path d="M79.3061 39.0144H76.2695C76.1048 39.0142 75.9469 38.9483 75.8305 38.8313C75.7141 38.7142 75.6486 38.5555 75.6484 38.39V35.3374C75.6486 35.1719 75.7141 35.0131 75.8305 34.8961C75.9469 34.779 76.1048 34.7132 76.2695 34.713H79.3061C79.4707 34.7132 79.6286 34.779 79.7451 34.8961C79.8615 35.0131 79.927 35.1719 79.9272 35.3374V38.39C79.927 38.5555 79.8615 38.7142 79.7451 38.8313C79.6286 38.9483 79.4707 39.0142 79.3061 39.0144Z" fill="#3F3D56"/>
<path d="M79.3061 46.9233H76.2695C76.1048 46.9231 75.9469 46.8573 75.8305 46.7402C75.7141 46.6232 75.6486 46.4644 75.6484 46.2989V43.2463C75.6486 43.0808 75.7141 42.9221 75.8305 42.805C75.9469 42.688 76.1048 42.6221 76.2695 42.6219H79.3061C79.4707 42.6221 79.6286 42.688 79.7451 42.805C79.8615 42.9221 79.927 43.0808 79.9272 43.2463V46.2989C79.927 46.4644 79.8615 46.6232 79.7451 46.7402C79.6286 46.8573 79.4707 46.9231 79.3061 46.9233Z" fill="#CCCCCC"/>
<path d="M99.1819 29.5791H84.5511C84.3866 29.5788 84.2289 29.5128 84.1127 29.3958C83.9965 29.2787 83.9313 29.1201 83.9313 28.9547C83.9313 28.7893 83.9965 28.6307 84.1127 28.5137C84.2289 28.3966 84.3866 28.3307 84.5511 28.3303H99.1819C99.2635 28.3302 99.3445 28.3462 99.42 28.3775C99.4955 28.4088 99.5641 28.4547 99.6219 28.5127C99.6797 28.5707 99.7256 28.6396 99.7569 28.7155C99.7882 28.7913 99.8043 28.8726 99.8043 28.9547C99.8043 29.0368 99.7882 29.1181 99.7569 29.194C99.7256 29.2698 99.6797 29.3387 99.6219 29.3967C99.5641 29.4547 99.4955 29.5006 99.42 29.5319C99.3445 29.5633 99.2635 29.5793 99.1819 29.5791Z" fill="#CCCCCC"/>
<path d="M99.1819 37.488H84.5511C84.3866 37.4877 84.2289 37.4217 84.1127 37.3047C83.9965 37.1876 83.9313 37.029 83.9313 36.8636C83.9313 36.6983 83.9965 36.5397 84.1127 36.4226C84.2289 36.3055 84.3866 36.2396 84.5511 36.2393H99.1819C99.3466 36.2393 99.5046 36.305 99.6211 36.4221C99.7376 36.5392 99.803 36.698 99.803 36.8636C99.803 37.0292 99.7376 37.1881 99.6211 37.3052C99.5046 37.4222 99.3466 37.488 99.1819 37.488Z" fill="#CCCCCC"/>
<path d="M99.1819 45.397H84.5511C84.3866 45.3966 84.2289 45.3307 84.1127 45.2136C83.9965 45.0966 83.9313 44.938 83.9313 44.7726C83.9313 44.6072 83.9965 44.4486 84.1127 44.3315C84.2289 44.2145 84.3866 44.1485 84.5511 44.1482H99.1819C99.2635 44.148 99.3445 44.164 99.42 44.1953C99.4955 44.2266 99.5641 44.2726 99.6219 44.3306C99.6797 44.3886 99.7256 44.4575 99.7569 44.5333C99.7882 44.6092 99.8043 44.6905 99.8043 44.7726C99.8043 44.8547 99.7882 44.936 99.7569 45.0118C99.7256 45.0877 99.6797 45.1566 99.6219 45.2146C99.5641 45.2726 99.4955 45.3185 99.42 45.3498C99.3445 45.3811 99.2635 45.3971 99.1819 45.397Z" fill="#CCCCCC"/>
<path d="M135.23 37.062C135.245 36.7995 135.254 36.5352 135.254 36.2688C135.254 32.7976 133.882 29.4686 131.441 27.0141C128.999 24.5596 125.688 23.1807 122.235 23.1807V37.062H135.23Z" fill="#F9BC04"/>
<path d="M121.248 38.2518V24.3705C118.707 24.3704 116.221 25.118 114.097 26.5212C111.973 27.9243 110.304 29.9217 109.296 32.2669C108.288 34.6121 107.985 37.2027 108.424 39.7191C108.863 42.2355 110.025 44.5678 111.766 46.4283C113.508 48.2888 115.753 49.5962 118.225 50.1892C120.697 50.7823 123.288 50.635 125.678 49.7657C128.068 48.8964 130.152 47.3429 131.674 45.297C133.196 43.251 134.089 40.8019 134.243 38.2518H121.248Z" fill="#3F3D56"/>
<path d="M139.453 114.216C139.545 114.341 139.627 114.473 139.698 114.611L153.486 116.17L155.492 113.446L159.977 115.952L156.029 122.568L139.136 118.111C138.706 118.526 138.16 118.8 137.572 118.897C136.983 118.993 136.379 118.907 135.841 118.649C135.302 118.392 134.854 117.976 134.556 117.457C134.259 116.938 134.125 116.339 134.174 115.742C134.222 115.144 134.451 114.576 134.829 114.112C135.206 113.649 135.716 113.311 136.289 113.146C136.862 112.98 137.472 112.994 138.037 113.185C138.602 113.376 139.096 113.735 139.453 114.216Z" fill="#FFB8B8"/>
<path d="M69.0958 110.637C68.7471 110.843 68.3577 110.97 67.955 111.008C67.5523 111.046 67.1461 110.996 66.7651 110.859C66.3841 110.723 66.0374 110.504 65.7496 110.218C65.4618 109.932 65.2398 109.587 65.0993 109.205L55.2689 109.412L57.9923 105.066L66.9098 105.536C67.5627 105.341 68.264 105.394 68.8808 105.684C69.4976 105.974 69.9871 106.482 70.2566 107.11C70.526 107.739 70.5567 108.445 70.3428 109.095C70.1288 109.745 69.6852 110.294 69.0958 110.637V110.637Z" fill="#FFB8B8"/>
<path d="M64.7754 109.393C64.6973 109.655 64.5357 109.884 64.3155 110.044C64.0954 110.205 63.8288 110.288 63.5569 110.282L45.5656 109.822L29.2748 104.974C28.8265 104.84 28.4091 104.619 28.0468 104.321C27.6845 104.024 27.3845 103.658 27.1644 103.243C26.9442 102.829 26.8082 102.374 26.7644 101.906C26.7205 101.439 26.7696 100.967 26.9088 100.518C27.048 100.069 27.2745 99.6529 27.5752 99.2931C27.8759 98.9332 28.2447 98.637 28.6603 98.4218C29.0759 98.2065 29.5299 98.0764 29.9959 98.0391C30.462 98.0018 30.9307 98.058 31.375 98.2045L46.0929 103.056L63.758 104.769C64.0674 104.801 64.3538 104.948 64.561 105.181C64.7681 105.414 64.8809 105.717 64.8771 106.029L64.826 109.058C64.8242 109.172 64.8072 109.284 64.7754 109.393Z" fill="#3F3D56"/>
<path d="M38.6843 187.148L42.0574 187.148L43.6624 174.068L38.6838 174.069L38.6843 187.148Z" fill="#FFB8B8"/>
<path d="M37.8238 186.041L44.467 186.041H44.4673C45.0232 186.041 45.5738 186.151 46.0874 186.365C46.6011 186.579 47.0678 186.892 47.4609 187.287C47.854 187.683 48.1659 188.152 48.3786 188.668C48.5914 189.184 48.7009 189.738 48.7009 190.297V190.435L37.824 190.435L37.8238 186.041Z" fill="#2F2E41"/>
<path d="M28.7789 187.148L32.152 187.148L33.7569 174.068L28.7783 174.069L28.7789 187.148Z" fill="#FFB8B8"/>
<path d="M27.9183 186.041L34.5615 186.041H34.5618C35.1178 186.041 35.6683 186.151 36.182 186.365C36.6956 186.579 37.1623 186.892 37.5554 187.287C37.9486 187.683 38.2604 188.152 38.4732 188.668C38.6859 189.184 38.7954 189.738 38.7954 190.297V190.435L27.9185 190.435L27.9183 186.041Z" fill="#2F2E41"/>
<path d="M26.515 134.288L27.3204 182.332C27.323 182.484 27.3567 182.634 27.4196 182.772C27.4824 182.911 27.573 183.035 27.6856 183.136C27.7982 183.238 27.9305 183.315 28.0742 183.363C28.2178 183.411 28.3698 183.429 28.5205 183.415L32.4679 183.054C32.7268 183.03 32.9691 182.915 33.1517 182.729C33.3343 182.543 33.4455 182.298 33.4656 182.038L35.7766 152.069C35.782 151.999 35.814 151.933 35.866 151.886C35.918 151.839 35.9861 151.813 36.0563 151.814C36.1265 151.816 36.1936 151.844 36.2437 151.893C36.2938 151.943 36.3232 152.01 36.3258 152.08L37.4809 182.735C37.4917 183.021 37.6123 183.291 37.8174 183.49C38.0224 183.688 38.296 183.799 38.5807 183.799H42.8141C43.0944 183.799 43.3641 183.692 43.5683 183.499C43.7724 183.306 43.8956 183.042 43.9127 182.76L46.8762 134.011L29.2665 129.586L26.515 134.288Z" fill="#2F2E41"/>
<path d="M39.2878 89.1751C43.0201 89.1751 46.0458 86.1335 46.0458 82.3815C46.0458 78.6295 43.0201 75.5879 39.2878 75.5879C35.5555 75.5879 32.5298 78.6295 32.5298 82.3815C32.5298 86.1335 35.5555 89.1751 39.2878 89.1751Z" fill="#FFB8B8"/>
<path d="M46.6171 136.069C46.6105 136.069 46.604 136.069 46.5974 136.069L30.7952 135.824C30.4915 135.819 30.2 135.703 29.9764 135.496C29.7527 135.289 29.6124 135.007 29.5822 134.703L29.4033 132.905C29.3999 132.871 29.384 132.839 29.3587 132.816C29.3334 132.793 29.3006 132.78 29.2664 132.78C29.2323 132.78 29.1994 132.793 29.1741 132.816C29.1488 132.839 29.1329 132.871 29.1295 132.905L28.9447 134.763C28.9161 135.053 28.7864 135.325 28.5784 135.529C28.3705 135.733 28.0976 135.857 27.8076 135.88L26.6909 135.966C26.4941 135.981 26.2965 135.949 26.1146 135.872C25.9327 135.795 25.7718 135.675 25.6453 135.523C25.5188 135.37 25.4304 135.19 25.3874 134.996C25.3444 134.802 25.3482 134.601 25.3983 134.409L26.3598 130.724C28.3496 123.064 28.5096 115.04 26.8269 107.307L26.3491 105.122C25.9889 103.489 26.1538 101.784 26.8199 100.252C27.4861 98.7204 28.6191 97.4407 30.0555 96.5979L33.1593 94.7689L34.5675 92.6455C34.84 92.2356 35.2068 91.8978 35.6368 91.6608C36.0668 91.4237 36.5474 91.2944 37.0377 91.2838C39.0021 91.2406 42.3718 91.6023 43.005 94.4899C44.5739 95.0288 45.9326 96.0537 46.8859 97.4175C47.8391 98.7812 48.3379 100.414 48.3104 102.08L47.8546 134.841C47.85 135.168 47.7176 135.48 47.4861 135.71C47.2545 135.94 46.9424 136.069 46.6171 136.069Z" fill="#3F3D56"/>
<path d="M38.7592 86.2975C38.7315 87.2579 38.0683 87.8135 37.254 88.3165C36.4397 88.8195 35.4878 89.0377 34.5553 89.248C34.4301 89.3149 34.2898 89.3482 34.148 89.3447C34.0063 89.3412 33.8678 89.301 33.746 89.2281C33.6241 89.1551 33.5231 89.0518 33.4525 88.9282C33.382 88.8045 33.3443 88.6646 33.3432 88.5221L32.4879 85.2518C32.1854 84.2071 31.9652 83.1401 31.8295 82.0606C31.6235 79.9836 32.1132 77.7492 33.5553 76.2475C34.9974 74.7457 37.4985 74.2122 39.2266 75.3693C41.2775 72.7361 50.6519 78.5538 48.3394 80.3849C47.928 80.7106 47.2992 80.2985 46.777 80.2585C46.2548 80.2185 45.6696 80.3109 45.3379 80.7183C44.9046 81.2505 45.0933 82.0433 44.9147 82.7073C44.8409 82.9409 44.7217 83.1575 44.5642 83.3446C44.4066 83.5317 44.2138 83.6856 43.9968 83.7974C43.7798 83.9092 43.5429 83.9767 43.2998 83.996C43.0567 84.0154 42.8122 83.9861 42.5804 83.91C42.1487 83.6962 41.7426 83.4337 41.3698 83.1276C40.9693 82.8594 40.4632 82.6613 40.0123 82.8304C39.418 83.0534 39.2069 83.7848 39.1532 84.4202C39.0626 85.0539 38.931 85.681 38.7592 86.2975Z" fill="#2F2E41"/>
<path opacity="0.2" d="M40.3374 104.505L41.438 118.058L47.2162 132.165L38.6865 118.335L40.3374 104.505Z" fill="black"/>
<path d="M111.423 178.725L51.1178 142.759C50.0833 142.141 49.3351 141.135 49.0374 139.962C48.7396 138.79 48.9167 137.547 49.5297 136.505L77.6295 88.8914C78.0803 88.1295 78.8133 87.5785 79.6677 87.3592C80.5221 87.1399 81.4282 87.2703 82.1871 87.7217L144.531 124.903C145.302 125.364 145.859 126.114 146.081 126.987C146.303 127.861 146.171 128.788 145.714 129.564L117.644 177.128C117.029 178.168 116.028 178.92 114.862 179.22C113.696 179.519 112.459 179.341 111.423 178.725Z" fill="#F2F2F2"/>
<path d="M57.2205 141.092L109.953 172.541C110.957 173.14 112.157 173.314 113.288 173.023C114.42 172.733 115.39 172.003 115.986 170.993L137.542 134.466C138.138 133.457 138.311 132.251 138.022 131.114C137.733 129.976 137.007 129.001 136.002 128.402L83.2698 96.9527C82.2656 96.3538 81.0659 96.1805 79.9346 96.4708C78.8033 96.7611 77.833 97.4913 77.2373 98.5008L55.6805 135.028C55.0848 136.037 54.9123 137.243 55.2011 138.381C55.4899 139.518 56.2163 140.493 57.2205 141.092Z" fill="white"/>
<path d="M145.822 129.257L77.7072 88.6342L78.8866 86.6358C79.5043 85.5926 80.5084 84.8383 81.6786 84.5384C82.8488 84.2384 84.0896 84.4174 85.1288 85.036L145.406 120.985C146.444 121.605 147.195 122.614 147.494 123.79C147.793 124.966 147.616 126.214 147.001 127.259L145.822 129.257Z" fill="#CCCCCC"/>
<path d="M86.5769 91.1046C87.2278 91.1046 87.7555 90.5741 87.7555 89.9198C87.7555 89.2654 87.2278 88.735 86.5769 88.735C85.926 88.735 85.3983 89.2654 85.3983 89.9198C85.3983 90.5741 85.926 91.1046 86.5769 91.1046Z" fill="white"/>
<path d="M90.4244 93.3993C91.0753 93.3993 91.603 92.8688 91.603 92.2145C91.603 91.5601 91.0753 91.0297 90.4244 91.0297C89.7735 91.0297 89.2458 91.5601 89.2458 92.2145C89.2458 92.8688 89.7735 93.3993 90.4244 93.3993Z" fill="white"/>
<path d="M94.2719 95.6938C94.9228 95.6938 95.4505 95.1634 95.4505 94.509C95.4505 93.8547 94.9228 93.3242 94.2719 93.3242C93.621 93.3242 93.0933 93.8547 93.0933 94.509C93.0933 95.1634 93.621 95.6938 94.2719 95.6938Z" fill="white"/>
<path d="M130.666 136.192L130.59 136.322L131.364 136.783L131.44 136.653L130.666 136.192Z" fill="#E6E6E6"/>
<path d="M129.024 135.388L127.457 134.453L127.534 134.324L129.1 135.258L129.024 135.388ZM125.891 133.519L124.325 132.585L124.402 132.455L125.968 133.389L125.891 133.519ZM122.759 131.651L121.193 130.717L121.269 130.587L122.835 131.521L122.759 131.651ZM119.626 129.783L118.06 128.849L118.137 128.719L119.703 129.653L119.626 129.783ZM116.494 127.915L114.928 126.981L115.004 126.851L116.57 127.785L116.494 127.915ZM113.361 126.047L111.795 125.113L111.872 124.983L113.438 125.917L113.361 126.047ZM110.229 124.179L108.663 123.244L108.739 123.115L110.306 124.049L110.229 124.179ZM107.096 122.31L105.53 121.376L105.607 121.246L107.173 122.181L107.096 122.31ZM103.964 120.442L102.398 119.508L102.474 119.378L104.041 120.312L103.964 120.442ZM100.832 118.574L99.2654 117.64L99.342 117.51L100.908 118.444L100.832 118.574ZM97.6991 116.706L96.1329 115.772L96.2096 115.642L97.7758 116.576L97.6991 116.706ZM94.5667 114.838L93.0005 113.904L93.0771 113.774L94.6433 114.708L94.5667 114.838ZM91.4342 112.97L89.868 112.036L89.9447 111.906L91.5109 112.84L91.4342 112.97ZM88.3018 111.101L86.7355 110.167L86.8122 110.037L88.3784 110.972L88.3018 111.101ZM85.1693 109.233L83.6031 108.299L83.6798 108.169L85.246 109.103L85.1693 109.233ZM82.0369 107.365L80.4706 106.431L80.5473 106.301L82.1135 107.235L82.0369 107.365Z" fill="#E6E6E6"/>
<path d="M78.2058 104.905L78.1292 105.035L78.9032 105.496L78.9798 105.366L78.2058 104.905Z" fill="#E6E6E6"/>
<path d="M98.0822 133.091L98.0056 133.221L98.7796 133.682L98.8562 133.552L98.0822 133.091Z" fill="#E6E6E6"/>
<path d="M96.4626 132.3L94.9196 131.38L94.9963 131.25L96.5392 132.17L96.4626 132.3ZM93.3766 130.46L91.8337 129.54L91.9104 129.41L93.4533 130.33L93.3766 130.46ZM90.2907 128.62L88.7478 127.699L88.8244 127.569L90.3674 128.49L90.2907 128.62ZM87.2048 126.779L85.6619 125.859L85.7385 125.729L87.2815 126.649L87.2048 126.779ZM84.1189 124.939L82.5759 124.018L82.6526 123.889L84.1956 124.809L84.1189 124.939ZM81.033 123.098L79.49 122.178L79.5667 122.048L81.1096 122.968L81.033 123.098ZM77.947 121.258L76.4041 120.338L76.4807 120.208L78.0237 121.128L77.947 121.258ZM74.8611 119.417L73.3182 118.497L73.3948 118.367L74.9378 119.288L74.8611 119.417Z" fill="#E6E6E6"/>
<path d="M71.0766 116.985L70.9999 117.115L71.774 117.576L71.8506 117.447L71.0766 116.985Z" fill="#E6E6E6"/>
<path d="M79.5913 129.79L79.5146 129.92L80.2886 130.381L80.3653 130.252L79.5913 129.79Z" fill="#E6E6E6"/>
<path d="M77.9272 128.973L76.3397 128.026L76.4164 127.896L78.0039 128.843L77.9272 128.973ZM74.7522 127.079L73.1647 126.133L73.2414 126.003L74.8289 126.95L74.7522 127.079ZM71.5773 125.186L69.9898 124.239L70.0665 124.109L71.6539 125.056L71.5773 125.186Z" fill="#E6E6E6"/>
<path d="M67.7036 122.7L67.627 122.83L68.401 123.292L68.4776 123.162L67.7036 122.7Z" fill="#E6E6E6"/>
<path d="M73.8352 139.543L73.7586 139.673L74.5326 140.135L74.6092 140.005L73.8352 139.543Z" fill="#E6E6E6"/>
<path d="M72.1711 138.726L70.5837 137.78L70.6603 137.65L72.2478 138.596L72.1711 138.726ZM68.9962 136.833L67.4087 135.886L67.4854 135.756L69.0728 136.703L68.9962 136.833ZM65.8212 134.939L64.2338 133.993L64.3104 133.863L65.8979 134.809L65.8212 134.939Z" fill="#E6E6E6"/>
<path d="M61.9476 132.454L61.871 132.583L62.645 133.045L62.7216 132.915L61.9476 132.454Z" fill="#E6E6E6"/>
<path d="M66.1832 135.29L110.871 161.941C111.953 162.585 113.246 162.771 114.465 162.458C115.684 162.146 116.73 161.359 117.373 160.272L130.43 138.148L130.34 138.098L100.716 145.699L98.3689 136.463C98.3261 136.292 98.2444 136.133 98.1305 136C98.0165 135.866 97.8733 135.761 97.712 135.692C97.4654 135.592 97.1929 135.577 96.9367 135.648L81.4122 139.631L79.6962 132.878C79.6592 132.732 79.5941 132.595 79.5044 132.475C79.4147 132.354 79.3023 132.253 79.1737 132.176C79.045 132.099 78.9025 132.049 78.7544 132.027C78.6063 132.006 78.4554 132.014 78.3104 132.051C78.2056 132.079 68.1036 134.77 66.1832 135.29Z" fill="#F9BC04"/>
<path d="M65.9161 135.306L65.8789 135.16L78.3019 131.972C78.63 131.888 78.9778 131.938 79.269 132.112C79.5602 132.286 79.771 132.568 79.8551 132.898L81.5363 139.518L96.9745 135.557C97.3027 135.473 97.6505 135.523 97.9417 135.697C98.2329 135.87 98.4437 136.153 98.5278 136.483L100.84 145.587L130.618 137.945L130.655 138.091L100.731 145.77L98.3822 136.52C98.3456 136.376 98.2811 136.241 98.1924 136.122C98.1037 136.002 97.9926 135.902 97.8653 135.826C97.7381 135.75 97.5972 135.7 97.4507 135.679C97.3043 135.658 97.1551 135.666 97.0117 135.703L81.4279 139.702L79.7095 132.935C79.6353 132.644 79.4493 132.395 79.1924 132.242C78.9354 132.089 78.6285 132.044 78.339 132.118L65.9161 135.306Z" fill="#3F3D56"/>
<path d="M80.3282 131.374C80.9091 131.374 81.3799 130.901 81.3799 130.317C81.3799 129.733 80.9091 129.26 80.3282 129.26C79.7474 129.26 79.2766 129.733 79.2766 130.317C79.2766 130.901 79.7474 131.374 80.3282 131.374Z" fill="#3F3D56"/>
<path d="M98.8191 134.675C99.4 134.675 99.8708 134.202 99.8708 133.618C99.8708 133.034 99.4 132.561 98.8191 132.561C98.2383 132.561 97.7675 133.034 97.7675 133.618C97.7675 134.202 98.2383 134.675 98.8191 134.675Z" fill="#3F3D56"/>
<path d="M131.034 137.221C131.614 137.221 132.085 136.748 132.085 136.164C132.085 135.58 131.614 135.107 131.034 135.107C130.453 135.107 129.982 135.58 129.982 136.164C129.982 136.748 130.453 137.221 131.034 137.221Z" fill="#3F3D56"/>
<path d="M48.5674 137.418C48.2519 137.164 47.9959 136.843 47.8173 136.478C47.6386 136.113 47.5417 135.713 47.5334 135.307C47.5251 134.9 47.6055 134.497 47.769 134.125C47.9326 133.753 48.1753 133.422 48.48 133.154L44.7988 123.989L49.8072 125.005L52.535 133.553C52.948 134.098 53.148 134.775 53.0971 135.458C53.0462 136.141 52.748 136.781 52.2589 137.257C51.7699 137.734 51.1239 138.013 50.4436 138.043C49.7632 138.073 49.0956 137.85 48.5674 137.418Z" fill="#FFB8B8"/>
<path d="M48.5063 133.447C48.235 133.467 47.9648 133.396 47.7373 133.246C47.5098 133.096 47.3376 132.875 47.2472 132.618L41.2881 115.546L40.0146 98.515C39.9795 98.0463 40.0374 97.5753 40.185 97.1294C40.3326 96.6834 40.5669 96.2714 40.8743 95.9173C41.1817 95.5632 41.5561 95.2741 41.9757 95.0667C42.3953 94.8594 42.8517 94.7379 43.3183 94.7095C43.785 94.6811 44.2526 94.7462 44.6941 94.901C45.1355 95.0559 45.5418 95.2975 45.8896 95.6117C46.2373 95.9258 46.5194 96.3064 46.7195 96.7311C46.9196 97.1559 47.0337 97.6164 47.0552 98.0859L47.7682 113.64L52.445 130.85C52.5256 131.152 52.4907 131.473 52.3474 131.751C52.204 132.028 51.9625 132.241 51.6705 132.349L48.8354 133.376C48.7294 133.415 48.6187 133.439 48.5063 133.447Z" fill="#3F3D56"/>
<path d="M158.997 118.321C158.886 118.272 158.782 118.207 158.69 118.128L153.148 113.435C153.015 113.323 152.906 113.183 152.829 113.026C152.752 112.869 152.709 112.698 152.701 112.523C152.693 112.348 152.722 112.173 152.785 112.01C152.848 111.847 152.944 111.698 153.067 111.574L158.096 106.498C158.307 106.283 158.588 106.152 158.887 106.128C159.187 106.104 159.485 106.189 159.727 106.367L163.53 109.144C163.768 109.317 163.937 109.568 164.01 109.854C164.083 110.14 164.054 110.442 163.929 110.709L160.639 117.702C160.499 117.999 160.249 118.23 159.943 118.346C159.636 118.461 159.297 118.452 158.997 118.321L158.997 118.321Z" fill="#F9BC04"/>
<path d="M180.612 184.695L177.302 185.6L172.253 173.197L177.138 171.861L180.612 184.695Z" fill="#FFB8B8"/>
<path d="M174.614 185.314L181.064 183.55L182.157 187.59L171.755 190.436L171.737 190.369C171.452 189.315 171.594 188.19 172.134 187.242C172.674 186.295 173.566 185.601 174.614 185.314Z" fill="#2F2E41"/>
<path d="M152.317 187.234L148.886 187.233L147.255 173.933L152.317 173.933L152.317 187.234Z" fill="#FFB8B8"/>
<path d="M146.367 186.248H153.052V190.435H142.271V190.366C142.271 189.274 142.703 188.226 143.471 187.454C144.239 186.682 145.281 186.248 146.367 186.248Z" fill="#2F2E41"/>
<path d="M157.484 99.418C161.279 99.418 164.356 96.3251 164.356 92.5099C164.356 88.6947 161.279 85.6018 157.484 85.6018C153.689 85.6018 150.612 88.6947 150.612 92.5099C150.612 96.3251 153.689 99.418 157.484 99.418Z" fill="#FFB8B8"/>
<path d="M152.107 177.75H147.419C147.099 177.75 146.79 177.627 146.557 177.406C146.323 177.186 146.182 176.884 146.161 176.563C144.765 154.241 145.582 138.23 148.732 126.174C148.746 126.121 148.763 126.069 148.784 126.018L149.035 125.388C149.127 125.152 149.288 124.95 149.497 124.808C149.706 124.666 149.952 124.591 150.204 124.592H159.843C160.025 124.592 160.204 124.631 160.369 124.707C160.534 124.784 160.681 124.895 160.799 125.034L162.108 126.569C162.134 126.599 162.158 126.63 162.181 126.662C168.084 134.938 173.375 151.119 179.503 172.867C179.593 173.183 179.558 173.522 179.403 173.812C179.248 174.102 178.987 174.32 178.675 174.419L173.638 176.039C173.348 176.131 173.036 176.115 172.758 175.995C172.479 175.874 172.253 175.658 172.12 175.384L159.047 148.127C158.956 147.937 158.806 147.781 158.62 147.683C158.433 147.585 158.22 147.55 158.012 147.583C157.805 147.616 157.613 147.715 157.466 147.866C157.318 148.017 157.224 148.212 157.195 148.421L153.354 176.656C153.312 176.959 153.163 177.236 152.933 177.437C152.704 177.638 152.411 177.749 152.107 177.75Z" fill="#2F2E41"/>
<path d="M161.58 126.682C161.567 126.682 161.553 126.682 161.54 126.681L149.831 126.31C149.53 126.301 149.242 126.184 149.02 125.98C148.798 125.776 148.656 125.498 148.62 125.198C147.136 113.12 151.207 109.884 153.026 109.054C153.178 108.985 153.309 108.878 153.408 108.742C153.507 108.607 153.569 108.449 153.589 108.282L153.746 107.016C153.773 106.793 153.859 106.58 153.995 106.402C156.847 102.687 160.741 101.498 162.809 101.12C162.977 101.09 163.149 101.094 163.315 101.133C163.481 101.171 163.637 101.243 163.775 101.345C163.912 101.446 164.028 101.574 164.114 101.722C164.201 101.869 164.257 102.033 164.278 102.203L164.514 104.02C164.538 104.194 164.607 104.358 164.714 104.496C170.662 112.313 164.035 123.855 162.647 126.089C162.533 126.27 162.376 126.42 162.189 126.524C162.003 126.627 161.793 126.682 161.58 126.682Z" fill="#F9BC04"/>
<path d="M165.045 88.2136C164.534 86.6582 164.158 85.0617 163.919 83.4415C163.843 82.4983 164.084 81.4834 164.767 80.8326C166.046 79.6147 168.219 80.1948 169.556 81.3474C171.489 83.0133 172.453 85.5734 172.817 88.1063C173.181 90.6393 173.021 93.215 173.109 95.7728C173.196 98.3306 173.56 100.961 174.857 103.163C176.154 105.365 178.562 107.055 181.101 106.868C182.126 106.812 183.099 106.398 183.851 105.696C184.221 105.343 184.5 104.906 184.667 104.421C184.834 103.937 184.882 103.419 184.809 102.912C186.107 105.248 185.449 108.414 183.513 110.25C181.578 112.087 178.6 112.606 176.055 111.822C173.511 111.038 171.416 109.072 170.165 106.71C168.914 104.349 168.456 101.621 168.522 98.9458C168.573 96.8918 168.921 94.821 168.575 92.7959C168.23 90.7707 166.969 88.7145 164.981 88.2376L165.045 88.2136Z" fill="#2F2E41"/>
<path d="M156.117 90.8761C155.778 92.0144 154.481 92.7163 153.315 92.5238C152.734 92.4024 152.197 92.1252 151.761 91.7218C151.324 91.3183 151.004 90.8036 150.835 90.2322C150.515 89.0745 150.646 87.8375 151.202 86.7737C151.508 86.1361 151.937 85.5655 152.463 85.0945C152.989 84.6235 153.602 84.2614 154.267 84.0289C154.937 83.806 155.649 83.748 156.345 83.8598C157.041 83.9717 157.7 84.25 158.267 84.6714C158.328 84.4157 158.455 84.1808 158.635 83.9909C158.816 83.8009 159.044 83.6628 159.295 83.5907C159.801 83.4536 160.336 83.4615 160.838 83.6136C162.284 84.028 163.538 84.9448 164.375 86.2008C165.202 87.4529 165.749 88.8704 165.979 90.3555C166.373 92.5826 166.228 95.0163 164.984 96.9013C163.739 98.7862 161.194 99.8992 159.128 99.0006C159 98.3388 159.305 97.6724 159.658 97.099C160.011 96.5255 160.429 95.9669 160.564 95.3064C160.7 94.646 160.44 93.8382 159.805 93.6222C159.263 93.438 158.684 93.7365 158.113 93.7725C157.789 93.793 157.465 93.7274 157.174 93.5822C156.883 93.4371 156.635 93.2175 156.455 92.9456C156.274 92.6736 156.169 92.3588 156.148 92.0328C156.127 91.7068 156.192 91.381 156.336 91.0881L156.117 90.8761Z" fill="#2F2E41"/>
<path d="M138.701 119.335C138.814 119.441 138.919 119.555 139.015 119.677L152.849 118.595L154.308 115.54L159.182 117.15L156.546 124.396L139.12 123.22C138.775 123.71 138.291 124.082 137.731 124.288C137.171 124.494 136.562 124.524 135.985 124.374C135.407 124.223 134.889 123.9 134.5 123.446C134.11 122.992 133.867 122.43 133.802 121.834C133.738 121.238 133.856 120.637 134.14 120.11C134.424 119.583 134.861 119.155 135.393 118.884C135.924 118.612 136.526 118.51 137.117 118.591C137.707 118.671 138.26 118.931 138.701 119.335V119.335Z" fill="#FFB8B8"/>
<path d="M159.107 121.977C158.99 121.943 158.879 121.893 158.776 121.828L152.65 117.938C152.503 117.844 152.377 117.721 152.279 117.576C152.182 117.431 152.115 117.267 152.084 117.095C152.053 116.923 152.057 116.746 152.097 116.575C152.138 116.405 152.213 116.245 152.318 116.105L156.611 110.387C156.791 110.146 157.052 109.977 157.346 109.912C157.639 109.847 157.946 109.891 158.21 110.034L162.354 112.264C162.613 112.403 162.815 112.629 162.926 112.902C163.037 113.175 163.049 113.478 162.961 113.76L160.65 121.138C160.551 121.452 160.335 121.715 160.047 121.871C159.759 122.028 159.422 122.066 159.107 121.977Z" fill="#F9BC04"/>
</g>
<defs>
<clipPath id="clip0">
<rect width="209.666" height="190.796" fill="white" transform="translate(0.586548)"/>
</clipPath>
</defs>
</svg>
