<svg width="62" height="62" viewBox="0 0 62 62" fill="none" xmlns="http://www.w3.org/2000/svg">
<path d="M61.0608 14.9679C61.0572 13.8822 60.9578 12.799 60.7638 11.7308C60.5155 10.4265 60.1661 9.15542 59.5414 7.97654C58.8909 6.73404 58.0442 5.60465 57.0339 4.6319C55.5079 3.13812 53.623 2.06251 51.5606 1.5087C49.6624 0.996705 47.7206 0.889185 45.7738 0.891745C45.7673 0.883165 45.7633 0.872985 45.7622 0.862305H16.2275C16.2275 0.872545 16.2275 0.882785 16.2275 0.891745C15.1203 0.912225 14.0106 0.903265 12.9098 1.04022C11.7026 1.16827 10.5141 1.43499 9.36799 1.8351C7.58538 2.49265 5.97647 3.54861 4.66399 4.92246C3.1595 6.4514 2.07609 8.34351 1.51903 10.4149C1.01471 12.2991 0.904632 14.2204 0.902072 16.1557L0.881592 45.8095C0.917432 47.1471 0.928952 48.4975 1.15423 49.8236C1.39359 51.2316 1.73535 52.6025 2.38815 53.8799C3.25654 55.5911 4.49373 57.0884 6.01055 58.2639C7.09341 59.127 8.32013 59.7921 9.63423 60.2287C11.5696 60.8533 13.5664 61.0927 15.5926 61.1042C16.8573 61.1119 18.1194 61.1439 19.384 61.1388C23.9216 61.1196 28.4579 61.1388 32.9955 61.1388V41.0121H26.2269V32.9199H32.9968V27.1215C32.9968 27.1215 32.5078 17.4895 42.0003 16.7215H49.1888V24.0495H43.9536C43.9536 24.0495 41.7213 24.4719 41.368 26.5634V32.7753H48.8368L47.9997 40.5231H41.2323V61.1311C43.1327 61.1217 45.0335 61.1055 46.9347 61.0825C48.1478 61.0559 49.3565 60.9274 50.5481 60.6985C52.8012 60.3012 54.8978 59.2804 56.6 57.7519C58.6198 55.9497 59.983 53.7455 60.5987 51.0844C61.0019 49.3449 61.1017 47.5797 61.1197 45.8095V45.4562C61.1184 45.3193 61.0659 15.3634 61.0608 14.9679Z" fill="#5B5B5B"/>
</svg>
