<svg width="488" height="567" viewBox="0 0 488 567" fill="none" xmlns="http://www.w3.org/2000/svg">
<path d="M243.621 566.191C378.17 566.191 487.242 504.229 487.242 427.795C487.242 351.361 378.17 289.399 243.621 289.399C109.073 289.399 0 351.361 0 427.795C0 504.229 109.073 566.191 243.621 566.191Z" fill="#F5F5F5"/>
<path d="M345.001 515.056L163.148 410.053C161.548 409.132 160.219 407.805 159.295 406.206C158.372 404.608 157.885 402.794 157.885 400.948C157.885 399.101 158.372 397.288 159.295 395.689C160.219 394.091 161.548 392.764 163.148 391.842L181.087 380.529C184.184 378.746 187.695 377.807 191.268 377.807C194.842 377.807 198.353 378.746 201.45 380.529L383.328 485.544C384.928 486.466 386.256 487.793 387.18 489.392C388.104 490.99 388.591 492.804 388.591 494.65C388.591 496.496 388.104 498.31 387.18 499.909C386.256 501.507 384.928 502.834 383.328 503.756L365.389 515.056C362.291 516.849 358.774 517.793 355.195 517.793C351.616 517.793 348.099 516.849 345.001 515.056Z" fill="#E0E0E0"/>
<path d="M68.4933 419.326C90.2887 419.326 107.957 409.18 107.957 396.664C107.957 384.148 90.2887 374.001 68.4933 374.001C46.6979 374.001 29.0293 384.148 29.0293 396.664C29.0293 409.18 46.6979 419.326 68.4933 419.326Z" fill="#D1CCCC"/>
<path d="M409.489 424.518L426.798 434.471C426.798 434.471 417.958 406.69 422.668 378.687C424.449 368.104 428.269 362.85 429.604 360.018C430.939 357.187 441.288 339.693 432.077 331.681C422.866 323.67 401.44 339.779 402.602 382.891C403.131 397.002 405.445 410.989 409.489 424.518Z" fill="#0BFF7B"/>
<path opacity="0.5" d="M409.489 424.518L426.798 434.471C426.798 434.471 417.958 406.69 422.668 378.687C424.449 368.104 428.269 362.85 429.604 360.018C430.939 357.187 441.288 339.693 432.077 331.681C422.866 323.67 401.44 339.779 402.602 382.891C403.131 397.002 405.445 410.989 409.489 424.518Z" fill="black"/>
<path d="M417.537 429.761C417.412 429.763 417.288 429.727 417.184 429.656C417.08 429.585 417 429.483 416.956 429.365C416.895 429.179 410.28 411.104 410.49 382.05C410.7 352.996 425.969 337.22 426.118 337.072C426.175 337.014 426.244 336.968 426.319 336.937C426.394 336.905 426.475 336.889 426.557 336.889C426.638 336.889 426.719 336.905 426.794 336.937C426.87 336.968 426.938 337.014 426.995 337.072C427.053 337.129 427.099 337.198 427.131 337.273C427.162 337.349 427.178 337.429 427.178 337.511C427.178 337.593 427.162 337.673 427.131 337.749C427.099 337.824 427.053 337.892 426.995 337.95C426.847 338.098 411.937 353.404 411.727 382.062C411.516 410.721 418.044 428.771 418.119 428.945C418.174 429.099 418.166 429.269 418.097 429.417C418.027 429.565 417.902 429.68 417.748 429.736C417.68 429.757 417.608 429.765 417.537 429.761Z" fill="white"/>
<path d="M416.709 428.771L440.373 442.371C442.838 443.829 445.763 444.303 448.563 443.701C451.363 443.098 453.833 441.462 455.481 439.119C457.047 436.682 457.708 433.772 457.348 430.898C456.21 418.609 450.869 415.777 457.41 410.3C463.95 404.823 465.656 404.44 465.285 399.173C464.914 393.906 461.316 391.607 459.61 389.53C457.904 387.453 453.181 383.101 456.396 376.672C459.61 370.243 463.999 364.024 457.348 361.18C453.379 359.474 446.765 361.749 442.413 366.472C438.061 371.195 434.475 374.595 430.309 375.732C426.142 376.87 417.463 377.055 417.834 384.238C418.205 391.421 420.109 393.882 418.403 397.084C415.188 403.068 401.205 406.468 416.709 428.771Z" fill="#0BFF7B"/>
<path d="M428.405 436.091C428.251 436.086 428.104 436.025 427.99 435.921C427.877 435.817 427.804 435.675 427.787 435.522C427.787 435.101 424.152 392.67 453.33 364.432C453.45 364.333 453.603 364.283 453.759 364.292C453.915 364.301 454.061 364.369 454.169 364.481C454.277 364.594 454.339 364.743 454.341 364.899C454.344 365.055 454.287 365.206 454.183 365.322C425.425 393.152 428.986 434.99 429.023 435.411C429.037 435.573 428.986 435.734 428.882 435.859C428.778 435.984 428.629 436.062 428.467 436.078L428.405 436.091Z" fill="white"/>
<path d="M433.091 399.569C432.935 399.57 432.785 399.511 432.67 399.406C432.556 399.3 432.485 399.156 432.472 399C432.214 395.712 431.287 392.511 429.751 389.593C428.214 386.674 426.098 384.099 423.534 382.025C423.467 381.979 423.41 381.919 423.366 381.85C423.323 381.781 423.293 381.704 423.279 381.624C423.265 381.543 423.268 381.461 423.286 381.381C423.304 381.302 423.338 381.226 423.385 381.16C423.431 381.094 423.49 381.037 423.557 380.993C423.625 380.95 423.701 380.92 423.781 380.906C423.86 380.893 423.942 380.895 424.02 380.913C424.099 380.931 424.173 380.964 424.238 381.012C426.972 383.179 429.225 385.891 430.855 388.974C432.485 392.058 433.457 395.447 433.709 398.926C433.723 399.092 433.671 399.256 433.564 399.383C433.458 399.51 433.305 399.59 433.14 399.606L433.091 399.569Z" fill="white"/>
<path d="M431.075 406.851C430.926 406.853 430.781 406.8 430.667 406.703C430.545 406.593 430.47 406.44 430.458 406.276C430.447 406.112 430.499 405.95 430.606 405.825C430.902 405.479 438.209 397.418 455.332 399.557C455.495 399.578 455.642 399.663 455.741 399.793C455.841 399.923 455.885 400.087 455.864 400.249C455.842 400.412 455.758 400.56 455.629 400.662C455.499 400.763 455.335 400.811 455.172 400.793C438.728 398.728 431.595 406.567 431.521 406.641C431.464 406.704 431.396 406.755 431.319 406.791C431.243 406.827 431.16 406.848 431.075 406.851Z" fill="white"/>
<path d="M339.462 502.507L179.529 410.165C168.241 403.649 159.093 386.167 159.093 371.121V28.6541C159.093 13.6078 168.241 6.69667 179.529 13.2122L339.462 105.555C350.75 112.07 359.899 129.552 359.899 144.598V487.065C359.899 502.099 350.75 509.023 339.462 502.507Z" fill="#455A64"/>
<path d="M357.884 94.786L197.938 2.44358C193.117 -0.338187 188.691 -0.659638 185.192 1.04651C184.763 1.26103 184.35 1.50475 183.955 1.77596L166.028 12.1983C169.639 10.0347 174.361 10.1954 179.542 13.1874L339.475 105.53C350.763 112.045 359.912 129.527 359.912 144.573V487.04C359.912 495.002 357.352 500.64 353.272 503.311L370.964 493.012C375.477 490.613 378.383 484.741 378.383 476.321V133.854C378.383 118.783 369.172 101.301 357.884 94.786Z" fill="#37474F"/>
<path d="M359.899 144.574V487.04C359.899 495.002 357.34 500.64 353.26 503.311L370.964 493.012C375.477 490.613 378.382 484.741 378.382 476.321V133.854L359.961 144.549L359.899 144.574Z" fill="#263238"/>
<path d="M378.321 160.423L359.899 171.056V179.364L378.321 168.719V160.423Z" fill="#37474F"/>
<path d="M370.247 215.676C368.603 216.628 367.268 215.614 367.268 213.425V195.56C367.285 194.443 367.563 193.346 368.08 192.356C368.598 191.367 369.34 190.512 370.247 189.861C371.892 188.909 373.227 189.861 373.227 192.111V209.976C373.21 211.093 372.932 212.19 372.415 213.18C371.897 214.17 371.155 215.024 370.247 215.676Z" fill="#37474F"/>
<path d="M367.255 213.475V195.56C367.272 194.444 367.55 193.346 368.068 192.356C368.585 191.367 369.328 190.512 370.235 189.861C370.506 189.671 370.822 189.555 371.152 189.525C371.481 189.495 371.813 189.551 372.114 189.688L369.876 188.538C369.57 188.391 369.231 188.327 368.892 188.353C368.554 188.379 368.228 188.494 367.948 188.686C367.039 189.337 366.296 190.192 365.776 191.181C365.257 192.171 364.976 193.268 364.956 194.386V212.239C364.909 212.69 364.978 213.145 365.155 213.562C365.333 213.98 365.613 214.345 365.97 214.625L368.306 215.861C367.934 215.593 367.641 215.231 367.456 214.811C367.271 214.392 367.202 213.93 367.255 213.475Z" fill="#455A64"/>
<path d="M370.247 258.91C368.603 259.862 367.268 258.91 367.268 256.66V238.795C367.285 237.679 367.564 236.582 368.081 235.592C368.599 234.602 369.341 233.747 370.247 233.096C371.892 232.144 373.227 233.096 373.227 235.358V253.211C373.212 254.328 372.935 255.426 372.417 256.416C371.9 257.406 371.156 258.261 370.247 258.91Z" fill="#37474F"/>
<path d="M367.255 256.66V238.795C367.273 237.679 367.552 236.582 368.069 235.592C368.587 234.602 369.328 233.747 370.235 233.096C370.508 232.909 370.823 232.796 371.152 232.765C371.481 232.735 371.812 232.789 372.114 232.923L369.877 231.76C369.572 231.607 369.231 231.539 368.891 231.565C368.551 231.591 368.225 231.71 367.948 231.909C367.037 232.558 366.292 233.412 365.772 234.402C365.253 235.392 364.973 236.49 364.956 237.608V255.511C364.908 255.962 364.976 256.417 365.154 256.835C365.331 257.252 365.612 257.618 365.97 257.897L368.306 259.133C367.919 258.859 367.616 258.482 367.43 258.046C367.245 257.609 367.184 257.129 367.255 256.66Z" fill="#455A64"/>
<path d="M333.874 115.161L176.71 24.3886C176.054 24.0112 175.311 23.812 174.555 23.8106C173.798 23.8091 173.054 24.0057 172.397 24.3806C171.739 24.7555 171.191 25.2957 170.807 25.9478C170.423 26.5998 170.216 27.3409 170.207 28.0976V371.121C170.207 382.569 178.33 396.626 188.245 402.351L341.552 490.91C342.279 491.328 343.103 491.548 343.942 491.547C344.781 491.547 345.605 491.326 346.331 490.906C347.057 490.486 347.661 489.883 348.081 489.157C348.5 488.431 348.722 487.607 348.723 486.768V140.914C348.785 131.468 342.084 119.884 333.874 115.161Z" fill="#0BFF7B"/>
<path opacity="0.9" d="M333.874 115.161L176.71 24.3886C176.054 24.0112 175.311 23.812 174.555 23.8106C173.798 23.8091 173.054 24.0057 172.397 24.3806C171.739 24.7555 171.191 25.2957 170.807 25.9478C170.423 26.5998 170.216 27.3409 170.207 28.0976V371.121C170.207 382.569 178.33 396.626 188.245 402.351L341.552 490.91C342.279 491.328 343.103 491.548 343.942 491.547C344.781 491.547 345.605 491.326 346.331 490.906C347.057 490.486 347.661 489.883 348.081 489.157C348.5 488.431 348.722 487.607 348.723 486.768V140.914C348.785 131.468 342.084 119.884 333.874 115.161Z" fill="white"/>
<path d="M223.716 48.0894L226.152 58.3386L278.251 88.3817L287.252 83.5847L223.716 48.0894Z" fill="#455A64"/>
<path d="M239.034 57.9925C239.034 59.6986 237.798 60.3786 236.364 59.5379C235.594 59.0267 234.955 58.3421 234.497 57.5391C234.04 56.7361 233.777 55.8369 233.73 54.914C233.73 53.2202 234.967 52.5278 236.401 53.3809C237.171 53.8894 237.81 54.5717 238.267 55.3728C238.725 56.1738 238.988 57.0712 239.034 57.9925Z" fill="#263238"/>
<path d="M274.134 79.6902C273.849 79.6879 273.569 79.6158 273.318 79.48L246.712 64.6439C246.336 64.4233 246.062 64.0645 245.947 63.6443C245.832 63.224 245.887 62.7756 246.098 62.3947C246.309 62.0138 246.661 61.7306 247.079 61.6057C247.496 61.4808 247.946 61.524 248.332 61.7262L274.95 76.5623C275.274 76.7421 275.528 77.0244 275.674 77.3648C275.819 77.7051 275.848 78.0842 275.754 78.4425C275.661 78.8007 275.451 79.1176 275.158 79.3435C274.864 79.5694 274.504 79.6914 274.134 79.6902Z" fill="#263238"/>
<path d="M203.168 95.7751C201.548 94.8355 200.374 95.6514 200.374 97.7161C200.374 98.7486 200.629 99.7652 201.116 100.675C201.604 101.586 202.309 102.361 203.168 102.933C203.628 103.213 204.156 103.361 204.695 103.361C205.233 103.361 205.762 103.213 206.222 102.933L208.806 107.607C207.897 108.108 206.866 108.347 205.829 108.297C204.792 108.247 203.789 107.91 202.933 107.323C200.834 106.038 199.084 104.256 197.837 102.134C196.591 100.012 195.887 97.6158 195.787 95.1569C195.787 90.5701 198.866 88.9752 203.106 91.4479C205.501 92.99 207.463 95.1177 208.806 97.6296L206.222 99.6819C205.585 98.1224 204.528 96.77 203.168 95.7751Z" fill="#0BFF7B"/>
<path d="M223.679 111.266C223.679 115.89 220.551 117.448 216.261 114.976C214.102 113.685 212.295 111.881 211.001 109.725C209.707 107.568 208.965 105.124 208.843 102.612C208.843 97.9882 211.971 96.4304 216.261 98.9031C218.425 100.188 220.236 101.99 221.531 104.148C222.826 106.306 223.564 108.752 223.679 111.266ZM213.43 105.369C213.451 106.431 213.725 107.472 214.228 108.407C214.731 109.342 215.449 110.144 216.323 110.747C217.856 111.637 219.092 110.747 219.092 108.645C219.088 107.608 218.834 106.586 218.352 105.668C217.87 104.749 217.174 103.959 216.323 103.366C214.765 102.464 213.43 103.23 213.43 105.369Z" fill="#0BFF7B"/>
<path d="M228.661 106.358L234.002 117.485V109.474L238.045 111.81V127.401L234.336 125.249L229.02 114.221V122.183L224.952 119.834V104.207L228.661 106.358Z" fill="#0BFF7B"/>
<path d="M251.262 119.402V123.482L247.404 121.256V132.779L242.941 130.195V118.672L239.109 116.459V112.392L251.262 119.402Z" fill="#0BFF7B"/>
<path d="M259.966 137.823L254.897 134.893L254.204 136.698L249.63 134.052L255.329 121.75L259.916 124.396L265.406 143.164L260.646 140.419L259.966 137.823ZM258.865 133.496L257.481 128.167L256.059 131.876L258.865 133.496Z" fill="#0BFF7B"/>
<path d="M272.49 135.796C270.87 134.868 269.696 135.672 269.696 137.749C269.698 138.781 269.954 139.797 270.441 140.707C270.928 141.616 271.632 142.393 272.49 142.966C272.953 143.243 273.483 143.389 274.023 143.389C274.563 143.389 275.092 143.243 275.556 142.966L278.14 147.64C277.227 148.136 276.195 148.371 275.158 148.321C274.12 148.271 273.116 147.937 272.255 147.355C270.154 146.07 268.403 144.286 267.156 142.162C265.91 140.037 265.206 137.638 265.109 135.177C265.109 130.591 268.2 128.996 272.428 131.468C274.82 133.018 276.784 135.144 278.14 137.65L275.556 139.69C274.905 138.139 273.845 136.793 272.49 135.796Z" fill="#0BFF7B"/>
<path d="M290.33 141.965V146.032L286.473 143.807V155.367L282.01 152.783V141.26L278.177 139.047V134.979L290.33 141.965Z" fill="#0BFF7B"/>
<path d="M303.522 161.103C304.622 161.734 305.463 161.239 305.463 159.694V150.706L309.939 153.277V162.265C309.939 166.407 307.466 167.644 303.51 165.381C301.604 164.323 300.001 162.792 298.856 160.937C297.711 159.082 297.061 156.964 296.969 154.786V145.797L301.445 148.381V157.37C301.462 158.114 301.66 158.843 302.022 159.493C302.384 160.144 302.899 160.696 303.522 161.103Z" fill="#0BFF7B"/>
<path d="M317.146 161.153C316.64 160.869 316.318 160.856 316.318 161.326C316.318 163.279 323.303 166.098 323.303 171.748C323.303 175.21 320.67 175.222 317.629 173.467C314.955 171.829 312.652 169.652 310.866 167.075L312.523 164.157C313.882 166.262 315.627 168.091 317.666 169.548C318.321 169.931 318.741 169.931 318.741 169.375C318.741 167.347 311.744 164.652 311.744 159.175C311.744 156.059 314.018 155.466 317.53 157.444C319.792 158.812 321.782 160.585 323.402 162.674L321.783 165.666C320.445 163.962 318.886 162.444 317.146 161.153Z" fill="#0BFF7B"/>
<path d="M180.679 172.601C185.695 166.44 188.221 158.623 187.756 150.691C187.292 142.76 183.872 135.29 178.171 129.757C172.47 124.223 164.902 121.027 156.96 120.799C149.018 120.571 141.279 123.328 135.27 128.526C129.261 133.723 125.419 140.984 124.5 148.876C123.582 156.768 125.655 164.717 130.309 171.156C134.964 177.595 141.863 182.055 149.645 183.657C157.427 185.259 165.527 183.886 172.346 179.809L187.825 186.535L180.679 172.601Z" fill="#0BFF7B"/>
<path opacity="0.4" d="M180.679 172.601C185.695 166.44 188.221 158.623 187.756 150.691C187.292 142.76 183.872 135.29 178.171 129.757C172.47 124.223 164.902 121.027 156.96 120.799C149.018 120.571 141.279 123.328 135.27 128.526C129.261 133.723 125.419 140.984 124.5 148.876C123.582 156.768 125.655 164.717 130.309 171.156C134.964 177.595 141.863 182.055 149.645 183.657C157.427 185.259 165.527 183.886 172.346 179.809L187.825 186.535L180.679 172.601Z" fill="black"/>
<path d="M144.281 150.842C144.281 150.36 143.935 150.088 143.304 150.088C141.842 150.279 140.476 150.923 139.398 151.93L137.642 148.517C139.49 147.127 141.722 146.341 144.034 146.267C147.001 146.267 149.251 147.825 149.251 150.149C149.251 151.806 148.015 153.401 146.432 154.996L144.219 157.184H149.449V160.819H138.211V157.839L143.218 152.659C143.757 152.182 144.13 151.545 144.281 150.842Z" fill="white"/>
<path d="M158.598 146.477L155.186 154.662H156.583V151.905H160.885V154.662H162.517V158.037H160.885V160.819H156.583V158.037H150.463V154.971L154.172 146.477H158.598Z" fill="white"/>
<path d="M175.795 153.685V160.819H171.196V155.008C171.223 154.819 171.208 154.626 171.154 154.443C171.1 154.26 171.007 154.09 170.881 153.946C170.756 153.802 170.601 153.687 170.427 153.607C170.253 153.528 170.064 153.487 169.873 153.487C168.971 153.487 168.402 154.192 168.402 155.28V160.819H163.803V145.661H168.402V151.237C168.762 150.669 169.263 150.203 169.857 149.887C170.451 149.57 171.117 149.414 171.79 149.432C172.341 149.418 172.889 149.52 173.398 149.732C173.907 149.944 174.366 150.262 174.744 150.663C175.122 151.064 175.411 151.541 175.592 152.062C175.773 152.583 175.843 153.136 175.795 153.685Z" fill="white"/>
<path d="M325.764 268.566V422.182C325.766 423.919 325.311 425.627 324.444 427.132C323.577 428.638 322.329 429.889 320.825 430.758C319.321 431.628 317.614 432.086 315.877 432.087C314.139 432.088 312.432 431.631 310.928 430.762L228.192 382.99L213.529 374.533C208.479 371.614 204.285 367.42 201.365 362.371C198.444 357.323 196.901 351.596 196.887 345.763V192.136C196.885 190.398 197.34 188.691 198.207 187.185C199.074 185.679 200.322 184.429 201.826 183.559C203.33 182.689 205.037 182.231 206.774 182.23C208.512 182.23 210.219 182.687 211.724 183.555L309.147 239.797C314.199 242.711 318.394 246.905 321.31 251.955C324.227 257.005 325.763 262.734 325.764 268.566Z" fill="#0BFF7B"/>
<path opacity="0.5" d="M325.764 268.566V422.182C325.766 423.919 325.311 425.627 324.444 427.132C323.577 428.638 322.329 429.889 320.825 430.758C319.321 431.628 317.614 432.086 315.877 432.087C314.139 432.088 312.432 431.631 310.928 430.762L228.192 382.99L213.529 374.533C208.479 371.614 204.285 367.42 201.365 362.371C198.444 357.323 196.901 351.596 196.887 345.763V192.136C196.885 190.398 197.34 188.691 198.207 187.185C199.074 185.679 200.322 184.429 201.826 183.559C203.33 182.689 205.037 182.231 206.774 182.23C208.512 182.23 210.219 182.687 211.724 183.555L309.147 239.797C314.199 242.711 318.394 246.905 321.31 251.955C324.227 257.005 325.763 262.734 325.764 268.566Z" fill="white"/>
<path d="M278.103 359.462C278.103 359.462 293.594 385.153 282.405 414.121L228.155 382.99L278.103 359.462Z" fill="#263238"/>
<path d="M302.808 244.034C303.981 234.512 297.212 225.843 287.691 224.67C278.169 223.498 269.5 230.266 268.327 239.788C267.155 249.31 273.923 257.979 283.445 259.151C292.966 260.324 301.636 253.555 302.808 244.034Z" fill="#263238"/>
<path d="M285.657 193.186C285.657 193.186 290.986 184.532 292.617 185.162C294.249 185.793 291.554 194.039 291.554 194.039C291.554 194.039 299.615 195.721 298.119 197.748C296.623 199.776 286.77 199.294 286.77 199.294L285.657 193.186Z" fill="#263238"/>
<path d="M289.366 215.49C285.657 243.357 262.166 243.357 262.166 243.357L212.96 221.697C212.96 221.697 209.251 218.445 208.113 210.977C207.677 207.919 207.677 204.813 208.113 201.754C208.113 201.754 208.113 201.692 208.113 201.668C209.684 189.947 218.449 177.349 237.538 173.479C241.722 172.635 245.98 172.22 250.248 172.243C252.313 172.236 254.376 172.339 256.43 172.552C271.266 174.011 281.663 180.934 286.621 191.703C287.736 194.133 288.566 196.685 289.094 199.306C290.1 204.647 290.192 210.119 289.366 215.49Z" fill="#263238"/>
<path d="M171.233 269.395C171.233 269.395 153.764 268.789 147.038 285.813C147.038 285.813 154.456 290.82 164.186 285.813C173.916 280.806 171.233 269.395 171.233 269.395Z" fill="#0BFF7B"/>
<path opacity="0.5" d="M171.233 269.395C171.233 269.395 153.764 268.789 147.038 285.813C147.038 285.813 154.456 290.82 164.186 285.813C173.916 280.806 171.233 269.395 171.233 269.395Z" fill="black"/>
<path d="M170.739 277.592C170.739 277.592 165.793 256.104 163.185 255.844C160.576 255.585 160.069 262.397 160.279 266.242L154.098 252.939C153.902 252.526 153.623 252.157 153.279 251.855C152.935 251.554 152.532 251.326 152.097 251.185C151.661 251.045 151.202 250.996 150.746 251.04C150.291 251.084 149.849 251.221 149.449 251.443C143.267 254.843 132.425 265.179 155.285 290.734L170.739 277.592Z" fill="#945959"/>
<path d="M234.04 262.731L230.331 262.249C226.593 261.753 222.79 262.261 219.314 263.721C215.837 265.181 212.812 267.541 210.549 270.557L188.48 299.932L171.172 269.395C171.172 269.395 169.094 290.165 146.976 285.813L170.726 325.784C172.23 328.315 174.322 330.445 176.825 331.993C179.328 333.541 182.168 334.462 185.103 334.677C188.038 334.891 190.982 334.394 193.684 333.227C196.386 332.06 198.766 330.257 200.621 327.972L220.947 302.986L234.04 262.731Z" fill="#0BFF7B"/>
<path d="M281.144 331.286C276.199 343.822 275.655 346.27 278.672 352.539C280.772 357.168 282.428 361.987 283.617 366.93C283.617 366.93 260.695 392.621 228.068 383.002L213.405 374.545C210.356 372.787 207.609 370.549 205.27 367.919L209.733 334.636C209.958 332.884 209.78 331.104 209.214 329.431L204.528 315.696C202.242 308.987 201.901 301.768 203.547 294.873C205.192 287.979 208.756 281.692 213.825 276.738L229.576 261.346L270.944 266.637L277.126 268.405C281.173 269.576 284.662 272.167 286.951 275.704C289.241 279.24 290.177 283.484 289.588 287.655C287.561 302.244 284.247 323.41 281.144 331.286Z" fill="#0BFF7B"/>
<path opacity="0.5" d="M281.144 331.286C276.199 343.822 275.655 346.27 278.672 352.539C280.772 357.168 282.428 361.987 283.617 366.93C283.617 366.93 260.695 392.621 228.068 383.002L213.405 374.545C210.356 372.787 207.609 370.549 205.27 367.919L209.733 334.636C209.958 332.884 209.78 331.104 209.214 329.431L204.528 315.696C202.242 308.987 201.901 301.768 203.547 294.873C205.192 287.979 208.756 281.692 213.825 276.738L229.576 261.346L270.944 266.637L277.126 268.405C281.173 269.576 284.662 272.167 286.951 275.704C289.241 279.24 290.177 283.484 289.588 287.655C287.561 302.244 284.247 323.41 281.144 331.286Z" fill="black"/>
<path d="M256.195 293.837L247.911 286.778C247.034 286.027 245.976 285.518 244.842 285.302C243.708 285.085 242.537 285.167 241.445 285.541L231.431 288.991L230.083 283.378C229.873 282.504 229.488 281.683 228.951 280.962C228.415 280.242 227.738 279.638 226.962 279.186C226.185 278.734 225.325 278.444 224.434 278.334C223.543 278.224 222.638 278.295 221.775 278.544L217.435 279.78L224.779 265.71C227.177 261.128 230.871 257.353 235.399 254.855L238.28 253.273L262.08 254.509C262.08 254.509 270.944 258.218 270.944 266.563L256.195 293.763" fill="#0BFF7B"/>
<path d="M262.179 265.055L238.317 283.65V224.441H262.179V265.055Z" fill="#945959"/>
<path d="M238.688 260.171L231.431 289.04L262.08 265.055L238.688 260.171Z" fill="#945959"/>
<path d="M238.317 255.881C243.623 253.911 248.473 250.883 252.573 246.981C256.673 243.079 259.937 238.384 262.166 233.182V224.441H238.305L238.317 255.881Z" fill="#703838"/>
<path d="M243.46 180.563C234.41 180.563 215.173 185.608 212.948 209.296C210.722 232.984 212.873 251.332 225.088 253.112C237.303 254.892 265.69 246.028 269.498 215.367C273.306 184.705 252.276 180.563 243.46 180.563Z" fill="#945959"/>
<path d="M229.218 219.323V233.281L221.033 230.771L229.218 219.323Z" fill="#703838"/>
<path d="M238.317 224.577C239.888 224.577 241.161 223.304 241.161 221.734C241.161 220.163 239.888 218.89 238.317 218.89C236.747 218.89 235.474 220.163 235.474 221.734C235.474 223.304 236.747 224.577 238.317 224.577Z" fill="#263238"/>
<path d="M222.443 219.755C222.44 220.317 222.271 220.866 221.957 221.332C221.643 221.798 221.199 222.16 220.679 222.374C220.159 222.587 219.588 222.642 219.037 222.53C218.486 222.419 217.98 222.148 217.584 221.749C217.188 221.351 216.918 220.844 216.809 220.293C216.701 219.742 216.758 219.171 216.973 218.652C217.189 218.133 217.553 217.69 218.021 217.378C218.488 217.066 219.037 216.899 219.599 216.899C219.974 216.899 220.344 216.973 220.69 217.117C221.036 217.261 221.35 217.471 221.614 217.737C221.878 218.002 222.088 218.317 222.23 218.663C222.372 219.01 222.444 219.381 222.443 219.755Z" fill="#263238"/>
<path d="M216.125 213.821L221.688 210.52C221.688 210.52 219.562 208.307 217.435 209.63C215.309 210.953 216.125 213.821 216.125 213.821Z" fill="#263238"/>
<path d="M225.373 238.943C228.082 239.141 230.779 238.418 233.026 236.891C233.026 236.891 233.557 240.934 230.17 241.7C226.782 242.467 225.373 238.943 225.373 238.943Z" fill="#703838"/>
<path d="M220.514 188.624C220.514 188.624 223.914 221.326 268.385 222.352C268.385 222.352 281.824 189.848 255.268 179.29C228.711 168.732 220.514 188.624 220.514 188.624Z" fill="#263238"/>
<path d="M281.478 217.456L276.013 214.291C273.936 213.054 271.068 213.227 267.891 215.057C261.585 218.692 256.467 227.557 256.467 234.839C256.467 238.486 257.703 241.02 259.83 242.257L265.195 245.348L265.504 245.521L265.69 245.632C267.718 246.621 270.425 246.386 273.405 244.668C279.71 240.959 284.828 232.168 284.828 224.886C284.791 221.202 283.518 218.655 281.478 217.456Z" fill="#0BFF7B"/>
<path d="M281.435 236.078C285.894 228.355 285.894 220.007 281.435 217.433C276.976 214.859 269.747 219.033 265.289 226.756C260.83 234.478 260.83 242.826 265.288 245.4C269.747 247.974 276.976 243.8 281.435 236.078Z" fill="#0BFF7B"/>
<path opacity="0.5" d="M281.435 236.078C285.894 228.355 285.894 220.007 281.435 217.433C276.976 214.859 269.747 219.033 265.289 226.756C260.83 234.478 260.83 242.826 265.288 245.4C269.747 247.974 276.976 243.8 281.435 236.078Z" fill="black"/>
<path d="M283.666 224.317L279.957 222.154C278.548 221.313 276.582 221.424 274.406 222.673C272.133 224.159 270.241 226.158 268.884 228.51C267.527 230.862 266.742 233.5 266.592 236.211C266.592 238.684 267.47 240.452 268.892 241.268L272.601 243.382C272.667 243.43 272.737 243.471 272.811 243.505L272.935 243.58C273.804 243.909 274.741 244.021 275.664 243.905C276.586 243.788 277.466 243.447 278.226 242.912C280.498 241.428 282.388 239.43 283.746 237.081C285.103 234.731 285.889 232.096 286.04 229.386C285.941 226.877 285.076 225.133 283.666 224.317Z" fill="#0BFF7B"/>
<path d="M285.941 229.362C285.79 232.071 285.004 234.707 283.647 237.056C282.29 239.406 280.399 241.403 278.127 242.887C273.8 245.36 270.301 243.357 270.301 238.375C270.448 235.663 271.233 233.025 272.593 230.674C273.953 228.324 275.85 226.328 278.127 224.849C282.442 222.352 285.941 224.367 285.941 229.362Z" fill="#0BFF7B"/>
<path opacity="0.3" d="M285.941 229.362C285.79 232.071 285.004 234.707 283.647 237.056C282.29 239.406 280.399 241.403 278.127 242.887C273.8 245.36 270.301 243.357 270.301 238.375C270.448 235.663 271.233 233.025 272.593 230.674C273.953 228.324 275.85 226.328 278.127 224.849C282.442 222.352 285.941 224.367 285.941 229.362Z" fill="black"/>
<path d="M264.503 174.184C260.959 171.446 256.618 169.94 252.14 169.894H251.039C246.504 169.845 241.977 170.259 237.526 171.13C238.342 171.13 239.158 171.13 239.999 171.13H237.526V173.43H239.826C247.751 173.699 255.261 177.04 260.768 182.746C266.275 188.451 269.348 196.075 269.337 204.004V213.734C269.337 214.119 269.417 214.499 269.573 214.851C269.729 215.203 269.958 215.517 270.243 215.775C270.529 216.033 270.866 216.227 271.231 216.346C271.597 216.466 271.984 216.507 272.366 216.467H272.65L275.123 215.7C274.958 215.752 274.788 215.785 274.616 215.799C275.353 215.699 276.028 215.331 276.511 214.766C276.995 214.2 277.253 213.477 277.237 212.733V203.708C277.213 187.376 270.153 178.598 264.503 174.184Z" fill="#0BFF7B"/>
<path d="M248.937 252.432C247.918 252.432 246.91 252.213 245.983 251.789L238.255 248.216C238.135 248.173 238.024 248.105 237.931 248.017C237.837 247.929 237.763 247.822 237.713 247.704C237.664 247.586 237.639 247.458 237.64 247.33C237.642 247.202 237.671 247.075 237.724 246.958C237.777 246.841 237.854 246.737 237.95 246.651C238.045 246.566 238.158 246.501 238.28 246.461C238.402 246.421 238.531 246.407 238.659 246.42C238.786 246.433 238.91 246.472 239.022 246.535L246.749 250.108C247.735 250.566 248.839 250.705 249.907 250.506C250.975 250.306 251.955 249.778 252.708 248.995L260.126 241.33C260.3 241.156 260.536 241.058 260.782 241.058C261.027 241.058 261.263 241.156 261.437 241.33C261.608 241.505 261.703 241.74 261.703 241.985C261.703 242.23 261.608 242.465 261.437 242.64L254.019 250.305C253.358 250.983 252.568 251.521 251.695 251.887C250.822 252.252 249.884 252.437 248.937 252.432Z" fill="#0BFF7B"/>
<path opacity="0.5" d="M248.937 252.432C247.918 252.432 246.91 252.213 245.983 251.789L238.255 248.216C238.135 248.173 238.024 248.105 237.931 248.017C237.837 247.929 237.763 247.822 237.713 247.704C237.664 247.586 237.639 247.458 237.64 247.33C237.642 247.202 237.671 247.075 237.724 246.958C237.777 246.841 237.854 246.737 237.95 246.651C238.045 246.566 238.158 246.501 238.28 246.461C238.402 246.421 238.531 246.407 238.659 246.42C238.786 246.433 238.91 246.472 239.022 246.535L246.749 250.108C247.735 250.566 248.839 250.705 249.907 250.506C250.975 250.306 251.955 249.778 252.708 248.995L260.126 241.33C260.3 241.156 260.536 241.058 260.782 241.058C261.027 241.058 261.263 241.156 261.437 241.33C261.608 241.505 261.703 241.74 261.703 241.985C261.703 242.23 261.608 242.465 261.437 242.64L254.019 250.305C253.358 250.983 252.568 251.521 251.695 251.887C250.822 252.252 249.884 252.437 248.937 252.432Z" fill="black"/>
<path d="M240.283 245.62C240.283 246.334 240.071 247.032 239.675 247.625C239.278 248.219 238.714 248.682 238.055 248.955C237.395 249.228 236.669 249.3 235.969 249.16C235.268 249.021 234.625 248.677 234.12 248.172C233.615 247.668 233.272 247.024 233.132 246.324C232.993 245.624 233.064 244.898 233.338 244.238C233.611 243.578 234.074 243.015 234.667 242.618C235.261 242.221 235.959 242.01 236.673 242.01C237.63 242.01 238.549 242.39 239.226 243.067C239.903 243.744 240.283 244.662 240.283 245.62Z" fill="#0BFF7B"/>
<path opacity="0.5" d="M240.283 245.62C240.283 246.334 240.071 247.032 239.675 247.625C239.278 248.219 238.714 248.682 238.055 248.955C237.395 249.228 236.669 249.3 235.969 249.16C235.268 249.021 234.625 248.677 234.12 248.172C233.615 247.668 233.272 247.024 233.132 246.324C232.993 245.624 233.064 244.898 233.338 244.238C233.611 243.578 234.074 243.015 234.667 242.618C235.261 242.221 235.959 242.01 236.673 242.01C237.63 242.01 238.549 242.39 239.226 243.067C239.903 243.744 240.283 244.662 240.283 245.62Z" fill="black"/>
<path d="M277.213 203.708V212.733C277.228 213.477 276.97 214.2 276.487 214.766C276.003 215.331 275.329 215.699 274.592 215.799C274.184 215.843 273.772 215.8 273.383 215.674C272.993 215.547 272.634 215.34 272.33 215.066C272.026 214.792 271.782 214.457 271.616 214.083C271.45 213.709 271.364 213.303 271.365 212.894V203.708C271.372 199.324 270.492 194.983 268.778 190.948C267.064 186.913 264.551 183.266 261.391 180.228C258.231 177.189 254.488 174.821 250.389 173.266C246.29 171.711 241.919 171.001 237.538 171.18C241.989 170.309 246.517 169.894 251.052 169.943H252.127C256.605 169.99 260.946 171.496 264.491 174.233C270.153 178.598 277.213 187.376 277.213 203.708Z" fill="#0BFF7B"/>
<path opacity="0.5" d="M277.213 203.708V212.733C277.228 213.477 276.97 214.2 276.487 214.766C276.003 215.331 275.329 215.699 274.592 215.799C274.184 215.843 273.772 215.8 273.383 215.674C272.993 215.547 272.634 215.34 272.33 215.066C272.026 214.792 271.782 214.457 271.616 214.083C271.45 213.709 271.364 213.303 271.365 212.894V203.708C271.372 199.324 270.492 194.983 268.778 190.948C267.064 186.913 264.551 183.266 261.391 180.228C258.231 177.189 254.488 174.821 250.389 173.266C246.29 171.711 241.919 171.001 237.538 171.18C241.989 170.309 246.517 169.894 251.052 169.943H252.127C256.605 169.99 260.946 171.496 264.491 174.233C270.153 178.598 277.213 187.376 277.213 203.708Z" fill="black"/>
<path d="M263.316 373.791C263.316 373.791 257.332 390.272 278.721 397.69C278.721 397.69 285.706 387.428 278.721 379.033C271.736 370.639 263.316 373.791 263.316 373.791Z" fill="#0BFF7B"/>
<path opacity="0.7" d="M263.316 373.791C263.316 373.791 257.332 390.272 278.721 397.69C278.721 397.69 285.706 387.428 278.721 379.033C271.736 370.639 263.316 373.791 263.316 373.791Z" fill="black"/>
<path d="M270.821 374.545C270.821 374.545 249.927 382.198 250.038 385.166C250.149 388.133 258.915 386.105 258.915 386.105L255.713 388.207C252.341 390.407 249.729 393.593 248.233 397.331C247.907 398.156 247.895 399.071 248.201 399.903C248.506 400.736 249.107 401.426 249.889 401.844L257.827 406.047C258.275 406.285 258.766 406.431 259.272 406.475C259.777 406.52 260.286 406.463 260.769 406.307C261.252 406.151 261.699 405.901 262.084 405.569C262.468 405.238 262.782 404.833 263.007 404.378C263.45 403.504 264.061 402.726 264.806 402.09C265.551 401.453 266.414 400.97 267.347 400.669C271.661 399.235 279.71 395.106 282.937 383.806L270.821 374.545Z" fill="#945959"/>
<path d="M277.089 268.381C277.089 268.381 265.962 274.563 271.872 293.33C277.781 312.098 288.871 341.214 288.871 341.214L263.316 373.791C266.046 374.121 268.676 375.022 271.035 376.437C273.393 377.851 275.427 379.747 277.002 382.001C278.512 384.292 279.455 386.91 279.754 389.638C280.053 392.366 279.699 395.126 278.721 397.69L310.446 356.891C313.379 353.12 315.327 348.678 316.113 343.966C316.899 339.253 316.498 334.42 314.946 329.901L301.346 290.19C299.684 285.339 296.921 280.939 293.275 277.333C289.629 273.728 285.198 271.015 280.328 269.407L277.089 268.381Z" fill="#0BFF7B"/>
<path d="M89.2639 157.518L40.0945 129.082C39.5287 128.69 38.874 128.445 38.1897 128.369C37.5054 128.294 36.8131 128.39 36.1753 128.649C36.0409 128.712 35.9126 128.786 35.7921 128.872L25.0977 135.14H25.1719C23.8243 135.907 22.9712 137.687 22.9712 140.234V194.93C22.9712 199.554 25.7777 204.932 29.2518 206.935L78.4211 235.371C79.045 235.822 79.7877 236.08 80.5569 236.113C81.3262 236.146 82.0881 235.952 82.7483 235.556C82.7149 235.569 82.6852 235.59 82.6618 235.618L93.282 229.436C94.6667 228.694 95.5445 226.889 95.5445 224.305V169.523C95.5445 164.899 92.7874 159.521 89.2639 157.518Z" fill="#0BFF7B"/>
<path d="M93.7889 162.698C92.7941 160.583 91.2266 158.788 89.2639 157.518L40.0945 129.082C39.5287 128.69 38.874 128.445 38.1897 128.369C37.5054 128.294 36.8131 128.39 36.1753 128.649C36.0409 128.712 35.9126 128.786 35.7921 128.872L25.0977 135.14C25.7519 134.806 26.4854 134.658 27.2181 134.712C27.9508 134.767 28.6543 135.022 29.2518 135.449L78.4212 163.885C80.4506 165.212 82.0591 167.091 83.0574 169.3L93.7889 162.698Z" fill="#0BFF7B"/>
<path d="M84.7018 230.561C84.7018 233.034 83.9105 234.752 82.6618 235.506L93.282 229.325C94.6667 228.583 95.5445 226.778 95.5445 224.194V169.523C95.4922 167.143 94.8914 164.808 93.7889 162.698L83.0574 169.3C84.0878 171.348 84.6495 173.599 84.7018 175.89V230.561Z" fill="#0BFF7B"/>
<path opacity="0.3" d="M93.7889 162.698C92.7941 160.583 91.2266 158.788 89.2639 157.518L40.0945 129.082C39.5287 128.69 38.874 128.445 38.1897 128.369C37.5054 128.294 36.8131 128.39 36.1753 128.649C36.0409 128.712 35.9126 128.786 35.7921 128.872L25.0977 135.14C25.7519 134.806 26.4854 134.658 27.2181 134.712C27.9508 134.767 28.6543 135.022 29.2518 135.449L78.4212 163.885C80.4506 165.212 82.0591 167.091 83.0574 169.3L93.7889 162.698Z" fill="black"/>
<path opacity="0.6" d="M84.7018 230.561C84.7018 233.034 83.9105 234.752 82.6618 235.506L93.282 229.325C94.6667 228.583 95.5445 226.778 95.5445 224.194V169.523C95.4922 167.143 94.8914 164.808 93.7889 162.698L83.0574 169.3C84.0878 171.348 84.6495 173.599 84.7018 175.89V230.561Z" fill="black"/>
<path d="M70.286 191.554C70.286 198.639 67.4795 201.05 63.2759 198.614C62.1164 197.954 61.1024 197.066 60.295 196.003C59.4876 194.941 58.9035 193.726 58.5779 192.432C57.3415 193.953 55.4252 194.052 52.73 192.494C48.3038 189.935 44.8174 183.84 44.8174 177.918C44.8174 171.996 48.2668 169.956 52.73 172.527C54.9947 173.862 56.8241 175.824 57.9968 178.177V175.841L62.6578 178.536V191.344C62.5884 192.018 62.7049 192.699 62.9948 193.311C63.2847 193.923 63.7368 194.445 64.3021 194.818C65.8723 195.733 66.8366 194.188 66.8366 189.601C66.8366 181.577 61.6934 173.071 54.0899 168.682C46.4864 164.293 41.3556 167.347 41.3556 175.606C41.4552 179.988 42.6628 184.274 44.8657 188.063C47.0686 191.853 50.1952 195.023 53.9539 197.279C55.9948 198.536 58.3124 199.274 60.7044 199.43L61.8047 203.695C59.0195 203.471 56.3281 202.585 53.9539 201.111C44.0632 195.387 37.5229 183.864 37.5229 173.43C37.5229 162.995 44.125 159.212 54.0899 164.973C63.721 170.524 70.286 181.639 70.286 191.554ZM58.0709 185.608C58.095 184.04 57.7125 182.493 56.9606 181.117C56.2087 179.741 55.1132 178.583 53.7808 177.757C51.3082 176.31 49.5402 177.324 49.5402 180.687C49.5084 182.257 49.8819 183.809 50.6248 185.193C51.3676 186.577 52.4546 187.746 53.7808 188.587C56.2535 189.984 58.0709 189.082 58.0709 185.608Z" fill="#0BFF7B"/>
<g opacity="0.9">
<path opacity="0.9" d="M70.286 191.554C70.286 198.639 67.4795 201.05 63.2759 198.614C62.1164 197.954 61.1024 197.066 60.295 196.003C59.4876 194.941 58.9035 193.726 58.5779 192.432C57.3415 193.953 55.4252 194.052 52.73 192.494C48.3038 189.935 44.8174 183.84 44.8174 177.918C44.8174 171.996 48.2668 169.956 52.73 172.527C54.9947 173.862 56.8241 175.824 57.9968 178.177V175.841L62.6578 178.536V191.344C62.5884 192.018 62.7049 192.699 62.9948 193.311C63.2847 193.923 63.7368 194.445 64.3021 194.818C65.8723 195.733 66.8366 194.188 66.8366 189.601C66.8366 181.577 61.6934 173.071 54.0899 168.682C46.4864 164.293 41.3556 167.347 41.3556 175.606C41.4552 179.988 42.6628 184.274 44.8657 188.063C47.0686 191.853 50.1952 195.023 53.9539 197.279C55.9948 198.536 58.3124 199.274 60.7044 199.43L61.8047 203.695C59.0195 203.471 56.3281 202.585 53.9539 201.111C44.0632 195.387 37.5229 183.864 37.5229 173.43C37.5229 162.995 44.125 159.212 54.0899 164.973C63.721 170.524 70.286 181.639 70.286 191.554ZM58.0709 185.608C58.095 184.04 57.7125 182.493 56.9606 181.117C56.2087 179.741 55.1132 178.583 53.7808 177.757C51.3082 176.31 49.5402 177.324 49.5402 180.687C49.5084 182.257 49.8819 183.809 50.6248 185.193C51.3676 186.577 52.4546 187.746 53.7808 188.587C56.2535 189.984 58.0709 189.082 58.0709 185.608Z" fill="white"/>
</g>
<path d="M89.2639 254.917L40.0945 226.481C39.5295 226.087 38.874 225.841 38.1889 225.768C37.5037 225.694 36.8112 225.795 36.1753 226.061C36.0409 226.123 35.9126 226.197 35.7921 226.283L25.0977 232.552H25.1719C23.8243 233.318 22.9712 235.098 22.9712 237.633V292.304C22.9712 296.94 25.7777 302.306 29.2518 304.309L78.4211 332.745C79.0437 333.199 79.7867 333.459 80.5567 333.492C81.3267 333.525 82.0892 333.329 82.7483 332.93L82.6618 333.004L93.282 326.761C94.6667 326.031 95.5445 324.288 95.5445 321.63V266.909C95.5445 262.286 92.7874 256.92 89.2639 254.917Z" fill="#0BFF7B"/>
<path d="M93.7889 260.097C92.7975 257.979 91.2292 256.184 89.2639 254.917L40.0945 226.481C39.5295 226.087 38.874 225.841 38.1889 225.768C37.5038 225.694 36.8112 225.795 36.1753 226.061C36.0409 226.123 35.9126 226.197 35.7921 226.283L25.0977 232.552C25.7504 232.214 26.4836 232.063 27.2165 232.115C27.9494 232.168 28.6537 232.421 29.2518 232.848L78.4212 261.284C80.4538 262.613 82.0628 264.496 83.0574 266.712L93.7889 260.097Z" fill="#0BFF7B"/>
<path d="M84.7018 327.948C84.7018 330.421 83.9105 332.139 82.6618 332.955L93.282 326.712C94.6667 325.982 95.5445 324.239 95.5445 321.581V266.91C95.4921 264.534 94.8913 262.203 93.7889 260.097L83.0574 266.699C84.0876 268.742 84.6493 270.989 84.7018 273.277V327.948Z" fill="#0BFF7B"/>
<path opacity="0.3" d="M93.7889 260.097C92.7975 257.979 91.2292 256.184 89.2639 254.917L40.0945 226.481C39.5295 226.087 38.874 225.841 38.1889 225.768C37.5038 225.694 36.8112 225.795 36.1753 226.061C36.0409 226.123 35.9126 226.197 35.7921 226.283L25.0977 232.552C25.7504 232.214 26.4836 232.063 27.2165 232.115C27.9494 232.168 28.6537 232.421 29.2518 232.848L78.4212 261.284C80.4538 262.613 82.0628 264.496 83.0574 266.712L93.7889 260.097Z" fill="black"/>
<path opacity="0.6" d="M84.7018 327.948C84.7018 330.421 83.9105 332.139 82.6618 332.955L93.282 326.712C94.6667 325.982 95.5445 324.239 95.5445 321.581V266.91C95.4921 264.534 94.8913 262.203 93.7889 260.097L83.0574 266.699C84.0876 268.742 84.6493 270.989 84.7018 273.277V327.948Z" fill="black"/>
<path d="M48.3409 279.36L36.4844 260.097V286.197L48.3409 279.36Z" fill="#0BFF7B"/>
<path d="M59.3568 284.911L71.1885 305.397V279.335L59.3568 284.911Z" fill="#0BFF7B"/>
<path d="M38.2771 259.219L50.4551 279.001C50.5066 279.044 50.5523 279.094 50.5911 279.149C50.6018 279.198 50.6018 279.249 50.5911 279.298L54.2135 285.183L57.2797 283.736C57.3274 283.684 57.3814 283.639 57.4404 283.6C57.5613 283.53 57.6965 283.487 57.836 283.477L70.1995 277.678L38.2771 259.219Z" fill="#0BFF7B"/>
<path d="M57.564 285.751L54.2506 287.309C54.123 287.369 53.9834 287.398 53.8426 287.396C53.672 287.398 53.5037 287.355 53.3542 287.273C53.2048 287.191 53.0791 287.071 52.9895 286.926L49.3671 281.041L37.4734 287.915L69.4823 306.386L57.564 285.751Z" fill="#0BFF7B"/>
<g opacity="0.9">
<path opacity="0.9" d="M48.3409 279.359L36.4844 260.097V286.196L48.3409 279.359Z" fill="white"/>
<path opacity="0.9" d="M59.3568 284.911L71.1885 305.397V279.335L59.3568 284.911Z" fill="white"/>
<path opacity="0.9" d="M38.2771 259.219L50.4551 279.001C50.5066 279.044 50.5523 279.094 50.5911 279.149C50.6018 279.198 50.6018 279.249 50.5911 279.298L54.2135 285.183L57.2797 283.736C57.3274 283.684 57.3814 283.639 57.4404 283.6C57.5613 283.53 57.6965 283.487 57.836 283.477L70.1995 277.678L38.2771 259.219Z" fill="white"/>
<path opacity="0.9" d="M57.564 285.751L54.2506 287.309C54.123 287.368 53.9834 287.398 53.8426 287.396C53.672 287.398 53.5037 287.355 53.3542 287.273C53.2048 287.191 53.0791 287.071 52.9895 286.926L49.3671 281.041L37.4734 287.915L69.4823 306.386L57.564 285.751Z" fill="white"/>
</g>
<path d="M89.2639 60.1684L40.0945 31.7326C39.5295 31.3382 38.874 31.0929 38.1889 31.0194C37.5037 30.9459 36.8112 31.0467 36.1753 31.3122C36.0409 31.3743 35.9126 31.4488 35.7921 31.5348L25.0977 37.803H25.1719C23.8243 38.5572 22.9712 40.3499 22.9712 42.8844V97.5554C22.9712 102.179 25.7777 107.557 29.2518 109.56L78.4211 137.996C79.0437 138.45 79.7867 138.71 80.5567 138.743C81.3267 138.776 82.0892 138.581 82.7483 138.182L82.6618 138.243L93.282 132.062C94.6667 131.332 95.5445 129.589 95.5445 126.931V72.1239C95.5445 67.4999 92.7874 62.1219 89.2639 60.1684Z" fill="#0BFF7B"/>
<path d="M93.7889 65.3116C92.7977 63.1904 91.2296 61.3909 89.2639 60.119L40.0945 31.7326C39.5295 31.3382 38.874 31.0929 38.1889 31.0194C37.5038 30.9459 36.8112 31.0467 36.1753 31.3122C36.0409 31.3743 35.9126 31.4488 35.7921 31.5348L25.0977 37.803C25.7504 37.4655 26.4836 37.3146 27.2165 37.367C27.9494 37.4193 28.6537 37.6729 29.2518 38.0997L78.4212 66.5356C80.4538 67.8642 82.0628 69.7478 83.0574 71.9631L93.7889 65.3116Z" fill="#0BFF7B"/>
<path d="M84.7018 133.113C84.7018 135.585 83.9105 137.304 82.6618 138.058L93.282 131.876C94.6667 131.147 95.5445 129.404 95.5445 126.745V72.1238C95.4921 69.7481 94.8913 67.4166 93.7889 65.3115L83.0574 71.9136C84.0876 73.9566 84.6493 76.2035 84.7018 78.4909V133.113Z" fill="#0BFF7B"/>
<path opacity="0.3" d="M93.7889 65.3116C92.7977 63.1904 91.2296 61.3909 89.2639 60.119L40.0945 31.7326C39.5295 31.3382 38.874 31.0929 38.1889 31.0194C37.5038 30.9459 36.8112 31.0467 36.1753 31.3122C36.0409 31.3743 35.9126 31.4488 35.7921 31.5348L25.0977 37.803C25.7504 37.4655 26.4836 37.3146 27.2165 37.367C27.9494 37.4193 28.6537 37.6729 29.2518 38.0997L78.4212 66.5356C80.4538 67.8642 82.0628 69.7478 83.0574 71.9631L93.7889 65.3116Z" fill="black"/>
<path opacity="0.6" d="M84.7018 133.113C84.7018 135.585 83.9105 137.304 82.6618 138.058L93.282 131.876C94.6667 131.147 95.5445 129.404 95.5445 126.745V72.1238C95.4921 69.7481 94.8913 67.4166 93.7889 65.3115L83.0574 71.9136C84.0876 73.9566 84.6493 76.2035 84.7018 78.4909V133.113Z" fill="black"/>
<path d="M68.6169 109.622C66.7253 106.507 64.8213 103.44 62.9297 100.3C62.6297 99.7053 62.2103 99.1788 61.6976 98.7533C61.1849 98.3279 60.5901 98.0127 59.9502 97.8274C59.0353 97.642 58.1204 97.4318 57.1807 97.1598C56.8461 97.0203 56.5646 96.7778 56.3771 96.4675C53.2818 91.1699 50.821 85.5263 49.0456 79.6532C49.0078 79.5277 48.9971 79.3955 49.0142 79.2655C49.0312 79.1355 49.0756 79.0106 49.1445 78.8991C49.7256 78.318 50.3809 77.7863 50.9743 77.2671C51.5677 76.7478 51.8768 75.5486 51.4441 73.9908C50.5292 70.6897 49.6514 67.3887 48.7365 64.1C48.5595 63.1656 48.1395 62.2943 47.5188 61.5737C46.898 60.8532 46.0985 60.3088 45.2006 59.9954C43.2068 59.4411 41.0902 59.5188 39.1425 60.2179C38.3883 60.5023 37.9927 61.1823 37.9803 62.3568C38.3018 64.6193 38.512 66.8571 38.9447 69.1567C41.9943 85.7401 49.33 100.988 60.9516 114.901C61.255 115.363 61.6626 115.746 62.1415 116.021C62.6204 116.296 63.1572 116.455 63.7086 116.484C65.6327 116.438 67.4811 115.726 68.9384 114.469C70.0387 113.48 69.9274 111.724 68.6169 109.622Z" fill="#0BFF7B"/>
<path d="M68.4686 92.7708C68.2099 89.2146 67.2298 85.7484 65.5879 82.5833C64.362 80.1108 62.802 77.8186 60.9516 75.7711C60.4694 75.2271 60.0614 75.054 59.8142 75.462C59.5669 75.87 59.8142 76.4511 60.284 76.9827L60.7661 77.5391C64.1834 81.4836 66.337 86.3637 66.9479 91.5468C66.9418 91.9248 66.9792 92.3023 67.0591 92.6719C67.2144 93.0971 67.4638 93.4817 67.7886 93.7969C68.0482 93.9824 68.3449 93.7969 68.5551 93.7969C68.4809 93.29 68.4933 93.0304 68.4686 92.7708Z" fill="#0BFF7B"/>
<path d="M57.2673 82.6204C58.8199 84.328 59.7633 86.5017 59.9502 88.8021C60.0316 89.1518 60.1606 89.4888 60.3335 89.8035C61.0876 90.4217 61.4585 90.2115 61.4585 89.4326C61.1942 86.4832 59.9744 83.7006 57.9844 81.5077C57.5146 81.0255 57.1313 80.8771 56.9088 81.2851C56.8287 81.5181 56.8201 81.7696 56.884 82.0075C56.9479 82.2455 57.0813 82.4589 57.2673 82.6204Z" fill="#0BFF7B"/>
<g opacity="0.9">
<path opacity="0.9" d="M68.6169 109.622C66.7253 106.507 64.8213 103.44 62.9297 100.3C62.6297 99.7053 62.2103 99.1788 61.6976 98.7533C61.1849 98.3279 60.5901 98.0127 59.9502 97.8274C59.0353 97.642 58.1204 97.4318 57.1807 97.1598C56.8461 97.0203 56.5646 96.7778 56.3771 96.4675C53.2818 91.1699 50.821 85.5263 49.0456 79.6532C49.0078 79.5277 48.9971 79.3955 49.0142 79.2655C49.0312 79.1355 49.0756 79.0106 49.1445 78.8991C49.7256 78.318 50.3809 77.7863 50.9743 77.2671C51.5677 76.7478 51.8768 75.5486 51.4441 73.9908C50.5292 70.6897 49.6514 67.3887 48.7365 64.1C48.5595 63.1656 48.1395 62.2943 47.5188 61.5737C46.898 60.8532 46.0985 60.3088 45.2006 59.9954C43.2068 59.4411 41.0902 59.5188 39.1425 60.2179C38.3883 60.5023 37.9927 61.1823 37.9803 62.3568C38.3018 64.6193 38.512 66.8571 38.9447 69.1567C41.9943 85.7401 49.33 100.988 60.9516 114.901C61.255 115.363 61.6626 115.746 62.1415 116.021C62.6204 116.296 63.1572 116.455 63.7086 116.484C65.6327 116.438 67.4811 115.726 68.9384 114.469C70.0387 113.48 69.9274 111.724 68.6169 109.622Z" fill="white"/>
<path opacity="0.9" d="M68.4686 92.7708C68.2099 89.2146 67.2298 85.7484 65.5879 82.5833C64.362 80.1108 62.802 77.8186 60.9516 75.7711C60.4694 75.2271 60.0614 75.054 59.8142 75.462C59.5669 75.87 59.8142 76.4511 60.284 76.9827L60.7661 77.5391C64.1834 81.4836 66.337 86.3637 66.9479 91.5468C66.9418 91.9248 66.9792 92.3023 67.0591 92.6719C67.2144 93.0971 67.4638 93.4817 67.7886 93.7969C68.0482 93.9824 68.3449 93.7969 68.5551 93.7969C68.4809 93.29 68.4933 93.0304 68.4686 92.7708Z" fill="white"/>
<path opacity="0.9" d="M57.2673 82.6204C58.8199 84.328 59.7633 86.5017 59.9502 88.8021C60.0316 89.1518 60.1606 89.4888 60.3335 89.8035C61.0876 90.4217 61.4585 90.2115 61.4585 89.4326C61.1942 86.4832 59.9744 83.7006 57.9844 81.5077C57.5146 81.0255 57.1313 80.8771 56.9088 81.2851C56.8287 81.5181 56.8201 81.7696 56.884 82.0075C56.9479 82.2455 57.0813 82.4589 57.2673 82.6204Z" fill="white"/>
</g>
<path d="M341.54 27.3805L353.124 33.9702V29.8656C353.124 29.5812 353.124 29.2845 353.124 29.0002C353.124 28.7158 353.124 28.4438 353.124 28.1718V28.0234C353.544 22.5959 357.661 20.5065 362.681 23.4119C364.954 24.8096 366.901 26.677 368.393 28.8889C369.518 21.4708 375.539 18.8498 382.821 23.041C390.907 27.7144 397.459 39.1134 397.459 48.4107V57.1887C397.448 57.8909 397.621 58.5838 397.962 59.1979C398.302 59.812 398.799 60.3257 399.4 60.6876L406.225 64.681C407.698 65.5542 408.919 66.7949 409.768 68.2816C410.618 69.7683 411.067 71.45 411.071 73.1623C411.072 73.8727 410.885 74.5706 410.529 75.1857C410.174 75.8008 409.663 76.3115 409.047 76.6662C408.432 77.0209 407.734 77.2072 407.024 77.2064C406.313 77.2055 405.616 77.0174 405.001 76.6611L341.713 40.0778C340.034 39.1027 338.639 37.7053 337.667 36.0244C336.696 34.3435 336.181 32.4376 336.174 30.4961C336.173 29.8677 336.338 29.2501 336.651 28.7053C336.964 28.1605 337.415 27.7076 337.959 27.3921C338.502 27.0765 339.119 26.9093 339.748 26.9073C340.376 26.9053 340.994 27.0685 341.54 27.3805Z" fill="#DBD7D7"/>
<path d="M429.851 25.6621L438.271 30.4962V27.4795C438.271 27.2693 438.271 27.0592 438.271 26.849C438.271 26.6388 438.271 26.441 438.271 26.2432V26.169C438.58 22.2251 441.572 20.7044 445.219 22.8185C446.871 23.8305 448.287 25.1836 449.373 26.7872C450.202 21.4214 454.578 19.4804 459.87 22.5342C465.755 25.9341 470.515 34.1929 470.515 40.9804V47.3723C470.519 47.8733 470.654 48.3647 470.905 48.7981C471.156 49.2316 471.516 49.5923 471.949 49.845L476.894 52.7504C477.97 53.3832 478.862 54.2869 479.48 55.3715C480.098 56.4561 480.422 57.6837 480.418 58.9321C480.417 59.4434 480.283 59.9457 480.029 60.3894C479.775 60.8331 479.41 61.203 478.969 61.4626C478.529 61.7222 478.028 61.8625 477.517 61.8697C477.006 61.8769 476.501 61.7507 476.054 61.5037L429.975 34.8976C428.754 34.1912 427.74 33.1764 427.035 31.9547C426.33 30.7331 425.958 29.3476 425.957 27.937C425.956 27.4804 426.075 27.0317 426.302 26.6355C426.529 26.2393 426.856 25.9096 427.25 25.6793C427.644 25.4491 428.092 25.3263 428.548 25.3233C429.005 25.3202 429.454 25.4371 429.851 25.6621Z" fill="#DBD7D7"/>
</svg>
