<svg width="62" height="62" viewBox="0 0 62 62" fill="none" xmlns="http://www.w3.org/2000/svg">
<path d="M31 23.7385C29.5638 23.7385 28.1599 24.1644 26.9657 24.9623C25.7716 25.7602 24.8409 26.8943 24.2913 28.2211C23.7417 29.548 23.5979 31.008 23.8781 32.4166C24.1582 33.8252 24.8498 35.119 25.8654 36.1346C26.8809 37.1501 28.1748 37.8417 29.5833 38.1219C30.9919 38.4021 32.4519 38.2583 33.7788 37.7087C35.1057 37.1591 36.2397 36.2283 37.0376 35.0342C37.8355 33.8401 38.2614 32.4361 38.2614 31C38.259 29.0748 37.4932 27.2292 36.132 25.868C34.7707 24.5067 32.9251 23.7409 31 23.7385V23.7385Z" fill="#5B5B5B"/>
<path d="M39.5427 12.5027H22.4572C19.8181 12.5057 17.2879 13.5555 15.4217 15.4217C13.5555 17.2879 12.5057 19.8181 12.5027 22.4572V39.5427C12.5057 42.1819 13.5555 44.7121 15.4217 46.5783C17.2879 48.4444 19.8181 49.4942 22.4572 49.4972H39.5427C42.1818 49.4942 44.7121 48.4444 46.5782 46.5783C48.4444 44.7121 49.4942 42.1819 49.4972 39.5427V22.4572C49.4942 19.8181 48.4444 17.2879 46.5782 15.4217C44.7121 13.5555 42.1818 12.5057 39.5427 12.5027V12.5027ZM31 42.0976C28.8051 42.0976 26.6595 41.4467 24.8345 40.2273C23.0095 39.0079 21.5871 37.2747 20.7471 35.2468C19.9072 33.219 19.6874 30.9877 20.1156 28.8349C20.5438 26.6822 21.6007 24.7048 23.1528 23.1528C24.7048 21.6008 26.6822 20.5438 28.8349 20.1156C30.9876 19.6874 33.219 19.9072 35.2468 20.7471C37.2746 21.5871 39.0078 23.0095 40.2273 24.8345C41.4467 26.6595 42.0976 28.8051 42.0976 31C42.0942 33.9422 40.9239 36.7629 38.8434 38.8434C36.7629 40.9239 33.9422 42.0942 31 42.0976V42.0976ZM43.1945 21.5843C42.6527 21.5843 42.123 21.4237 41.6724 21.1227C41.2218 20.8217 40.8705 20.394 40.663 19.8934C40.4555 19.3929 40.401 18.8421 40.5064 18.3106C40.6118 17.7791 40.8725 17.2908 41.2553 16.9074C41.6382 16.5239 42.1262 16.2626 42.6575 16.1565C43.1889 16.0503 43.7398 16.104 44.2406 16.3108C44.7414 16.5177 45.1697 16.8683 45.4713 17.3185C45.7729 17.7686 45.9342 18.2981 45.935 18.84C45.9357 19.2003 45.8653 19.5572 45.7279 19.8903C45.5904 20.2234 45.3887 20.5261 45.1341 20.7811C44.8796 21.0361 44.5773 21.2384 44.2444 21.3765C43.9116 21.5145 43.5548 21.5856 43.1945 21.5856V21.5843Z" fill="#5B5B5B"/>
<path d="M61.0608 14.9666C61.0572 13.8809 60.9578 12.7977 60.7638 11.7295C60.5155 10.4252 60.1661 9.15414 59.5414 7.97526C58.8908 6.73321 58.0441 5.60425 57.0339 4.6319C55.5079 3.13812 53.623 2.06251 51.5606 1.5087C49.6624 0.996705 47.7206 0.889185 45.7737 0.891745C45.7673 0.883165 45.7633 0.872985 45.7622 0.862305H16.2275C16.2275 0.872545 16.2275 0.882785 16.2275 0.891745C15.1203 0.912225 14.0105 0.903265 12.9097 1.04022C11.7026 1.16785 10.5142 1.43414 9.36799 1.83382C7.58538 2.49137 5.97647 3.54733 4.66399 4.92118C3.1595 6.45012 2.07609 8.34223 1.51903 10.4137C1.01471 12.2978 0.904632 14.2191 0.902072 16.1545L0.881592 45.8082C0.917432 47.1458 0.928952 48.4962 1.15423 49.8223C1.39359 51.2303 1.73535 52.6012 2.38815 53.8786C3.25639 55.5903 4.49358 57.0881 6.01055 58.2639C7.0934 59.127 8.32012 59.7921 9.63423 60.2287C11.5696 60.8533 13.5664 61.0927 15.5926 61.1042C16.8573 61.1119 18.1193 61.1439 19.384 61.1388C28.5667 61.1004 37.7507 61.2053 46.9334 61.0825C48.1465 61.0558 49.3553 60.9274 50.5469 60.6985C52.8004 60.3015 54.8974 59.2807 56.6 57.7519C58.6198 55.9497 59.983 53.7455 60.5987 51.0844C61.0019 49.3449 61.1017 47.5797 61.1197 45.8095V45.4562C61.1184 45.318 61.0659 15.3634 61.0608 14.9666ZM53.3321 39.5426C53.3277 43.1986 51.8736 46.7035 49.2885 49.2888C46.7035 51.8741 43.1987 53.3286 39.5427 53.3333H22.4573C18.8011 53.3289 15.2959 51.8746 12.7106 49.2893C10.1253 46.704 8.67095 43.1988 8.66655 39.5426V22.4572C8.67095 18.801 10.1253 15.2958 12.7106 12.7105C15.2959 10.1252 18.8011 8.67087 22.4573 8.66646H39.5427C43.1989 8.67087 46.704 10.1252 49.2893 12.7105C51.8747 15.2958 53.329 18.801 53.3334 22.4572L53.3321 39.5426Z" fill="#5B5B5B"/>
</svg>
