<svg width="158" height="23" viewBox="0 0 158 23" fill="none" xmlns="http://www.w3.org/2000/svg">
<path d="M12.91 22C12.39 21.2 11.79 20.36 11.11 19.48C10.43 18.6 9.71 17.75 8.95 16.93C8.21 16.11 7.44 15.33 6.64 14.59C5.84 13.85 5.05 13.21 4.27 12.67V22H0.49V1.21H4.27V9.79C4.93 9.13 5.62 8.43 6.34 7.69C7.06 6.93 7.77 6.17 8.47 5.41C9.19 4.63 9.87 3.88 10.51 3.16C11.15 2.44 11.73 1.79 12.25 1.21H16.78C16.12 1.97 15.42 2.76 14.68 3.58C13.94 4.4 13.18 5.23 12.4 6.07C11.62 6.89 10.83 7.71 10.03 8.53C9.25 9.35 8.48 10.13 7.72 10.87C8.56 11.51 9.41 12.26 10.27 13.12C11.15 13.96 12.01 14.87 12.85 15.85C13.69 16.81 14.49 17.82 15.25 18.88C16.03 19.92 16.74 20.96 17.38 22H12.91ZM28.791 9.58C28.491 9.48 28.071 9.38 27.531 9.28C27.011 9.16 26.401 9.1 25.701 9.1C25.301 9.1 24.871 9.14 24.411 9.22C23.971 9.3 23.661 9.37 23.481 9.43V22H19.851V7.06C20.551 6.8 21.421 6.56 22.461 6.34C23.521 6.1 24.691 5.98 25.971 5.98C26.211 5.98 26.491 6 26.811 6.04C27.131 6.06 27.451 6.1 27.771 6.16C28.091 6.2 28.401 6.26 28.701 6.34C29.001 6.4 29.241 6.46 29.421 6.52L28.791 9.58ZM37.4706 19.45C38.5906 19.45 39.4406 19.39 40.0206 19.27V15.25C39.8206 15.19 39.5306 15.13 39.1506 15.07C38.7706 15.01 38.3506 14.98 37.8906 14.98C37.4906 14.98 37.0806 15.01 36.6606 15.07C36.2606 15.13 35.8906 15.24 35.5506 15.4C35.2306 15.56 34.9706 15.79 34.7706 16.09C34.5706 16.37 34.4706 16.73 34.4706 17.17C34.4706 18.03 34.7406 18.63 35.2806 18.97C35.8206 19.29 36.5506 19.45 37.4706 19.45ZM37.1706 5.92C38.3706 5.92 39.3806 6.07 40.2006 6.37C41.0206 6.67 41.6706 7.09 42.1506 7.63C42.6506 8.17 43.0006 8.83 43.2006 9.61C43.4206 10.37 43.5306 11.21 43.5306 12.13V21.64C42.9706 21.76 42.1206 21.9 40.9806 22.06C39.8606 22.24 38.5906 22.33 37.1706 22.33C36.2306 22.33 35.3706 22.24 34.5906 22.06C33.8106 21.88 33.1406 21.59 32.5806 21.19C32.0406 20.79 31.6106 20.27 31.2906 19.63C30.9906 18.99 30.8406 18.2 30.8406 17.26C30.8406 16.36 31.0106 15.6 31.3506 14.98C31.7106 14.36 32.1906 13.86 32.7906 13.48C33.3906 13.08 34.0806 12.8 34.8606 12.64C35.6606 12.46 36.4906 12.37 37.3506 12.37C37.7506 12.37 38.1706 12.4 38.6106 12.46C39.0506 12.5 39.5206 12.58 40.0206 12.7V12.1C40.0206 11.68 39.9706 11.28 39.8706 10.9C39.7706 10.52 39.5906 10.19 39.3306 9.91C39.0906 9.61 38.7606 9.38 38.3406 9.22C37.9406 9.06 37.4306 8.98 36.8106 8.98C35.9706 8.98 35.2006 9.04 34.5006 9.16C33.8006 9.28 33.2306 9.42 32.7906 9.58L32.3406 6.64C32.8006 6.48 33.4706 6.32 34.3506 6.16C35.2306 6 36.1706 5.92 37.1706 5.92ZM47.976 6.82C48.676 6.62 49.586 6.43 50.706 6.25C51.826 6.07 53.066 5.98 54.426 5.98C55.706 5.98 56.776 6.16 57.636 6.52C58.496 6.86 59.176 7.35 59.676 7.99C60.196 8.61 60.556 9.37 60.756 10.27C60.976 11.15 61.086 12.12 61.086 13.18V22H57.456V13.75C57.456 12.91 57.396 12.2 57.276 11.62C57.176 11.02 56.996 10.54 56.736 10.18C56.496 9.8 56.156 9.53 55.716 9.37C55.296 9.19 54.776 9.1 54.156 9.1C53.696 9.1 53.216 9.13 52.716 9.19C52.216 9.25 51.846 9.3 51.606 9.34V22H47.976V6.82ZM79.7148 14.14C79.7148 15.38 79.5348 16.51 79.1748 17.53C78.8148 18.55 78.3048 19.42 77.6448 20.14C76.9848 20.86 76.1848 21.42 75.2448 21.82C74.3248 22.22 73.3048 22.42 72.1848 22.42C71.0648 22.42 70.0448 22.22 69.1248 21.82C68.2048 21.42 67.4148 20.86 66.7548 20.14C66.0948 19.42 65.5748 18.55 65.1948 17.53C64.8348 16.51 64.6548 15.38 64.6548 14.14C64.6548 12.9 64.8348 11.78 65.1948 10.78C65.5748 9.76 66.0948 8.89 66.7548 8.17C67.4348 7.45 68.2348 6.9 69.1548 6.52C70.0748 6.12 71.0848 5.92 72.1848 5.92C73.2848 5.92 74.2948 6.12 75.2148 6.52C76.1548 6.9 76.9548 7.45 77.6148 8.17C78.2748 8.89 78.7848 9.76 79.1448 10.78C79.5248 11.78 79.7148 12.9 79.7148 14.14ZM75.9948 14.14C75.9948 12.58 75.6548 11.35 74.9748 10.45C74.3148 9.53 73.3848 9.07 72.1848 9.07C70.9848 9.07 70.0448 9.53 69.3648 10.45C68.7048 11.35 68.3748 12.58 68.3748 14.14C68.3748 15.72 68.7048 16.97 69.3648 17.89C70.0448 18.81 70.9848 19.27 72.1848 19.27C73.3848 19.27 74.3148 18.81 74.9748 17.89C75.6548 16.97 75.9948 15.72 75.9948 14.14ZM92.3945 13.75C92.3945 12.11 92.1845 10.93 91.7645 10.21C91.3645 9.47 90.6045 9.1 89.4845 9.1C89.0845 9.1 88.6445 9.13 88.1645 9.19C87.6845 9.25 87.3245 9.3 87.0845 9.34V22H83.4545V6.82C84.1545 6.62 85.0645 6.43 86.1845 6.25C87.3245 6.07 88.5245 5.98 89.7845 5.98C90.8645 5.98 91.7445 6.12 92.4245 6.4C93.1245 6.68 93.7045 7.05 94.1645 7.51C94.3845 7.35 94.6645 7.18 95.0045 7C95.3445 6.82 95.7245 6.66 96.1445 6.52C96.5645 6.36 97.0045 6.23 97.4645 6.13C97.9445 6.03 98.4245 5.98 98.9045 5.98C100.125 5.98 101.125 6.16 101.905 6.52C102.705 6.86 103.325 7.35 103.765 7.99C104.225 8.61 104.535 9.37 104.695 10.27C104.875 11.15 104.965 12.12 104.965 13.18V22H101.335V13.75C101.335 12.11 101.135 10.93 100.735 10.21C100.335 9.47 99.5645 9.1 98.4245 9.1C97.8445 9.1 97.2945 9.2 96.7745 9.4C96.2545 9.58 95.8645 9.76 95.6045 9.94C95.7645 10.44 95.8745 10.97 95.9345 11.53C95.9945 12.09 96.0245 12.69 96.0245 13.33V22H92.3945V13.75Z" fill="#5B5B5B"/>
<path d="M125.834 22.45C124.274 22.45 122.874 22.21 121.634 21.73C120.394 21.25 119.344 20.55 118.484 19.63C117.624 18.69 116.964 17.55 116.504 16.21C116.044 14.87 115.814 13.33 115.814 11.59C115.814 9.85 116.074 8.31 116.594 6.97C117.134 5.63 117.864 4.5 118.784 3.58C119.704 2.64 120.784 1.93 122.024 1.45C123.264 0.969998 124.594 0.729998 126.014 0.729998C126.874 0.729998 127.654 0.799999 128.354 0.939999C129.054 1.06 129.664 1.2 130.184 1.36C130.704 1.52 131.134 1.69 131.474 1.87C131.814 2.05 132.054 2.18 132.194 2.26L131.084 5.35C130.604 5.05 129.914 4.77 129.014 4.51C128.134 4.23 127.174 4.09 126.134 4.09C125.234 4.09 124.394 4.25 123.614 4.57C122.834 4.87 122.154 5.33 121.574 5.95C121.014 6.57 120.574 7.35 120.254 8.29C119.934 9.23 119.774 10.32 119.774 11.56C119.774 12.66 119.894 13.67 120.134 14.59C120.394 15.51 120.784 16.31 121.304 16.99C121.824 17.65 122.484 18.17 123.284 18.55C124.084 18.91 125.044 19.09 126.164 19.09C127.504 19.09 128.594 18.96 129.434 18.7C130.274 18.42 130.924 18.16 131.384 17.92L132.404 21.01C132.164 21.17 131.834 21.33 131.414 21.49C131.014 21.65 130.534 21.81 129.974 21.97C129.414 22.11 128.784 22.22 128.084 22.3C127.384 22.4 126.634 22.45 125.834 22.45ZM149.354 14.14C149.354 15.38 149.174 16.51 148.814 17.53C148.454 18.55 147.944 19.42 147.284 20.14C146.624 20.86 145.824 21.42 144.884 21.82C143.964 22.22 142.944 22.42 141.824 22.42C140.704 22.42 139.684 22.22 138.764 21.82C137.844 21.42 137.054 20.86 136.394 20.14C135.734 19.42 135.214 18.55 134.834 17.53C134.474 16.51 134.294 15.38 134.294 14.14C134.294 12.9 134.474 11.78 134.834 10.78C135.214 9.76 135.734 8.89 136.394 8.17C137.074 7.45 137.874 6.9 138.794 6.52C139.714 6.12 140.724 5.92 141.824 5.92C142.924 5.92 143.934 6.12 144.854 6.52C145.794 6.9 146.594 7.45 147.254 8.17C147.914 8.89 148.424 9.76 148.784 10.78C149.164 11.78 149.354 12.9 149.354 14.14ZM145.634 14.14C145.634 12.58 145.294 11.35 144.614 10.45C143.954 9.53 143.024 9.07 141.824 9.07C140.624 9.07 139.684 9.53 139.004 10.45C138.344 11.35 138.014 12.58 138.014 14.14C138.014 15.72 138.344 16.97 139.004 17.89C139.684 18.81 140.624 19.27 141.824 19.27C143.024 19.27 143.954 18.81 144.614 17.89C145.294 16.97 145.634 15.72 145.634 14.14ZM157.173 20.02C157.173 20.72 156.933 21.29 156.453 21.73C155.993 22.17 155.433 22.39 154.773 22.39C154.093 22.39 153.523 22.17 153.063 21.73C152.603 21.29 152.373 20.72 152.373 20.02C152.373 19.32 152.603 18.75 153.063 18.31C153.523 17.85 154.093 17.62 154.773 17.62C155.433 17.62 155.993 17.85 156.453 18.31C156.933 18.75 157.173 19.32 157.173 20.02Z" fill="#0BFF7B"/>
</svg>
