<svg width="240" height="176" viewBox="0 0 240 176" fill="none" xmlns="http://www.w3.org/2000/svg">
<g clip-path="url(#clip0)">
<path d="M177.359 100.098L129.902 44.1191C127.747 45.9793 125.092 47.2448 122.227 47.7772C113.293 49.4381 104.567 43.6791 102.739 34.914C101.446 28.7181 103.948 22.682 108.681 19.0872L92.499 0L0.310547 74.3717L85.1709 174.47L177.359 100.098Z" fill="#F2F2F2"/>
<path d="M152.89 16.6644C154.897 16.6644 156.524 15.1284 156.524 13.2336C156.524 11.3388 154.897 9.80273 152.89 9.80273C150.883 9.80273 149.255 11.3388 149.255 13.2336C149.255 15.1284 150.883 16.6644 152.89 16.6644Z" stroke="#3F3D56" stroke-width="2" stroke-miterlimit="10"/>
<path d="M200.923 116.412C202.93 116.412 204.557 114.876 204.557 112.981C204.557 111.086 202.93 109.55 200.923 109.55C198.915 109.55 197.288 111.086 197.288 112.981C197.288 114.876 198.915 116.412 200.923 116.412Z" stroke="#3F3D56" stroke-width="2" stroke-miterlimit="10"/>
<path d="M42.3568 25.2673C44.3641 25.2673 45.9914 23.7313 45.9914 21.8365C45.9914 19.9417 44.3641 18.4056 42.3568 18.4056C40.3494 18.4056 38.7222 19.9417 38.7222 21.8365C38.7222 23.7313 40.3494 25.2673 42.3568 25.2673Z" stroke="#3F3D56" stroke-width="2" stroke-miterlimit="10"/>
<path d="M118.392 45.1177C125.781 45.1177 131.771 39.4635 131.771 32.4888C131.771 25.514 125.781 19.8599 118.392 19.8599C111.003 19.8599 105.013 25.514 105.013 32.4888C105.013 39.4635 111.003 45.1177 118.392 45.1177Z" fill="#F2F2F2"/>
<path d="M38.9547 25.432H98.2237C101.084 25.432 103.859 26.3505 106.092 28.0365C108.326 29.7226 109.886 32.0758 110.515 34.7094L140.462 160.095C140.789 161.463 140.794 162.881 140.479 164.251C140.163 165.621 139.534 166.91 138.635 168.026C137.737 169.142 136.59 170.059 135.276 170.713C133.962 171.366 132.513 171.741 131.029 171.81L70.1005 174.643C66.838 174.795 63.6284 173.821 61.0707 171.903C58.513 169.985 56.7819 167.255 56.2004 164.221L39.2124 75.5713L37.9486 75.9121L34.6981 59.1098L35.999 58.8028L31.2571 34.0576C31.054 32.9977 31.1011 31.9086 31.395 30.8678C31.689 29.8271 32.2225 28.8604 32.9577 28.0367C33.6928 27.2129 34.6114 26.5524 35.648 26.1021C36.6846 25.6519 37.8137 25.4231 38.9547 25.432Z" fill="#3F3D56"/>
<path d="M90.421 28.135H97.3395C99.3264 28.135 101.253 28.7764 102.801 29.9528C104.348 31.1291 105.423 32.7696 105.847 34.602L134.592 158.965C134.757 159.681 134.757 160.422 134.591 161.138C134.426 161.854 134.098 162.528 133.631 163.113C133.164 163.699 132.569 164.182 131.886 164.531C131.203 164.879 130.448 165.084 129.674 165.132L68.9417 168.89C67.2284 168.996 65.5337 168.502 64.181 167.504C62.8283 166.506 61.9124 165.072 61.608 163.477L37.0794 34.936C36.9206 34.104 36.9572 33.2493 37.1866 32.4322C37.416 31.615 37.8326 30.8553 38.407 30.2067C38.9814 29.5582 39.6996 29.0365 40.5109 28.6785C41.3223 28.3205 42.2069 28.135 43.1025 28.135H49.6658C50.301 28.135 50.9185 28.3327 51.4227 28.6974C51.9269 29.0622 52.2896 29.5736 52.4548 30.1526C52.6006 30.6638 52.9208 31.1153 53.3659 31.4373C53.811 31.7593 54.3562 31.9338 54.917 31.9338H86.0751C87.1733 31.9338 88.2309 31.5425 89.0367 30.8382C89.8424 30.1339 90.3368 29.1685 90.421 28.135L90.421 28.135Z" fill="#CECBFD"/>
<path d="M109.769 60.2786H46.9261V60.5708H109.769V60.2786Z" fill="#2F2E41"/>
<path d="M112.246 69.7756H48.7836V70.0679H112.246V69.7756Z" fill="#2F2E41"/>
<path d="M50.8946 59.816L52.3225 58.0189L52.0749 57.8436L50.8409 59.3968L46.0854 55.724L45.8895 55.9505L50.8946 59.816Z" fill="#2F2E41"/>
<path d="M59.0984 102.187L60.5263 100.39L60.2788 100.215L59.0445 101.768L54.289 98.0952L54.0931 98.3214L59.0984 102.187Z" fill="#2F2E41"/>
<path d="M119.208 102.212L53.4238 103.526L53.4304 103.819L119.214 102.504L119.208 102.212Z" fill="#2F2E41"/>
<path d="M121.22 110.832L54.1975 112.293L54.2047 112.585L121.227 111.124L121.22 110.832Z" fill="#2F2E41"/>
<path opacity="0.1" d="M80.1277 135.743C80.1277 139.424 81.6769 142.955 84.4346 145.558C87.1922 148.161 90.9324 149.623 94.8323 149.623C98.7323 149.623 102.472 148.161 105.23 145.558C107.988 142.955 109.537 139.424 109.537 135.743C109.537 135.569 109.534 135.397 109.526 135.224C109.382 131.591 107.733 128.155 104.934 125.657C102.135 123.159 98.4089 121.797 94.5573 121.865C90.7056 121.933 87.0361 123.425 84.3377 126.021C81.6393 128.616 80.1276 132.107 80.1277 135.743H80.1277Z" fill="black"/>
<path opacity="0.1" d="M81.5208 141.149C81.5208 141.323 81.5239 141.495 81.5316 141.668C82.958 144.52 85.3707 146.828 88.3726 148.213C91.3744 149.598 94.7864 149.977 98.0468 149.287C101.307 148.598 104.221 146.88 106.31 144.419C108.398 141.957 109.537 138.897 109.537 135.743C109.537 135.569 109.534 135.397 109.526 135.224C108.1 132.372 105.687 130.064 102.685 128.679C99.6833 127.294 96.2713 126.915 93.011 127.605C89.7506 128.295 86.8363 130.012 84.7478 132.474C82.6593 134.936 81.5212 137.995 81.5208 141.149H81.5208Z" fill="black"/>
<path d="M171.001 63.1772C176.007 63.1772 180.065 59.3464 180.065 54.6208C180.065 49.8953 176.007 46.0645 171.001 46.0645C165.994 46.0645 161.936 49.8953 161.936 54.6208C161.936 59.3464 165.994 63.1772 171.001 63.1772Z" fill="#2F2E41"/>
<path d="M180.78 161.843L182.504 168.818H178.316L176.592 160.913L180.78 161.843Z" fill="#9F616A"/>
<path d="M160.581 161.843V168.353L156.394 168.818V161.843H160.581Z" fill="#9F616A"/>
<path d="M182.011 87.9043C182.011 87.9043 181.519 97.9023 181.026 98.5999C180.533 99.2974 176.099 109.295 176.099 109.295L173.883 102.785C173.883 102.785 177.331 97.4373 176.838 94.4146C176.346 91.392 176.656 87.6725 176.656 87.6725L182.011 87.9043Z" fill="#9F616A"/>
<path d="M167.971 63.723C171.78 63.723 174.868 60.8083 174.868 57.2127C174.868 53.6172 171.78 50.7024 167.971 50.7024C164.162 50.7024 161.074 53.6172 161.074 57.2127C161.074 60.8083 164.162 63.723 167.971 63.723Z" fill="#9F616A"/>
<path d="M173.636 57.9103C173.636 57.9103 173.39 67.2107 175.114 68.6058C176.838 70.0009 165.261 68.8383 165.261 68.8383C165.261 68.8383 167.725 62.328 165.754 60.9329C163.783 59.5379 173.636 57.9103 173.636 57.9103Z" fill="#9F616A"/>
<path d="M164.522 68.3733C164.522 68.3733 166 65.8156 167.971 66.0481C169.941 66.2807 176.346 66.7457 176.592 67.2107C176.838 67.6757 177.577 69.3033 178.07 69.7683C178.563 70.2334 182.258 70.9309 182.504 73.721C182.75 76.5112 173.636 93.4845 173.636 93.4845C173.636 93.4845 174.868 97.4372 174.622 98.3673C174.375 99.2973 175.853 102.087 175.607 103.25C175.361 104.413 179.302 111.388 177.331 120.456V135.104C177.331 135.104 183.982 160.448 182.011 162.308C180.041 164.168 173.39 163.006 172.158 162.308C170.927 161.61 165.754 126.501 165.754 126.501L163.291 114.643L163.044 140.684C163.044 140.684 163.537 162.54 161.813 163.238C160.089 163.936 153.438 164.168 152.945 162.773C152.561 161.685 150.678 132.735 149.868 120.045C149.588 115.665 149.953 111.269 150.953 106.984C151.978 102.594 153.467 97.4376 155.162 95.3446C158.364 91.3919 160.335 78.8363 160.335 78.8363L156.147 71.6284C156.147 71.6284 158.611 69.3033 160.089 69.3033C161.566 69.3033 164.522 68.3733 164.522 68.3733Z" fill="#2F2E41"/>
<path d="M181.026 72.0935L182.325 72.9281C182.325 72.9281 183.243 87.9043 182.504 88.8343C181.765 89.7644 176.627 89.3105 176.24 88.4911C175.853 87.6718 181.026 72.0935 181.026 72.0935Z" fill="#2F2E41"/>
<path d="M159.06 85.7102C159.781 90.4317 160.413 94.6348 156.726 98.4372C153.021 102.285 148.842 105.702 144.278 108.615C143.826 109.745 137.188 118.048 136.85 114.736C136.513 111.424 138.806 108.828 142.065 106.027C145.324 103.227 149.884 97.1499 152.457 93.8156C155.03 90.4813 153.97 88.4021 153.881 85.617C153.792 82.832 158.048 85.7439 159.06 85.7102Z" fill="#9F616A"/>
<path d="M156.394 164.587C156.394 164.587 156.147 167.191 155.408 167.888C154.669 168.586 152.699 169.516 152.945 172.074C153.191 174.631 154.793 174.747 154.793 174.747L154.669 174.166L155.408 174.399L155.532 174.747H162.429C162.429 174.747 162.552 172.306 162.305 171.144C162.059 169.981 162.059 164.401 161.32 164.633C160.581 164.866 158.611 165.098 158.118 166.028C157.625 166.958 156.147 166.632 156.394 164.587Z" fill="#2F2E41"/>
<path d="M181.519 164.587C181.519 164.587 181.765 167.191 182.504 167.888C183.243 168.586 185.213 169.516 184.967 172.074C184.721 174.631 183.12 174.747 183.12 174.747L183.243 174.166L182.504 174.399L182.381 174.747H175.484C175.484 174.747 175.361 172.306 175.607 171.144C175.853 169.981 175.853 164.401 176.592 164.633C177.331 164.866 179.302 165.098 179.794 166.028C180.287 166.958 181.765 166.632 181.519 164.587Z" fill="#2F2E41"/>
<path d="M159.596 70.9309L156.147 71.6284C156.147 71.6284 156.147 76.7437 155.162 78.8363C154.177 80.9289 152.452 85.8117 153.191 86.0442C153.93 86.2767 160.827 89.5319 161.32 87.6718C161.813 85.8117 163.044 70.9309 159.596 70.9309Z" fill="#2F2E41"/>
<path d="M180.821 51.9113C185.827 51.9113 189.885 48.0804 189.885 43.3549C189.885 38.6293 185.827 34.7985 180.821 34.7985C175.814 34.7985 171.756 38.6293 171.756 43.3549C171.756 48.0804 175.814 51.9113 180.821 51.9113Z" fill="#2F2E41"/>
<path d="M188.639 50.4402C187.466 51.2406 186.107 51.7642 184.675 51.9671C183.244 52.17 181.781 52.0464 180.411 51.6065C179.04 51.1666 177.801 50.4233 176.798 49.4387C175.794 48.4542 175.054 47.257 174.641 45.9474C174.797 47.121 175.21 48.2513 175.852 49.2669C176.495 50.2824 177.353 51.1612 178.374 51.8478C179.394 52.5343 180.554 53.0137 181.781 53.2557C183.008 53.4977 184.274 53.497 185.5 53.2536C186.727 53.0103 187.886 52.5296 188.906 51.8419C189.925 51.1542 190.783 50.2744 191.424 49.2581C192.065 48.2418 192.476 47.1111 192.631 45.9373C192.786 44.7635 192.681 43.5722 192.324 42.4385C192.527 43.9616 192.292 45.5082 191.644 46.9161C190.995 48.324 189.958 49.5413 188.639 50.4402Z" fill="#2F2E41"/>
<path d="M173.418 62.3216C177.089 62.3216 180.065 59.5123 180.065 56.0469C180.065 52.5815 177.089 49.7722 173.418 49.7722C169.747 49.7722 166.77 52.5815 166.77 56.0469C166.77 59.5123 169.747 62.3216 173.418 62.3216Z" fill="#2F2E41"/>
<path d="M167.828 58.0435C171.082 58.0435 173.72 56.0961 173.72 53.694C173.72 51.2918 171.082 49.3445 167.828 49.3445C164.574 49.3445 161.936 51.2918 161.936 53.694C161.936 56.0961 164.574 58.0435 167.828 58.0435Z" fill="#2F2E41"/>
<path d="M166.256 60.0184C166.874 60.0184 167.375 59.1823 167.375 58.1509C167.375 57.1194 166.874 56.2833 166.256 56.2833C165.639 56.2833 165.138 57.1194 165.138 58.1509C165.138 59.1823 165.639 60.0184 166.256 60.0184Z" fill="#A0616A"/>
</g>
<defs>
<clipPath id="clip0">
<rect width="238.971" height="175.212" fill="white" transform="translate(0.310547)"/>
</clipPath>
</defs>
</svg>
