<svg width="222" height="184" viewBox="0 0 222 184" fill="none" xmlns="http://www.w3.org/2000/svg">
<path d="M32.5268 166.631C75.6816 189.174 145.644 189.179 188.799 166.631C231.953 144.083 231.948 107.536 188.799 84.9931C145.649 62.45 75.6816 62.45 32.5268 84.9931C-10.6279 107.536 -10.6227 144.093 32.5268 166.631Z" fill="#F0F0F0"/>
<path d="M197.961 122.488C197.961 122.488 198.502 119.768 202.89 117.667C207.16 115.607 209.622 116.086 212.552 114.906C215.483 113.727 213.376 108.185 205.342 110.647C197.982 112.903 197.235 119.274 197.235 119.274L197.961 122.488Z" fill="#BA68C8"/>
<path opacity="0.2" d="M197.961 122.488C197.961 122.488 198.502 119.768 202.89 117.667C207.16 115.607 209.622 116.086 212.552 114.906C215.483 113.727 213.376 108.185 205.342 110.647C197.982 112.903 197.235 119.274 197.235 119.274L197.961 122.488Z" fill="black"/>
<path d="M197.189 121.468C197.16 121.473 197.13 121.473 197.101 121.468C197.066 121.456 197.033 121.437 197.006 121.412C196.978 121.387 196.955 121.357 196.939 121.324C196.922 121.29 196.913 121.254 196.911 121.217C196.909 121.18 196.914 121.142 196.926 121.107C197.956 118.161 200.531 115.442 203.889 113.783C208.195 111.677 211.259 112.347 211.388 112.377C211.46 112.394 211.523 112.438 211.563 112.501C211.603 112.564 211.616 112.64 211.599 112.712C211.583 112.785 211.538 112.848 211.476 112.887C211.413 112.927 211.337 112.94 211.264 112.923C211.234 112.923 208.252 112.274 204.136 114.288C200.917 115.864 198.42 118.481 197.441 121.293C197.42 121.343 197.385 121.386 197.34 121.417C197.295 121.448 197.243 121.465 197.189 121.468Z" fill="#FAFAFA"/>
<path d="M197.328 119.099C197.328 119.099 197.843 117.553 199.826 114.53C203.245 109.287 208.823 106.995 211.265 103.998C213.891 100.763 209.349 98.765 205.264 99.8775C202.926 100.526 200.794 102.659 199.676 104.096C197.308 107.22 195.952 110.994 195.788 114.911L197.328 119.099Z" fill="#BA68C8"/>
<path d="M196.56 119.222C196.486 119.22 196.416 119.188 196.365 119.134C196.314 119.08 196.286 119.008 196.287 118.934C196.526 115.532 197.494 112.221 199.125 109.225C202.215 103.679 206.799 101.706 206.995 101.624C207.06 101.608 207.129 101.617 207.188 101.647C207.248 101.677 207.295 101.728 207.321 101.79C207.347 101.851 207.35 101.92 207.33 101.984C207.31 102.048 207.268 102.103 207.211 102.139C203.985 103.754 201.333 106.321 199.614 109.493C198.025 112.409 197.082 115.632 196.849 118.944C196.848 118.981 196.84 119.018 196.825 119.052C196.81 119.086 196.789 119.117 196.762 119.143C196.735 119.169 196.704 119.189 196.669 119.203C196.634 119.216 196.597 119.223 196.56 119.222Z" fill="#FAFAFA"/>
<path d="M46.7984 123.734C43.0953 121.246 42.9305 114.551 43.4662 110.343C44.316 103.648 40.891 102.102 39.145 105.059C38.3004 106.496 37.2394 109.617 37.3579 113.253C37.5484 118.949 40.0154 125.763 45.9898 128.235L46.7984 123.734Z" fill="#BA68C8"/>
<path opacity="0.2" d="M46.7984 123.734C43.0953 121.246 42.9305 114.551 43.4662 110.343C44.316 103.648 40.891 102.102 39.145 105.059C38.3004 106.496 37.2394 109.617 37.3579 113.253C37.5484 118.949 40.0154 125.763 45.9898 128.235L46.7984 123.734Z" fill="black"/>
<path d="M46.0362 127.854C45.9756 127.854 45.9172 127.832 45.8714 127.793C39.6034 122.431 38.6197 112.857 40.3605 106.218C40.369 106.184 40.384 106.152 40.4048 106.124C40.4255 106.096 40.4516 106.072 40.4815 106.055C40.5114 106.037 40.5445 106.025 40.579 106.02C40.6135 106.014 40.6486 106.016 40.6824 106.025C40.7163 106.033 40.7481 106.048 40.7761 106.069C40.8041 106.09 40.8277 106.116 40.8457 106.146C40.8636 106.175 40.8755 106.209 40.8806 106.243C40.8857 106.278 40.884 106.313 40.8756 106.347C39.176 112.831 40.1185 122.184 46.2216 127.401C46.2474 127.423 46.2685 127.45 46.2838 127.48C46.299 127.51 46.3081 127.542 46.3105 127.576C46.3129 127.61 46.3086 127.643 46.2977 127.675C46.2869 127.707 46.2698 127.737 46.2474 127.762C46.2224 127.793 46.1901 127.818 46.1533 127.834C46.1165 127.85 46.0763 127.857 46.0362 127.854Z" fill="#FAFAFA"/>
<path d="M52.3661 136.095C49.1419 138.412 41.7306 140.416 39.3202 136.445C37.0798 132.752 38.5786 131.14 34.0308 131.779C29.4831 132.417 28.4376 128.884 29.514 125.897C30.5904 122.91 26.1096 118.589 29.3801 115.22C32.6505 111.852 34.5304 118.857 36.4257 119.614C38.3211 120.371 39.4799 118.738 41.6636 119.928C43.8474 121.118 44.0586 125.985 46.1856 126.077C49.6673 126.237 55.5284 126.211 55.9713 129.317C56.4142 132.423 52.3661 136.095 52.3661 136.095Z" fill="#BA68C8"/>
<path d="M53.7 134.735H53.6742C36.8068 132.974 30.2814 118.254 29.8796 116.111C29.8735 116.078 29.8742 116.043 29.8815 116.009C29.8888 115.976 29.9027 115.944 29.9223 115.916C29.9419 115.887 29.9669 115.863 29.9958 115.845C30.0247 115.826 30.057 115.814 30.0908 115.807C30.1246 115.801 30.1593 115.802 30.1929 115.809C30.2264 115.817 30.2582 115.831 30.2865 115.85C30.3147 115.87 30.3388 115.895 30.3573 115.924C30.3759 115.953 30.3886 115.985 30.3947 116.019C30.7861 118.125 37.1777 132.5 53.736 134.225C53.7699 134.228 53.8028 134.238 53.8328 134.254C53.8629 134.27 53.8894 134.292 53.911 134.318C53.9325 134.345 53.9487 134.375 53.9584 134.408C53.9682 134.44 53.9713 134.475 53.9678 134.508C53.9589 134.573 53.9267 134.631 53.8773 134.673C53.8278 134.715 53.7647 134.737 53.7 134.735Z" fill="#FAFAFA"/>
<path d="M35.2566 128.143C34.1922 128.143 33.1294 128.056 32.0789 127.885C32.012 127.873 31.9529 127.834 31.9143 127.778C31.8757 127.722 31.8608 127.653 31.8728 127.586C31.8784 127.553 31.8906 127.521 31.9088 127.493C31.9269 127.464 31.9506 127.439 31.9785 127.42C32.0064 127.401 32.0378 127.387 32.071 127.381C32.1042 127.374 32.1384 127.374 32.1716 127.38C34.0951 127.697 36.0576 127.697 37.9812 127.38C38.0487 127.367 38.119 127.38 38.1768 127.418C38.2346 127.455 38.2753 127.514 38.2902 127.581C38.2969 127.614 38.2971 127.649 38.2907 127.682C38.2843 127.715 38.2713 127.747 38.2527 127.775C38.234 127.803 38.21 127.827 38.182 127.846C38.1539 127.865 38.1225 127.878 38.0893 127.885C37.1564 128.068 36.2072 128.154 35.2566 128.143Z" fill="#FAFAFA"/>
<path d="M40.2882 129.683H40.2316C40.1657 129.668 40.1082 129.628 40.0716 129.571C40.035 129.514 40.0223 129.445 40.0361 129.379C40.5559 127.085 40.6795 124.72 40.4015 122.385C40.3906 122.316 40.4072 122.247 40.4477 122.19C40.4883 122.134 40.5494 122.097 40.6176 122.086C40.6859 122.075 40.7557 122.092 40.8116 122.132C40.8676 122.173 40.9052 122.234 40.9161 122.302C41.2144 124.709 41.089 127.149 40.5456 129.513C40.5268 129.565 40.4915 129.61 40.4452 129.641C40.3988 129.671 40.3437 129.686 40.2882 129.683Z" fill="#FAFAFA"/>
<path d="M8.72185 109.529L16.8079 104.863C17.197 104.668 17.6265 104.566 18.062 104.566C18.4975 104.566 18.927 104.668 19.3161 104.863L20.3462 105.456C20.7122 105.693 21.0169 106.014 21.2353 106.391C21.4538 106.769 21.5797 107.193 21.6029 107.629V116.961C21.5789 117.397 21.4526 117.821 21.2343 118.198C21.0159 118.576 20.7117 118.897 20.3462 119.135L12.2653 123.801C11.8762 123.997 11.4467 124.099 11.0112 124.099C10.5756 124.099 10.1462 123.997 9.75707 123.801L8.727 123.209C8.36189 122.971 8.0582 122.65 7.84071 122.272C7.62321 121.894 7.49806 121.471 7.47546 121.035V111.703C7.4987 111.268 7.62358 110.845 7.84005 110.468C8.05652 110.09 8.35855 109.769 8.72185 109.529Z" fill="#BA68C8"/>
<path opacity="0.5" d="M8.72185 109.529L16.8079 104.863C17.197 104.668 17.6265 104.566 18.062 104.566C18.4975 104.566 18.927 104.668 19.3161 104.863L20.3462 105.456C20.7122 105.693 21.0169 106.014 21.2353 106.391C21.4538 106.769 21.5797 107.193 21.6029 107.629V116.961C21.5789 117.397 21.4526 117.821 21.2343 118.198C21.0159 118.576 20.7117 118.897 20.3462 119.135L12.2653 123.801C11.8762 123.997 11.4467 124.099 11.0112 124.099C10.5756 124.099 10.1462 123.997 9.75707 123.801L8.727 123.209C8.36189 122.971 8.0582 122.65 7.84071 122.272C7.62321 121.894 7.49806 121.471 7.47546 121.035V111.703C7.4987 111.268 7.62358 110.845 7.84005 110.468C8.05652 110.09 8.35855 109.769 8.72185 109.529Z" fill="#FAFAFA"/>
<path d="M21.5925 107.629C21.5925 106.826 21.0312 106.501 20.3359 106.903L12.255 111.569C11.8895 111.807 11.5852 112.128 11.3669 112.506C11.1486 112.883 11.0223 113.307 10.9983 113.743V123.075C10.9983 123.873 11.5597 124.198 12.255 123.801L20.3359 119.135C20.7014 118.897 21.0056 118.576 21.2239 118.198C21.4423 117.821 21.5686 117.397 21.5925 116.962V107.629Z" fill="#BA68C8"/>
<path d="M7.47034 121.035C7.49134 121.472 7.61573 121.898 7.8333 122.278C8.05086 122.657 8.35539 122.98 8.72187 123.219L9.75194 123.811C10.1053 123.989 10.4923 124.089 10.8874 124.106C11.2825 124.123 11.6766 124.056 12.0438 123.909C11.4516 124.136 11.0138 123.801 11.0138 123.085V113.742C11.0275 113.305 11.1553 112.879 11.3846 112.506L7.85146 110.446C7.62675 110.821 7.50092 111.246 7.48579 111.682L7.47034 121.035Z" fill="#BA68C8"/>
<path opacity="0.1" d="M7.47034 121.035C7.49134 121.472 7.61573 121.898 7.8333 122.278C8.05086 122.657 8.35539 122.98 8.72187 123.219L9.75194 123.811C10.1053 123.989 10.4923 124.089 10.8874 124.106C11.2825 124.123 11.6766 124.056 12.0438 123.909C11.4516 124.136 11.0138 123.801 11.0138 123.085V113.742C11.0275 113.305 11.1553 112.879 11.3846 112.506L7.85146 110.446C7.62675 110.821 7.50092 111.246 7.48579 111.682L7.47034 121.035Z" fill="black"/>
<path d="M12.8731 114.381L19.7488 110.4C19.9291 110.292 20.0784 110.4 20.0784 110.59V115.226C20.0725 115.342 20.0396 115.455 19.9824 115.556C19.9252 115.657 19.8452 115.743 19.7488 115.808L12.8731 119.82C12.6877 119.928 12.5383 119.82 12.5383 119.624V114.989C12.5408 114.868 12.5725 114.75 12.6309 114.644C12.6892 114.538 12.7723 114.448 12.8731 114.381Z" fill="#FAFAFA"/>
<path d="M12.5383 114.577L16.6432 115.911L20.0784 110.204L16.7565 116.39L12.5383 114.577Z" fill="#E0E0E0"/>
<path d="M8.72187 85.9769L16.8079 81.3107C17.1963 81.1127 17.6261 81.0094 18.062 81.0094C18.498 81.0094 18.9277 81.1127 19.3161 81.3107L20.3462 81.903C20.7106 82.1413 21.0135 82.4624 21.2302 82.8402C21.4468 83.2179 21.571 83.6415 21.5926 84.0764V93.4089C21.5694 93.8439 21.4435 94.2672 21.225 94.6442C21.0066 95.0211 20.7019 95.3408 20.3359 95.5772L12.255 100.243C11.8666 100.441 11.4369 100.545 11.0009 100.545C10.5649 100.545 10.1352 100.441 9.74679 100.243L8.71672 99.6562C8.35139 99.4152 8.0481 99.0913 7.83152 98.711C7.61495 98.3306 7.4912 97.9045 7.47034 97.4673V88.1504C7.49415 87.7154 7.61982 87.2921 7.8372 86.9146C8.05459 86.537 8.35762 86.2159 8.72187 85.9769Z" fill="#BA68C8"/>
<path opacity="0.5" d="M8.72187 85.9769L16.8079 81.3107C17.1963 81.1127 17.6261 81.0094 18.062 81.0094C18.498 81.0094 18.9277 81.1127 19.3161 81.3107L20.3462 81.903C20.7106 82.1413 21.0135 82.4624 21.2302 82.8402C21.4468 83.2179 21.571 83.6415 21.5926 84.0764V93.4089C21.5694 93.8439 21.4435 94.2672 21.225 94.6442C21.0066 95.0211 20.7019 95.3408 20.3359 95.5772L12.255 100.243C11.8666 100.441 11.4369 100.545 11.0009 100.545C10.5649 100.545 10.1352 100.441 9.74679 100.243L8.71672 99.6562C8.35139 99.4152 8.0481 99.0913 7.83152 98.711C7.61495 98.3306 7.4912 97.9045 7.47034 97.4673V88.1504C7.49415 87.7154 7.61982 87.2921 7.8372 86.9146C8.05459 86.537 8.35762 86.2159 8.72187 85.9769Z" fill="#FAFAFA"/>
<path d="M21.5925 84.0765C21.5925 83.273 21.0312 82.9486 20.3359 83.3503L12.255 88.0165C11.8889 88.254 11.5842 88.5747 11.3658 88.9524C11.1474 89.3302 11.0215 89.7542 10.9983 90.1899V99.5275C10.9983 100.326 11.5597 100.65 12.255 100.249L20.3359 95.5824C20.7018 95.346 21.0065 95.0263 21.225 94.6494C21.4434 94.2724 21.5694 93.8491 21.5925 93.4141V84.0765Z" fill="#BA68C8"/>
<path d="M7.47034 97.4673C7.49415 97.9023 7.61982 98.3256 7.8372 98.7031C8.05459 99.0807 8.35762 99.4018 8.72187 99.6408L9.75194 100.228C10.1046 100.407 10.4915 100.509 10.8868 100.527C11.282 100.545 11.6765 100.478 12.0438 100.331C11.4516 100.552 11.0138 100.223 11.0138 99.5069V90.1899C11.0275 89.7526 11.1553 89.3264 11.3846 88.9538L7.85146 86.8937C7.62675 87.268 7.50092 87.6934 7.48579 88.1298L7.47034 97.4673Z" fill="#BA68C8"/>
<path opacity="0.1" d="M7.47034 97.4673C7.49415 97.9023 7.61982 98.3256 7.8372 98.7031C8.05459 99.0807 8.35762 99.4018 8.72187 99.6408L9.75194 100.228C10.1046 100.407 10.4915 100.509 10.8868 100.527C11.282 100.545 11.6765 100.478 12.0438 100.331C11.4516 100.552 11.0138 100.223 11.0138 99.5069V90.1899C11.0275 89.7526 11.1553 89.3264 11.3846 88.9538L7.85146 86.8937C7.62675 87.268 7.50092 87.6934 7.48579 88.1298L7.47034 97.4673Z" fill="black"/>
<path d="M16.2156 95.4072L15.3813 95.3145C14.2482 95.2218 12.8988 94.7995 12.8988 93.1565C12.9314 92.56 13.1042 91.9797 13.4031 91.4624C13.702 90.9452 14.1185 90.5057 14.619 90.1796C15.3607 89.7521 15.989 89.9272 16.2311 90.5453C16.4751 89.6286 17.0492 88.8344 17.8431 88.3152C18.7959 87.7692 19.5634 88.2122 19.5634 89.3092C19.5634 90.8955 18.2243 92.9144 17.0963 94.3102L16.2156 95.4072Z" fill="#FAFAFA"/>
<path d="M8.72185 62.4449L16.8079 57.7787C17.1963 57.5807 17.626 57.4774 18.062 57.4774C18.498 57.4774 18.9277 57.5807 19.3161 57.7787L20.3462 58.371C20.7121 58.6074 21.0168 58.9271 21.2353 59.304C21.4537 59.6809 21.5797 60.1043 21.6029 60.5393V69.8717C21.5801 70.3076 21.4543 70.7318 21.2359 71.1096C21.0174 71.4874 20.7125 71.808 20.3462 72.0452L12.2653 76.7114C11.8769 76.9094 11.4471 77.0127 11.0112 77.0127C10.5752 77.0127 10.1454 76.9094 9.75707 76.7114L8.727 76.1242C8.36274 75.8853 8.05971 75.5641 7.84233 75.1866C7.62494 74.8091 7.49928 74.3858 7.47546 73.9508V64.6029C7.50106 64.1711 7.62705 63.7511 7.84342 63.3765C8.05979 63.0019 8.36057 62.6829 8.72185 62.4449Z" fill="#BA68C8"/>
<path opacity="0.5" d="M8.72185 62.4449L16.8079 57.7787C17.1963 57.5807 17.626 57.4774 18.062 57.4774C18.498 57.4774 18.9277 57.5807 19.3161 57.7787L20.3462 58.371C20.7121 58.6074 21.0168 58.9271 21.2353 59.304C21.4537 59.6809 21.5797 60.1043 21.6029 60.5393V69.8717C21.5801 70.3076 21.4543 70.7318 21.2359 71.1096C21.0174 71.4874 20.7125 71.808 20.3462 72.0452L12.2653 76.7114C11.8769 76.9094 11.4471 77.0127 11.0112 77.0127C10.5752 77.0127 10.1454 76.9094 9.75707 76.7114L8.727 76.1242C8.36274 75.8853 8.05971 75.5641 7.84233 75.1866C7.62494 74.8091 7.49928 74.3858 7.47546 73.9508V64.6029C7.50106 64.1711 7.62705 63.7511 7.84342 63.3765C8.05979 63.0019 8.36057 62.6829 8.72185 62.4449Z" fill="#FAFAFA"/>
<path d="M12.255 76.6959C11.5597 77.0977 10.9983 76.7732 10.9983 75.9749V66.6425C11.0211 66.2066 11.1468 65.7824 11.3653 65.4046C11.5837 65.0268 11.8886 64.7062 12.255 64.469L20.3359 59.8028C21.0312 59.4011 21.5925 59.7256 21.5925 60.5239V69.8563C21.5698 70.2921 21.444 70.7163 21.2256 71.0941C21.0071 71.4719 20.7022 71.7926 20.3359 72.0297" fill="#BA68C8"/>
<path d="M7.47034 73.9354C7.49415 74.3704 7.61982 74.7937 7.8372 75.1712C8.05459 75.5487 8.35762 75.8699 8.72187 76.1089L9.75194 76.696C10.1046 76.8755 10.4915 76.9776 10.8868 76.9953C11.282 77.0131 11.6765 76.9462 12.0438 76.799C11.4516 77.0205 11.0138 76.6909 11.0138 75.975V66.6425C11.0275 66.2052 11.1553 65.7791 11.3846 65.4065L7.85146 63.3463C7.62675 63.7207 7.50092 64.146 7.48579 64.5824L7.47034 73.9354Z" fill="#BA68C8"/>
<path opacity="0.1" d="M7.47034 73.9354C7.49415 74.3704 7.61982 74.7937 7.8372 75.1712C8.05459 75.5487 8.35762 75.8699 8.72187 76.1089L9.75194 76.696C10.1046 76.8755 10.4915 76.9776 10.8868 76.9953C11.282 77.0131 11.6765 76.9462 12.0438 76.799C11.4516 77.0205 11.0138 76.6909 11.0138 75.975V66.6425C11.0275 66.2052 11.1553 65.7791 11.3846 65.4065L7.85146 63.3463C7.62675 63.7207 7.50092 64.146 7.48579 64.5824L7.47034 73.9354Z" fill="black"/>
<path d="M14.8198 68.1103C14.8198 68.1103 15.7623 65.9369 15.8499 65.6227C15.8967 65.0846 15.8967 64.5435 15.8499 64.0055C15.8499 63.7995 16.71 63.2175 16.9881 63.8149C17.2557 64.4504 17.3063 65.1564 17.1323 65.8236L19.2285 64.6029C19.6714 64.3454 19.8517 64.7059 19.8569 64.9944C19.8425 65.3233 19.7234 65.6391 19.5169 65.8957C19.5169 65.8957 19.9393 65.7721 19.9393 66.3334C19.9267 66.5309 19.8747 66.7238 19.7862 66.9007C19.6977 67.0776 19.5746 67.235 19.4242 67.3635C19.4242 67.3635 19.5581 67.4665 19.5633 67.8785C19.5012 68.2825 19.2921 68.6493 18.9762 68.9086C19.0457 69.071 19.0775 69.2472 19.0689 69.4237C19.0429 69.6702 18.9601 69.9074 18.827 70.1165C18.6938 70.3257 18.5139 70.501 18.3015 70.6288L14.8662 72.6426L14.8198 68.1103Z" fill="#FAFAFA"/>
<path d="M12.8319 74.4247L14.341 73.544L14.3204 68.2906L12.8062 69.1714L12.8319 74.4247Z" fill="#FAFAFA"/>
<path d="M4.2984 34.87L16.6901 27.7162C17.2854 27.414 17.9436 27.2565 18.6112 27.2565C19.2788 27.2565 19.937 27.414 20.5323 27.7162L22.0774 28.6175C22.6383 28.9818 23.1052 29.4736 23.44 30.0527C23.7747 30.6318 23.9679 31.2818 24.0036 31.9498V46.2574C23.9651 46.9219 23.7706 47.5679 23.436 48.1433C23.1014 48.7186 22.6359 49.2071 22.0774 49.5691L9.71656 56.7384C9.12037 57.0406 8.46134 57.1981 7.79291 57.1981C7.12448 57.1981 6.46545 57.0406 5.86926 56.7384L4.32415 55.8371C3.76472 55.4715 3.29927 54.9794 2.96551 54.4004C2.63175 53.8215 2.43907 53.1721 2.40308 52.5048V38.1971C2.43617 37.5328 2.62495 36.8856 2.95417 36.3077C3.2834 35.7297 3.74386 35.2373 4.2984 34.87Z" fill="#BA68C8"/>
<path opacity="0.1" d="M4.2984 34.87L16.6901 27.7162C17.2854 27.414 17.9436 27.2565 18.6112 27.2565C19.2788 27.2565 19.937 27.414 20.5323 27.7162L22.0774 28.6175C22.6383 28.9818 23.1052 29.4736 23.44 30.0527C23.7747 30.6318 23.9679 31.2818 24.0036 31.9498V46.2574C23.9651 46.9219 23.7706 47.5679 23.436 48.1433C23.1014 48.7186 22.6359 49.2071 22.0774 49.5691L9.71656 56.7384C9.12037 57.0406 8.46134 57.1981 7.79291 57.1981C7.12448 57.1981 6.46545 57.0406 5.86926 56.7384L4.32415 55.8371C3.76472 55.4715 3.29927 54.9794 2.96551 54.4004C2.63175 53.8215 2.43907 53.1721 2.40308 52.5048V38.1971C2.43617 37.5328 2.62495 36.8856 2.95417 36.3077C3.2834 35.7297 3.74386 35.2373 4.2984 34.87Z" fill="black"/>
<path d="M24.0235 31.8623C24.0235 31.1464 23.6733 29.3644 21.8346 30.4923C19.9959 31.6202 10.9622 36.7242 9.71585 37.4658C8.85097 37.9403 8.16804 38.6885 7.77417 39.5929L8.75789 40.5818L24.0235 31.8623Z" fill="#BA68C8"/>
<path opacity="0.2" d="M24.0235 31.8623C24.0235 31.1464 23.6733 29.3644 21.8346 30.4923C19.9959 31.6202 10.9622 36.7242 9.71585 37.4658C8.85097 37.9403 8.16804 38.6885 7.77417 39.5929L8.75789 40.5818L24.0235 31.8623Z" fill="black"/>
<path d="M9.7159 56.7385C8.64978 57.3514 7.78967 56.8569 7.78967 55.6312V41.3286C7.82463 40.6598 8.01737 40.0088 8.35216 39.4287C8.68695 38.8487 9.15426 38.3561 9.7159 37.9912L22.0767 30.8374C23.1428 30.2245 24.003 30.7241 24.003 31.9499V46.2575C23.9644 46.922 23.77 47.5681 23.4353 48.1434C23.1007 48.7187 22.6353 49.2072 22.0767 49.5692" fill="#BA68C8"/>
<path opacity="0.1" d="M9.7159 56.7385C8.64978 57.3514 7.78967 56.8569 7.78967 55.6312V41.3286C7.82463 40.6598 8.01737 40.0088 8.35216 39.4287C8.68695 38.8487 9.15426 38.3561 9.7159 37.9912L22.0767 30.8374C23.1428 30.2245 24.003 30.7241 24.003 31.9499V46.2575C23.9644 46.922 23.77 47.5681 23.4353 48.1434C23.1007 48.7187 22.6353 49.2072 22.0767 49.5692" fill="black"/>
<path d="M2.37668 52.505C2.41267 53.1722 2.60535 53.8217 2.93911 54.4006C3.27288 54.9795 3.73833 55.4717 4.29776 55.8372L5.84286 56.7385C6.38491 57.0117 6.97874 57.1667 7.58512 57.1933C8.19151 57.2199 8.79664 57.1176 9.36055 56.8931C8.45409 57.2381 7.76394 56.7282 7.76394 55.6312V41.3287C7.7874 40.6589 7.98247 40.0062 8.33048 39.4334L2.91747 36.3071C2.57084 36.8803 2.37752 37.533 2.35608 38.2025L2.37668 52.505Z" fill="#BA68C8"/>
<path opacity="0.2" d="M2.37668 52.505C2.41267 53.1722 2.60535 53.8217 2.93911 54.4006C3.27288 54.9795 3.73833 55.4717 4.29776 55.8372L5.84286 56.7385C6.38491 57.0117 6.97874 57.1667 7.58512 57.1933C8.19151 57.2199 8.79664 57.1176 9.36055 56.8931C8.45409 57.2381 7.76394 56.7282 7.76394 55.6312V41.3287C7.7874 40.6589 7.98247 40.0062 8.33048 39.4334L2.91747 36.3071C2.57084 36.8803 2.37752 37.533 2.35608 38.2025L2.37668 52.505Z" fill="black"/>
<path d="M16.2774 36.3225L17.8843 39.1552L21.4896 37.6822C21.8295 37.5431 21.9686 37.9449 21.7213 38.3672L19.1204 42.7965L19.7333 46.5768C19.79 46.9374 19.4346 47.4369 19.1307 47.4318L15.8963 47.3339L12.6773 51.1452C12.3735 51.5057 12.0181 51.413 12.0747 50.9855L12.6979 46.479L10.1228 45.0523C9.87555 44.9184 10.0146 44.357 10.3545 44.1047L13.9598 41.4265L15.5667 36.7345C15.6851 36.307 16.1229 36.0547 16.2774 36.3225Z" fill="#FAFAFA"/>
<path d="M190.493 101.68C184.313 104.621 174.321 104.621 168.151 101.68C161.981 98.7395 161.97 93.9548 168.151 91.0346C174.331 88.1143 184.323 88.0937 190.493 91.0346C196.663 93.9754 196.643 98.7395 190.493 101.68Z" fill="#E0E0E0"/>
<path d="M49.9917 135.822C50.0467 136.571 50.2773 137.296 50.6647 137.94C51.0521 138.583 51.5856 139.126 52.2218 139.525L114.711 175.577C115.402 175.928 116.166 176.111 116.941 176.111C117.716 176.111 118.48 175.928 119.171 175.577L204.667 126.211C205.341 125.856 205.905 125.323 206.298 124.67C206.692 124.018 206.9 123.27 206.9 122.508C206.9 121.746 206.692 120.999 206.298 120.346C205.905 119.694 205.341 119.161 204.667 118.805L142.183 82.7527C141.492 82.4021 140.728 82.2194 139.953 82.2194C139.178 82.2194 138.414 82.4021 137.723 82.7527L52.2269 132.119C51.5897 132.517 51.0553 133.06 50.667 133.703C50.2786 134.347 50.0473 135.072 49.9917 135.822Z" fill="#37474F"/>
<path d="M75.7743 118.522L52.2218 132.119C51.5479 132.475 50.9838 133.007 50.5904 133.66C50.1969 134.312 49.989 135.06 49.989 135.822C49.989 136.584 50.1969 137.331 50.5904 137.984C50.9838 138.637 51.5479 139.169 52.2218 139.525L114.711 175.577C115.398 175.936 116.166 176.114 116.941 176.093V118.522H75.7743Z" fill="#263238"/>
<path d="M47.9006 132.196C47.2788 131.775 46.7653 131.214 46.402 130.557C46.0386 129.9 45.8356 129.166 45.8096 128.416V53.8439C45.8506 53.0699 46.074 52.3165 46.4616 51.6452C46.8492 50.9739 47.3899 50.4037 48.0397 49.9811L133.535 0.640838C134.181 0.236045 134.924 0.0147435 135.686 0.000711451C136.448 -0.0133206 137.199 0.180449 137.858 0.561197C138.518 0.941945 139.062 1.49528 139.431 2.16175C139.8 2.82822 139.98 3.58264 139.953 4.34394V78.89C139.911 79.664 139.688 80.4172 139.3 81.0884C138.913 81.7596 138.372 82.3299 137.723 82.7528L52.2269 132.119C51.5628 132.471 50.8248 132.662 50.073 132.676C49.3212 132.689 48.5769 132.525 47.9006 132.196Z" fill="#455A64"/>
<path d="M56.27 57.2947L46.4843 51.6293C46.0846 52.2934 45.8612 53.0486 45.8354 53.8233V128.416C45.8085 129.176 45.9891 129.93 46.3578 130.595C46.7266 131.261 47.2695 131.814 47.9285 132.194C48.5875 132.575 49.3377 132.769 50.0985 132.756C50.8594 132.742 51.6023 132.522 52.2476 132.119L61.9972 126.49L56.27 57.2947Z" fill="#263238"/>
<path d="M49.9917 56.2644V130.831C49.9917 132.253 50.9909 132.829 52.2218 132.119L137.718 82.7526C138.367 82.3298 138.908 81.7595 139.295 81.0883C139.683 80.4171 139.906 79.6638 139.948 78.8899V4.32321C139.948 2.90171 138.948 2.32487 137.718 3.03562L52.2218 52.3965C51.5725 52.8208 51.0322 53.3921 50.6448 54.0641C50.2573 54.7361 50.0336 55.4899 49.9917 56.2644Z" fill="#37474F"/>
<path d="M52.2218 134.694L114.711 170.772C115.402 171.123 116.166 171.305 116.941 171.305C117.716 171.305 118.48 171.123 119.171 170.772L204.667 121.406C205.903 120.695 205.903 119.542 204.667 118.831L142.183 82.7527C141.492 82.4021 140.728 82.2194 139.953 82.2194C139.178 82.2194 138.414 82.4021 137.723 82.7527L52.2269 132.119C50.9908 132.83 50.9908 133.983 52.2218 134.694Z" fill="#455A64"/>
<path d="M53.4219 56.5375L136.523 8.56206C137.259 8.13458 137.862 8.47966 137.862 9.33461V73.8839C137.836 74.3481 137.701 74.7997 137.468 75.2023C137.236 75.6049 136.912 75.9472 136.523 76.2015L53.4219 124.177C52.6802 124.604 52.0828 124.259 52.0828 123.404V58.8397C52.1099 58.3779 52.2452 57.9289 52.4778 57.529C52.7104 57.1291 53.0338 56.7894 53.4219 56.5375Z" fill="#FAFAFA"/>
<path d="M59.4735 132.763L138.835 86.9246C139.181 86.7495 139.563 86.6582 139.95 86.6582C140.338 86.6582 140.72 86.7495 141.065 86.9246L145.129 89.268C145.263 89.3136 145.38 89.4003 145.463 89.5157C145.546 89.6312 145.59 89.7697 145.59 89.9118C145.59 90.0538 145.546 90.1923 145.463 90.3078C145.38 90.4233 145.263 90.5099 145.129 90.5556L65.7518 136.388C65.4062 136.564 65.0242 136.655 64.6367 136.655C64.2493 136.655 63.8673 136.564 63.5217 136.388L59.4735 134.035C59.3443 133.986 59.2329 133.899 59.1544 133.785C59.0758 133.672 59.0337 133.537 59.0337 133.399C59.0337 133.261 59.0758 133.126 59.1544 133.012C59.2329 132.898 59.3443 132.811 59.4735 132.763Z" fill="#263238"/>
<path d="M69.9339 138.804L149.296 92.9658C149.641 92.7907 150.023 92.6995 150.411 92.6995C150.798 92.6995 151.18 92.7907 151.526 92.9658L176.495 107.387C176.629 107.432 176.746 107.519 176.829 107.635C176.911 107.75 176.956 107.889 176.956 108.031C176.956 108.173 176.911 108.311 176.829 108.427C176.746 108.542 176.629 108.629 176.495 108.674L97.2256 154.44C96.8791 154.616 96.4962 154.707 96.108 154.707C95.7197 154.707 95.3369 154.616 94.9903 154.44L69.9391 140.081C69.8056 140.036 69.6894 139.951 69.607 139.837C69.5246 139.722 69.4799 139.585 69.4794 139.444C69.4788 139.304 69.5223 139.166 69.6038 139.051C69.6854 138.936 69.8008 138.85 69.9339 138.804Z" fill="#263238"/>
<path d="M141.075 113.598L143.563 112.161C143.666 112.099 143.661 111.996 143.563 111.935L140.689 110.276C140.628 110.245 140.56 110.228 140.491 110.228C140.422 110.228 140.354 110.245 140.293 110.276L137.81 111.713C137.702 111.77 137.707 111.873 137.81 111.94L140.684 113.598C140.745 113.629 140.812 113.645 140.88 113.645C140.948 113.645 141.015 113.629 141.075 113.598ZM136.172 107.897L133.69 109.313C133.582 109.375 133.587 109.478 133.69 109.545L136.564 111.203C136.625 111.234 136.693 111.25 136.762 111.25C136.831 111.25 136.899 111.234 136.96 111.203L139.448 109.766C139.551 109.704 139.546 109.601 139.448 109.54L136.574 107.876C136.51 107.848 136.44 107.835 136.371 107.839C136.301 107.842 136.233 107.862 136.172 107.897ZM128.143 112.532L123.94 114.978C123.832 115.04 123.842 115.143 123.94 115.21L126.814 116.869C126.876 116.899 126.944 116.915 127.012 116.915C127.081 116.915 127.149 116.899 127.211 116.869L131.413 114.443C131.516 114.381 131.511 114.278 131.413 114.216L128.54 112.553C128.479 112.519 128.412 112.5 128.344 112.496C128.275 112.492 128.206 112.505 128.143 112.532ZM132.541 109.993L130.054 111.43C129.951 111.486 129.956 111.59 130.054 111.656L132.928 113.315C132.989 113.346 133.057 113.363 133.126 113.363C133.195 113.363 133.263 113.346 133.324 113.315L135.807 111.878C135.915 111.816 135.91 111.713 135.807 111.651L132.933 109.993C132.872 109.962 132.805 109.946 132.737 109.946C132.669 109.946 132.602 109.962 132.541 109.993ZM122.792 115.622L120.309 117.039C120.201 117.1 120.211 117.203 120.309 117.27L123.183 118.929C123.244 118.96 123.312 118.977 123.381 118.977C123.45 118.977 123.518 118.96 123.58 118.929L126.067 117.497C126.17 117.435 126.165 117.332 126.067 117.27L123.193 115.607C123.13 115.578 123.061 115.564 122.991 115.567C122.921 115.57 122.853 115.589 122.792 115.622ZM119.161 117.718L116.678 119.15C116.57 119.212 116.575 119.315 116.678 119.382L119.552 121.04C119.614 121.071 119.682 121.087 119.75 121.087C119.819 121.087 119.887 121.071 119.949 121.04L122.436 119.603C122.539 119.542 122.534 119.439 122.436 119.377L119.562 117.713C119.5 117.683 119.431 117.667 119.361 117.668C119.291 117.669 119.223 117.686 119.161 117.718ZM130.466 124.465L132.948 123.028C133.051 122.967 133.046 122.864 132.948 122.802L130.059 121.159C129.998 121.127 129.93 121.111 129.861 121.111C129.792 121.111 129.724 121.127 129.662 121.159L127.18 122.596C127.072 122.652 127.082 122.755 127.18 122.822L130.054 124.481C130.118 124.513 130.19 124.528 130.262 124.525C130.334 124.523 130.404 124.502 130.466 124.465ZM126.83 126.562L129.317 125.125C129.42 125.063 129.415 124.965 129.317 124.898L126.428 123.219C126.367 123.187 126.299 123.171 126.23 123.171C126.161 123.171 126.093 123.187 126.031 123.219L123.539 124.666C123.43 124.723 123.441 124.826 123.539 124.893L126.412 126.551C126.475 126.588 126.547 126.608 126.62 126.61C126.693 126.612 126.765 126.595 126.83 126.562ZM123.199 128.658L125.686 127.221C125.789 127.164 125.784 127.061 125.686 126.994L122.812 125.336C122.751 125.304 122.683 125.288 122.614 125.288C122.545 125.288 122.477 125.304 122.416 125.336L119.933 126.762C119.825 126.824 119.83 126.927 119.933 126.989L122.807 128.647C122.867 128.68 122.934 128.698 123.002 128.699C123.07 128.701 123.137 128.687 123.199 128.658ZM119.593 130.754L122.081 129.317C122.184 129.26 122.179 129.157 122.081 129.09L119.207 127.432C119.146 127.4 119.078 127.384 119.009 127.384C118.94 127.384 118.872 127.4 118.811 127.432L116.287 128.884C116.179 128.946 116.184 129.049 116.287 129.111L119.161 130.769C119.225 130.8 119.295 130.815 119.366 130.813C119.437 130.81 119.506 130.79 119.568 130.754H119.593ZM137.444 115.694L139.927 114.257C140.035 114.196 140.03 114.098 139.927 114.031L137.053 112.372C136.992 112.341 136.924 112.324 136.855 112.324C136.786 112.324 136.718 112.341 136.656 112.372L134.174 113.809C134.066 113.871 134.071 113.969 134.174 114.036L137.048 115.694C137.109 115.726 137.177 115.742 137.246 115.742C137.315 115.742 137.383 115.726 137.444 115.694ZM134.097 122.39L139.639 119.186C139.742 119.124 139.736 119.021 139.639 118.96L132.66 114.932C132.598 114.9 132.53 114.884 132.462 114.884C132.393 114.884 132.325 114.9 132.263 114.932L129.4 116.585C129.291 116.647 129.297 116.75 129.4 116.817L133.098 118.949C133.211 119.016 133.216 119.119 133.098 119.176L130.806 120.505C130.703 120.561 130.708 120.664 130.806 120.731L133.68 122.39C133.746 122.42 133.818 122.435 133.891 122.431C133.963 122.427 134.034 122.406 134.097 122.369V122.39ZM115.53 119.815L113.047 121.252C112.939 121.308 112.944 121.411 113.047 121.478L115.921 123.137C115.983 123.167 116.051 123.183 116.119 123.183C116.188 123.183 116.256 123.167 116.318 123.137L118.805 121.7C118.908 121.638 118.903 121.535 118.805 121.473L115.931 119.815C115.87 119.782 115.801 119.765 115.731 119.765C115.661 119.765 115.592 119.782 115.53 119.815ZM111.924 121.911L109.437 123.348C109.334 123.41 109.339 123.507 109.437 123.574L112.311 125.233C112.372 125.264 112.44 125.281 112.509 125.281C112.578 125.281 112.646 125.264 112.707 125.233L115.19 123.796C115.298 123.734 115.293 123.631 115.19 123.569L112.316 121.911C112.252 121.876 112.18 121.857 112.107 121.857C112.034 121.857 111.963 121.876 111.899 121.911H111.924ZM93.7747 145.422C93.836 145.454 93.904 145.47 93.973 145.47C94.042 145.47 94.1099 145.454 94.1713 145.422L96.6589 143.985C96.7619 143.923 96.7567 143.82 96.6589 143.759L93.785 142.1C93.7237 142.069 93.6557 142.052 93.5867 142.052C93.5177 142.052 93.4497 142.069 93.3884 142.1L90.9059 143.537C90.7978 143.599 90.8029 143.697 90.9059 143.764L93.7747 145.422ZM82.8508 138.67L80.3632 140.107C80.2602 140.164 80.2653 140.267 80.3632 140.334L83.2371 141.992C83.2988 142.022 83.3666 142.038 83.4354 142.038C83.5041 142.038 83.572 142.022 83.6337 141.992L86.1161 140.555C86.2243 140.493 86.2191 140.39 86.1161 140.328L83.2422 138.67C83.1816 138.639 83.1145 138.623 83.0465 138.623C82.9785 138.623 82.9115 138.639 82.8508 138.67ZM88.6965 143.589C88.7578 143.62 88.8258 143.637 88.8947 143.637C88.9637 143.637 89.0317 143.62 89.093 143.589L91.5755 142.152C91.6837 142.09 91.6733 141.992 91.5755 141.925L88.7067 140.267C88.6454 140.235 88.5774 140.219 88.5085 140.219C88.4395 140.219 88.3715 140.235 88.3102 140.267L85.8226 141.704C85.7196 141.765 85.7247 141.863 85.8226 141.93L88.6965 143.589ZM100.166 146.679L102.654 145.242C102.757 145.18 102.752 145.077 102.654 145.015L99.78 143.352C99.7183 143.321 99.6505 143.305 99.5817 143.305C99.5129 143.305 99.4451 143.321 99.3834 143.352L96.9009 144.789C96.7928 144.845 96.7979 144.948 96.9009 145.015L99.7748 146.674C99.8328 146.708 99.8979 146.728 99.9649 146.732C100.032 146.737 100.099 146.725 100.161 146.699L100.166 146.679ZM96.1387 148.765C96.2 148.796 96.268 148.813 96.337 148.813C96.406 148.813 96.474 148.796 96.5353 148.765L99.0229 147.328C99.1259 147.266 99.1207 147.163 99.0229 147.101L96.149 145.443C96.0877 145.411 96.0197 145.395 95.9507 145.395C95.8817 145.395 95.8137 145.411 95.7524 145.443L93.2494 146.911C93.1412 146.967 93.1463 147.07 93.2494 147.137L96.1387 148.765ZM86.456 136.61L83.9684 138.042C83.8654 138.103 83.8706 138.207 83.9684 138.273L86.8423 139.932C86.904 139.962 86.9718 139.978 87.0406 139.978C87.1094 139.978 87.1772 139.962 87.2389 139.932L89.7214 138.495C89.8295 138.433 89.8244 138.33 89.7214 138.268L86.8732 136.61C86.8089 136.576 86.7373 136.558 86.6646 136.558C86.592 136.558 86.5204 136.576 86.456 136.61ZM104.637 126.103L102.149 127.54C102.046 127.602 102.051 127.705 102.149 127.767L105.023 129.425C105.084 129.457 105.152 129.473 105.221 129.473C105.29 129.473 105.358 129.457 105.42 129.425L107.902 127.988C108.01 127.932 108 127.829 107.902 127.762L105.033 126.103C104.972 126.073 104.904 126.057 104.835 126.057C104.766 126.057 104.698 126.073 104.637 126.103ZM90.1076 134.493L87.6252 135.925C87.517 135.987 87.5222 136.09 87.6252 136.157L90.4991 137.815C90.5607 137.846 90.6286 137.861 90.6974 137.861C90.7661 137.861 90.834 137.846 90.8956 137.815L93.3833 136.383C93.4863 136.321 93.4811 136.218 93.3833 136.152L90.5094 134.493C90.447 134.462 90.3782 134.446 90.3085 134.446C90.2388 134.446 90.17 134.462 90.1076 134.493ZM108.268 124.007L105.78 125.444C105.677 125.506 105.682 125.604 105.78 125.671L108.654 127.329C108.715 127.361 108.783 127.377 108.852 127.377C108.921 127.377 108.989 127.361 109.051 127.329L111.533 125.892C111.641 125.83 111.636 125.732 111.533 125.665L108.659 124.007C108.599 123.976 108.531 123.96 108.463 123.96C108.395 123.96 108.328 123.976 108.268 124.007ZM101.001 128.199L98.5182 129.636C98.41 129.698 98.4203 129.801 98.5182 129.863L101.392 131.527C101.454 131.557 101.522 131.573 101.59 131.573C101.659 131.573 101.727 131.557 101.789 131.527L104.271 130.095C104.379 130.033 104.369 129.93 104.271 129.863L101.392 128.21C101.332 128.178 101.265 128.161 101.198 128.16C101.13 128.158 101.062 128.171 101.001 128.199ZM97.3696 130.301L94.8872 131.733C94.779 131.794 94.7893 131.897 94.8872 131.959L97.7868 133.623C97.8476 133.653 97.9146 133.669 97.9825 133.669C98.0505 133.669 98.1175 133.653 98.1782 133.623L100.666 132.191C100.769 132.129 100.764 132.026 100.666 131.959L97.7868 130.306C97.7233 130.27 97.6518 130.251 97.5789 130.25C97.5059 130.249 97.434 130.266 97.3696 130.301ZM93.7386 132.397L91.2562 133.829C91.148 133.891 91.1583 133.994 91.2562 134.06L94.1301 135.719C94.1917 135.749 94.2596 135.765 94.3284 135.765C94.3971 135.765 94.465 135.749 94.5266 135.719L97.0143 134.287C97.1173 134.225 97.1121 134.122 97.0143 134.055L94.1404 132.397C94.078 132.366 94.0092 132.349 93.9395 132.349C93.8698 132.349 93.801 132.366 93.7386 132.397ZM112.306 134.946L114.783 133.52C114.891 133.458 114.886 133.355 114.783 133.288L111.909 131.629C111.848 131.598 111.78 131.581 111.711 131.581C111.642 131.581 111.574 131.598 111.512 131.629L109.025 133.061C108.922 133.123 108.927 133.226 109.025 133.293L111.899 134.951C111.962 134.983 112.032 134.999 112.103 134.998C112.174 134.997 112.243 134.979 112.306 134.946ZM144.202 103.261L141.714 104.678C141.611 104.734 141.616 104.837 141.714 104.904L144.588 106.563C144.65 106.593 144.718 106.609 144.786 106.609C144.855 106.609 144.923 106.593 144.985 106.563L147.467 105.126C147.575 105.064 147.57 104.961 147.467 104.899L144.593 103.241C144.531 103.213 144.463 103.201 144.395 103.204C144.327 103.208 144.261 103.227 144.202 103.261ZM139.803 105.801L137.321 107.253C137.213 107.315 137.218 107.418 137.321 107.485L140.19 109.143C140.251 109.175 140.319 109.191 140.388 109.191C140.457 109.191 140.525 109.175 140.586 109.143L143.074 107.711C143.177 107.65 143.172 107.547 143.074 107.485L140.2 105.821C140.14 105.787 140.073 105.768 140.004 105.764C139.935 105.761 139.867 105.773 139.803 105.801ZM147.833 101.165L145.345 102.618C145.242 102.679 145.247 102.782 145.345 102.849L148.219 104.508C148.281 104.538 148.348 104.554 148.417 104.554C148.486 104.554 148.554 104.538 148.616 104.508L151.098 103.071C151.206 103.009 151.201 102.906 151.098 102.844L148.224 101.181C148.164 101.149 148.098 101.131 148.03 101.128C147.962 101.125 147.895 101.138 147.833 101.165ZM129.034 120.551L131.522 119.099C131.625 119.037 131.619 118.934 131.522 118.872L128.648 117.214C128.586 117.182 128.518 117.166 128.449 117.166C128.38 117.166 128.312 117.182 128.251 117.214L125.763 118.645C125.66 118.707 125.666 118.81 125.763 118.877L128.637 120.536C128.698 120.569 128.765 120.587 128.834 120.59C128.903 120.592 128.971 120.579 129.034 120.551ZM151.865 99.0742C151.804 99.0437 151.736 99.0279 151.667 99.0279C151.598 99.0279 151.531 99.0437 151.469 99.0742L148.986 100.506C148.878 100.568 148.883 100.671 148.986 100.738L151.86 102.396C151.922 102.428 151.99 102.444 152.059 102.444C152.128 102.444 152.196 102.428 152.257 102.396L154.744 100.964C154.847 100.903 154.842 100.8 154.744 100.733L151.865 99.0742ZM115.937 132.85L118.419 131.418C118.527 131.357 118.522 131.254 118.419 131.187L115.545 129.528C115.484 129.498 115.416 129.482 115.347 129.482C115.278 129.482 115.21 129.498 115.149 129.528L112.651 130.945C112.548 131.006 112.553 131.109 112.651 131.171L115.525 132.835C115.587 132.87 115.657 132.89 115.729 132.893C115.8 132.895 115.872 132.881 115.937 132.85ZM160.472 107.14L162.959 105.703C163.062 105.641 163.057 105.538 162.959 105.476L160.085 103.818C160.024 103.786 159.956 103.77 159.887 103.77C159.818 103.77 159.75 103.786 159.689 103.818L157.201 105.255C157.098 105.311 157.103 105.414 157.201 105.481L160.075 107.14C160.136 107.171 160.204 107.188 160.273 107.188C160.342 107.188 160.41 107.171 160.472 107.14ZM152.746 106.867L155.229 105.43C155.337 105.368 155.332 105.265 155.229 105.203L152.355 103.545C152.293 103.513 152.225 103.497 152.156 103.497C152.087 103.497 152.019 103.513 151.958 103.545L149.471 104.982C149.368 105.038 149.373 105.141 149.471 105.208L152.344 106.867C152.405 106.897 152.472 106.913 152.54 106.913C152.608 106.913 152.675 106.897 152.736 106.867H152.746ZM155.986 101.443C155.924 101.413 155.856 101.397 155.787 101.397C155.719 101.397 155.651 101.413 155.589 101.443L153.107 102.88C152.999 102.937 153.004 103.04 153.107 103.107L155.981 104.765C156.042 104.796 156.11 104.812 156.179 104.812C156.248 104.812 156.315 104.796 156.377 104.765L158.865 103.328C158.968 103.267 158.963 103.164 158.865 103.102L155.986 101.443ZM156.748 101.006L163.711 105.033C163.773 105.064 163.841 105.079 163.91 105.079C163.978 105.079 164.046 105.064 164.108 105.033L166.595 103.596C166.698 103.534 166.693 103.431 166.595 103.37L159.591 99.3471C159.529 99.3167 159.461 99.3009 159.393 99.3009C159.324 99.3009 159.256 99.3167 159.194 99.3471L156.712 100.779C156.609 100.836 156.614 100.939 156.727 101.006H156.748ZM148.327 105.641L145.84 107.078C145.737 107.134 145.742 107.237 145.84 107.304L148.713 108.963C148.775 108.994 148.843 109.011 148.912 109.011C148.981 109.011 149.049 108.994 149.11 108.963L151.592 107.526C151.701 107.464 151.695 107.361 151.592 107.299L148.719 105.641C148.656 105.605 148.586 105.585 148.514 105.583C148.442 105.582 148.371 105.598 148.307 105.631L148.327 105.641ZM120.963 121.411L118.476 122.848C118.373 122.91 118.378 123.008 118.476 123.075L121.35 124.733C121.411 124.765 121.479 124.781 121.548 124.781C121.617 124.781 121.685 124.765 121.746 124.733L124.229 123.296C124.337 123.234 124.332 123.137 124.229 123.07L121.355 121.411C121.294 121.38 121.227 121.364 121.159 121.364C121.091 121.364 121.024 121.38 120.963 121.411ZM156.434 109.226C156.495 109.257 156.563 109.274 156.632 109.274C156.701 109.274 156.769 109.257 156.83 109.226L159.313 107.789C159.421 107.727 159.416 107.629 159.313 107.562L156.439 105.904C156.378 105.872 156.31 105.855 156.241 105.855C156.172 105.855 156.104 105.872 156.042 105.904L153.555 107.34C153.452 107.402 153.457 107.5 153.555 107.567L156.434 109.226ZM124.594 119.315L122.107 120.752C122.004 120.809 122.009 120.912 122.107 120.979L124.981 122.637C125.042 122.669 125.11 122.685 125.179 122.685C125.248 122.685 125.316 122.669 125.377 122.637L127.86 121.2C127.968 121.138 127.963 121.035 127.86 120.973L124.986 119.315C124.926 119.286 124.861 119.271 124.795 119.271C124.729 119.271 124.664 119.286 124.605 119.315H124.594ZM97.3799 143.305C97.4416 143.336 97.5094 143.352 97.5782 143.352C97.647 143.352 97.7148 143.336 97.7765 143.305L100.264 141.868C100.367 141.807 100.362 141.704 100.264 141.642L97.3902 139.983C97.3289 139.952 97.2609 139.935 97.1919 139.935C97.123 139.935 97.055 139.952 96.9937 139.983L94.5112 141.42C94.403 141.477 94.4082 141.58 94.5112 141.647L97.3799 143.305ZM91.9206 138.155L89.4329 139.592C89.3299 139.649 89.3351 139.752 89.4329 139.819L92.3068 141.477C92.3685 141.507 92.4364 141.523 92.5051 141.523C92.5739 141.523 92.6418 141.507 92.7034 141.477L95.1859 140.04C95.294 139.978 95.2889 139.875 95.1859 139.813L92.312 138.155C92.2489 138.129 92.1806 138.118 92.1126 138.123C92.0445 138.129 91.9787 138.15 91.9206 138.186V138.155ZM101.392 141.245L103.88 139.808C103.983 139.746 103.978 139.643 103.88 139.582L101.006 137.923C100.944 137.892 100.876 137.875 100.807 137.875C100.739 137.875 100.671 137.892 100.609 137.923L98.1267 139.355C98.0186 139.417 98.0289 139.52 98.1267 139.587L101.001 141.245C101.061 141.276 101.128 141.291 101.196 141.291C101.264 141.291 101.331 141.276 101.392 141.245ZM105.028 139.149L107.511 137.712C107.619 137.65 107.609 137.547 107.511 137.48L104.637 135.822C104.575 135.791 104.507 135.776 104.438 135.776C104.37 135.776 104.302 135.791 104.24 135.822L101.758 137.254C101.655 137.315 101.66 137.418 101.758 137.485L104.632 139.144C104.695 139.177 104.766 139.194 104.838 139.194C104.909 139.194 104.98 139.177 105.044 139.144L105.028 139.149ZM108.633 137.048L111.116 135.616C111.224 135.554 111.214 135.451 111.116 135.384L108.247 133.726C108.185 133.695 108.118 133.679 108.049 133.679C107.98 133.679 107.912 133.695 107.851 133.726L105.363 135.157C105.26 135.219 105.265 135.322 105.363 135.389L108.237 137.048C108.304 137.084 108.38 137.103 108.456 137.102C108.533 137.101 108.608 137.081 108.675 137.043L108.633 137.048ZM95.5516 136.095L93.0639 137.527C92.9609 137.588 92.9661 137.691 93.0639 137.758L95.9378 139.417C95.9995 139.447 96.0674 139.463 96.1361 139.463C96.2049 139.463 96.2727 139.447 96.3344 139.417L98.8169 137.98C98.925 137.918 98.9199 137.815 98.8169 137.753L95.9481 136.095C95.8865 136.064 95.8186 136.049 95.7498 136.049C95.6811 136.049 95.6132 136.064 95.5516 136.095ZM99.1826 133.999L96.6949 135.43C96.5919 135.492 96.5971 135.595 96.6949 135.662L99.5688 137.321C99.6301 137.352 99.6981 137.369 99.7671 137.369C99.8361 137.369 99.9041 137.352 99.9654 137.321L102.453 135.889C102.556 135.827 102.551 135.724 102.453 135.657L99.5791 133.999C99.5179 133.967 99.4502 133.951 99.3814 133.95C99.3127 133.949 99.2446 133.964 99.1826 133.994V133.999ZM113.712 125.609L111.224 127.046C111.116 127.107 111.126 127.211 111.224 127.272L114.098 128.931C114.159 128.962 114.227 128.979 114.296 128.979C114.365 128.979 114.433 128.962 114.495 128.931L116.977 127.494C117.085 127.437 117.075 127.334 116.977 127.267L114.103 125.609C114.043 125.578 113.976 125.561 113.908 125.56C113.84 125.559 113.773 125.574 113.712 125.604V125.609ZM110.076 127.71L107.572 129.137C107.464 129.199 107.475 129.302 107.572 129.363L110.441 131.027C110.503 131.057 110.571 131.073 110.639 131.073C110.708 131.073 110.776 131.057 110.838 131.027L113.325 129.595C113.428 129.533 113.423 129.43 113.325 129.363L110.452 127.705C110.393 127.677 110.329 127.662 110.264 127.662C110.198 127.662 110.134 127.677 110.076 127.705V127.71ZM117.358 123.507L114.871 124.944C114.767 125.006 114.773 125.109 114.871 125.171L117.744 126.829C117.806 126.861 117.874 126.877 117.943 126.877C118.012 126.877 118.08 126.861 118.141 126.829L120.623 125.392C120.732 125.336 120.721 125.233 120.623 125.166L117.755 123.507C117.693 123.476 117.625 123.459 117.556 123.459C117.487 123.459 117.419 123.476 117.358 123.507ZM102.829 131.897L100.347 133.329C100.238 133.391 100.244 133.494 100.347 133.561L103.22 135.219C103.282 135.25 103.35 135.266 103.419 135.266C103.487 135.266 103.555 135.25 103.617 135.219L106.105 133.787C106.208 133.726 106.202 133.623 106.105 133.556L103.231 131.897C103.166 131.863 103.095 131.846 103.022 131.846C102.949 131.846 102.878 131.863 102.814 131.897H102.829ZM106.46 129.801L103.967 131.233C103.859 131.295 103.864 131.398 103.967 131.465L106.841 133.123C106.903 133.154 106.971 133.169 107.039 133.169C107.108 133.169 107.176 133.154 107.238 133.123L109.725 131.691C109.828 131.63 109.823 131.526 109.725 131.46L106.851 129.801C106.789 129.768 106.719 129.75 106.648 129.75C106.577 129.75 106.507 129.768 106.445 129.801H106.46ZM103.808 144.603L106.295 143.166C106.398 143.104 106.393 143.001 106.295 142.94L103.421 141.276C103.36 141.246 103.292 141.23 103.223 141.23C103.154 141.23 103.086 141.246 103.025 141.276L100.542 142.708C100.434 142.77 100.444 142.873 100.542 142.94L103.411 144.598C103.47 144.627 103.535 144.642 103.601 144.643C103.667 144.644 103.732 144.63 103.792 144.603H103.808ZM82.5006 142.45L79.6267 140.792C79.5654 140.76 79.4974 140.744 79.4284 140.744C79.3594 140.744 79.2914 140.76 79.2301 140.792L76.7425 142.229C76.6395 142.286 76.6446 142.389 76.7425 142.456L79.6164 144.114C79.6777 144.146 79.7457 144.162 79.8147 144.162C79.8837 144.162 79.9517 144.146 80.013 144.114L82.4954 142.677C82.6036 142.615 82.5933 142.512 82.4851 142.45H82.5006ZM87.9394 144.047L85.0655 142.389C85.0041 142.357 84.9362 142.34 84.8672 142.34C84.7982 142.34 84.7302 142.357 84.6689 142.389L80.8473 144.598C80.7443 144.66 80.7495 144.758 80.8473 144.825L83.7212 146.483C83.7825 146.515 83.8505 146.531 83.9195 146.531C83.9885 146.531 84.0565 146.515 84.1178 146.483L87.9394 144.274C88.0475 144.212 88.0372 144.114 87.9239 144.047H87.9394ZM78.0919 139.242L75.218 137.583C75.1567 137.552 75.0887 137.535 75.0197 137.535C74.9507 137.535 74.8827 137.552 74.8214 137.583L71.7621 139.35C71.654 139.412 71.6643 139.515 71.7621 139.582L74.636 141.24C74.6977 141.27 74.7655 141.286 74.8343 141.286C74.9031 141.286 74.9709 141.27 75.0326 141.24L78.0867 139.473C78.2155 139.412 78.2155 139.309 78.0764 139.242H78.0919ZM80.4353 137.887C80.4966 137.919 80.5646 137.935 80.6336 137.935C80.7026 137.935 80.7706 137.919 80.8319 137.887L83.3143 136.45C83.4225 136.388 83.4173 136.291 83.3143 136.224L80.4405 134.565C80.3791 134.534 80.3111 134.517 80.2422 134.517C80.1732 134.517 80.1052 134.534 80.0439 134.565L77.5563 136.002C77.4532 136.064 77.4584 136.162 77.5563 136.229L80.4353 137.887ZM92.9867 145.881L90.1128 144.222C90.0515 144.19 89.9835 144.174 89.9145 144.174C89.8455 144.174 89.7775 144.19 89.7162 144.222L84.9367 146.983C84.8337 147.044 84.8388 147.147 84.9367 147.209L87.8106 148.868C87.8719 148.899 87.9399 148.916 88.0089 148.916C88.0779 148.916 88.1458 148.899 88.2072 148.868L92.9867 146.107C93.1051 146.03 93.1 145.932 92.9867 145.881ZM95.3713 149.244L92.4974 147.585C92.4361 147.554 92.3681 147.537 92.2991 147.537C92.2301 147.537 92.1621 147.554 92.1008 147.585L89.0312 149.326C88.9282 149.388 88.9334 149.491 89.0312 149.553L91.9051 151.216C91.9668 151.247 92.0346 151.263 92.1034 151.263C92.1722 151.263 92.24 151.247 92.3017 151.216L95.361 149.45C95.4897 149.393 95.4846 149.295 95.3713 149.228V149.244ZM107.423 122.313C107.484 122.344 107.551 122.361 107.619 122.361C107.687 122.361 107.754 122.344 107.815 122.313L110.302 120.876C110.405 120.819 110.4 120.716 110.302 120.649L107.428 118.991C107.367 118.959 107.299 118.942 107.23 118.942C107.161 118.942 107.093 118.959 107.032 118.991L104.549 120.427C104.441 120.489 104.451 120.592 104.549 120.654L107.423 122.313ZM100.156 126.51C100.218 126.541 100.285 126.556 100.354 126.556C100.423 126.556 100.491 126.541 100.553 126.51L103.04 125.073C103.143 125.016 103.138 124.913 103.04 124.847L100.166 123.188C100.105 123.158 100.037 123.142 99.968 123.142C99.8992 123.142 99.8314 123.158 99.7697 123.188L97.2718 124.604C97.1636 124.666 97.1688 124.769 97.2718 124.831L100.156 126.51ZM84.0508 135.806C84.1125 135.837 84.1804 135.853 84.2491 135.853C84.3179 135.853 84.3857 135.837 84.4474 135.806L86.9299 134.369C87.038 134.308 87.0329 134.205 86.9299 134.143L84.0457 132.49C83.9844 132.458 83.9164 132.442 83.8474 132.442C83.7784 132.442 83.7104 132.458 83.6491 132.49L81.1615 133.927C81.0585 133.983 81.0636 134.086 81.1615 134.153L84.0508 135.806ZM103.787 124.409C103.848 124.44 103.916 124.457 103.985 124.457C104.054 124.457 104.122 124.44 104.184 124.409L106.671 122.972C106.774 122.915 106.769 122.812 106.671 122.745L103.797 121.087C103.736 121.055 103.668 121.039 103.599 121.039C103.53 121.039 103.462 121.055 103.401 121.087L100.918 122.524C100.81 122.585 100.82 122.689 100.918 122.75L103.787 124.409ZM96.525 128.606C96.5866 128.637 96.6545 128.653 96.7233 128.653C96.792 128.653 96.8599 128.637 96.9216 128.606L99.4092 127.174C99.5122 127.113 99.507 127.01 99.4092 126.943L96.5198 125.279C96.4585 125.248 96.3905 125.231 96.3215 125.231C96.2525 125.231 96.1846 125.248 96.1232 125.279L93.6665 126.701C93.5584 126.762 93.5635 126.865 93.6665 126.932L96.525 128.606ZM97.3645 149.486C97.3032 149.454 97.2352 149.438 97.1662 149.438C97.0972 149.438 97.0292 149.454 96.9679 149.486L93.1515 151.695C93.0485 151.757 93.0536 151.86 93.1515 151.927L96.0357 153.606C96.0974 153.636 96.1652 153.652 96.234 153.652C96.3027 153.652 96.3706 153.636 96.4323 153.606L100.254 151.402C100.357 151.34 100.352 151.237 100.254 151.17L97.3645 149.486ZM91.3128 131.588C91.3741 131.62 91.4421 131.636 91.5111 131.636C91.5801 131.636 91.6481 131.62 91.7094 131.588L94.1816 130.172C94.2846 130.11 94.2794 130.007 94.1816 129.94L91.3077 128.282C91.246 128.251 91.1782 128.236 91.1094 128.236C91.0406 128.236 90.9728 128.251 90.9111 128.282L88.4286 129.714C88.3205 129.775 88.3256 129.878 88.4286 129.945L91.3128 131.588ZM87.6818 133.684C87.7435 133.715 87.8113 133.731 87.8801 133.731C87.9489 133.731 88.0167 133.715 88.0784 133.684L90.566 132.248C90.669 132.186 90.6639 132.083 90.566 132.021L87.6921 130.363C87.6308 130.331 87.5628 130.314 87.4938 130.314C87.4249 130.314 87.3569 130.331 87.2956 130.363L84.8079 131.794C84.7049 131.856 84.7101 131.959 84.8079 132.026L87.6818 133.684ZM164.649 110.652C164.587 110.622 164.519 110.606 164.45 110.606C164.382 110.606 164.314 110.622 164.252 110.652L158.133 114.185C158.03 114.247 158.036 114.35 158.133 114.412L161.007 116.075C161.069 116.106 161.137 116.122 161.206 116.122C161.274 116.122 161.342 116.106 161.404 116.075L167.517 112.542C167.625 112.486 167.62 112.383 167.517 112.316L164.649 110.652ZM156.619 115.287C156.558 115.256 156.49 115.239 156.421 115.239C156.352 115.239 156.284 115.256 156.223 115.287L153.74 116.724C153.632 116.786 153.637 116.889 153.74 116.951L156.614 118.609C156.675 118.641 156.743 118.658 156.812 118.658C156.881 118.658 156.949 118.641 157.011 118.609L159.498 117.172C159.601 117.116 159.596 117.013 159.498 116.946L156.619 115.287ZM107.428 142.502L109.911 141.07C110.014 141.008 110.009 140.905 109.911 140.838L107.021 139.185C106.96 139.155 106.892 139.139 106.823 139.139C106.754 139.139 106.686 139.155 106.625 139.185L104.142 140.617C104.034 140.679 104.044 140.782 104.142 140.849L107.016 142.507C107.08 142.541 107.151 142.558 107.223 142.557C107.295 142.556 107.365 142.537 107.428 142.502ZM149.357 119.48C149.296 119.448 149.228 119.432 149.159 119.432C149.09 119.432 149.022 119.448 148.961 119.48L146.473 120.912C146.37 120.973 146.375 121.076 146.473 121.143L149.347 122.802C149.409 122.832 149.476 122.848 149.545 122.848C149.614 122.848 149.682 122.832 149.743 122.802L152.226 121.37C152.334 121.308 152.329 121.205 152.226 121.138L149.357 119.48ZM168.28 108.556C168.218 108.524 168.15 108.508 168.081 108.508C168.012 108.508 167.944 108.524 167.883 108.556L165.395 109.993C165.292 110.055 165.298 110.158 165.395 110.22L168.269 111.878C168.331 111.91 168.399 111.926 168.468 111.926C168.537 111.926 168.605 111.91 168.666 111.878L171.148 110.441C171.256 110.384 171.251 110.281 171.148 110.214L168.28 108.556ZM174.784 108.118L167.831 104.091C167.77 104.059 167.702 104.042 167.633 104.042C167.564 104.042 167.496 104.059 167.435 104.091L164.952 105.528C164.844 105.584 164.849 105.687 164.952 105.754L171.931 109.782C171.992 109.813 172.06 109.83 172.129 109.83C172.198 109.83 172.266 109.813 172.328 109.782L174.815 108.345C174.903 108.283 174.898 108.185 174.784 108.118ZM135.786 127.339C135.724 127.309 135.657 127.293 135.588 127.293C135.519 127.293 135.451 127.309 135.389 127.339L132.33 129.106C132.227 129.162 132.232 129.265 132.33 129.332L135.204 130.991C135.265 131.022 135.333 131.039 135.402 131.039C135.471 131.039 135.539 131.022 135.601 130.991L138.655 129.224C138.763 129.162 138.758 129.059 138.655 128.993L135.786 127.339ZM144.959 122.045C144.897 122.014 144.829 121.998 144.761 121.998C144.692 121.998 144.624 122.014 144.562 122.045L140.741 124.254C140.638 124.316 140.643 124.419 140.741 124.481L143.625 126.103C143.686 126.135 143.754 126.151 143.823 126.151C143.892 126.151 143.96 126.135 144.021 126.103L147.843 123.894C147.946 123.837 147.941 123.734 147.843 123.667L144.959 122.045ZM127.376 132.196C127.314 132.164 127.246 132.148 127.177 132.148C127.108 132.148 127.04 132.164 126.979 132.196L106.542 143.97C106.434 144.032 106.445 144.135 106.542 144.201L109.416 145.86C109.478 145.89 109.546 145.906 109.615 145.906C109.683 145.906 109.751 145.89 109.813 145.86L130.26 134.055C130.368 133.994 130.363 133.891 130.26 133.824L127.376 132.196ZM105.775 144.665C105.713 144.635 105.645 144.619 105.577 144.619C105.508 144.619 105.44 144.635 105.378 144.665L102.319 146.396C102.216 146.457 102.221 146.555 102.319 146.622L105.193 148.281C105.254 148.312 105.322 148.329 105.391 148.329C105.46 148.329 105.528 148.312 105.59 148.281L108.649 146.514C108.752 146.452 108.747 146.349 108.649 146.287L105.775 144.665ZM131.578 129.77C131.517 129.739 131.449 129.722 131.38 129.722C131.311 129.722 131.243 129.739 131.182 129.77L128.127 131.537C128.019 131.599 128.024 131.702 128.127 131.769L131.001 133.427C131.063 133.457 131.131 133.473 131.2 133.473C131.268 133.473 131.336 133.457 131.398 133.427L134.457 131.66C134.56 131.599 134.555 131.501 134.457 131.434L131.578 129.77ZM101.572 147.096C101.511 147.064 101.443 147.048 101.374 147.048C101.305 147.048 101.237 147.064 101.176 147.096L98.1164 148.863C98.0083 148.924 98.0186 149.027 98.1164 149.094L100.99 150.753C101.052 150.783 101.12 150.799 101.189 150.799C101.257 150.799 101.325 150.783 101.387 150.753L104.482 148.971C104.59 148.909 104.585 148.811 104.482 148.744L101.572 147.096ZM139.989 124.913C139.927 124.883 139.859 124.867 139.79 124.867C139.722 124.867 139.654 124.883 139.592 124.913L136.533 126.68C136.43 126.742 136.435 126.845 136.533 126.912L139.407 128.57C139.468 128.602 139.536 128.618 139.605 128.618C139.674 128.618 139.742 128.602 139.803 128.57L142.863 126.809C142.966 126.747 142.96 126.644 142.863 126.577L139.989 124.913ZM152.988 117.409C152.927 117.379 152.859 117.363 152.79 117.363C152.721 117.363 152.653 117.379 152.592 117.409L150.104 118.846C150.001 118.908 150.006 119.011 150.104 119.073L152.978 120.737C153.04 120.767 153.107 120.783 153.176 120.783C153.245 120.783 153.313 120.767 153.374 120.737L155.862 119.305C155.965 119.243 155.96 119.14 155.862 119.073L152.988 117.409ZM160.945 111.631L163.428 110.194C163.536 110.132 163.531 110.034 163.428 109.967L160.544 108.283C160.482 108.251 160.414 108.235 160.345 108.235C160.276 108.235 160.208 108.251 160.147 108.283L157.66 109.72C157.557 109.782 157.562 109.885 157.66 109.947L160.533 111.605C160.597 111.639 160.668 111.657 160.739 111.657C160.811 111.657 160.882 111.639 160.945 111.605V111.631ZM144.706 111.528L147.194 110.091C147.297 110.029 147.292 109.926 147.194 109.864L144.32 108.206C144.259 108.174 144.191 108.158 144.122 108.158C144.053 108.158 143.985 108.174 143.924 108.206L141.441 109.643C141.333 109.699 141.338 109.802 141.441 109.869L144.315 111.528C144.378 111.553 144.446 111.564 144.514 111.56C144.582 111.555 144.647 111.536 144.706 111.502V111.528ZM136.466 125.758L143.728 121.561C143.831 121.504 143.826 121.401 143.728 121.334L140.854 119.676C140.793 119.644 140.725 119.627 140.656 119.627C140.587 119.627 140.519 119.644 140.457 119.676L133.195 123.868C133.087 123.93 133.098 124.033 133.195 124.1L136.069 125.758C136.135 125.787 136.207 125.8 136.278 125.796C136.35 125.791 136.42 125.769 136.481 125.732L136.466 125.758ZM156.902 113.717C156.964 113.748 157.032 113.765 157.101 113.765C157.17 113.765 157.238 113.748 157.299 113.717L159.782 112.285C159.89 112.223 159.879 112.12 159.782 112.053L156.908 110.395C156.846 110.364 156.778 110.348 156.709 110.348C156.641 110.348 156.573 110.364 156.511 110.395L154.023 111.832C153.92 111.893 153.926 111.996 154.023 112.058L156.902 113.717ZM153.194 111.358L155.677 109.921C155.785 109.864 155.78 109.761 155.677 109.694L152.803 108.036C152.741 108.004 152.673 107.988 152.604 107.988C152.536 107.988 152.468 108.004 152.406 108.036L149.919 109.473C149.816 109.535 149.821 109.638 149.919 109.699L152.792 111.358C152.859 111.389 152.931 111.403 153.004 111.399C153.077 111.394 153.148 111.371 153.21 111.332L153.194 111.358ZM132.83 127.839L135.317 126.402C135.42 126.34 135.415 126.237 135.317 126.175L132.443 124.517C132.382 124.485 132.314 124.469 132.245 124.469C132.176 124.469 132.108 124.485 132.047 124.517L129.564 125.954C129.456 126.01 129.467 126.113 129.564 126.18L132.433 127.839C132.496 127.874 132.566 127.894 132.637 127.897C132.709 127.899 132.78 127.885 132.845 127.854L132.83 127.839ZM148.873 118.336C148.934 118.368 149.002 118.385 149.071 118.385C149.14 118.385 149.208 118.368 149.27 118.336L151.757 116.9C151.86 116.843 151.855 116.74 151.757 116.673L148.883 115.014C148.822 114.983 148.754 114.966 148.685 114.966C148.616 114.966 148.548 114.983 148.487 115.014L146.004 116.451C145.896 116.513 145.901 116.616 146.004 116.678L148.873 118.336ZM114.675 138.32L117.157 136.888C117.265 136.826 117.255 136.723 117.157 136.656L114.268 134.988C114.206 134.957 114.138 134.941 114.07 134.941C114.001 134.941 113.933 134.957 113.871 134.988L111.384 136.424C111.281 136.486 111.286 136.589 111.384 136.656L114.258 138.315C114.324 138.35 114.399 138.369 114.475 138.368C114.55 138.367 114.624 138.347 114.69 138.309L114.675 138.32ZM118.306 136.224L120.788 134.792C120.896 134.73 120.891 134.627 120.788 134.56L117.914 132.902C117.853 132.871 117.785 132.855 117.716 132.855C117.647 132.855 117.579 132.871 117.518 132.902L115.03 134.339C114.927 134.4 114.932 134.503 115.03 134.565L117.904 136.224C117.969 136.257 118.041 136.274 118.114 136.272C118.187 136.27 118.258 136.25 118.321 136.213L118.306 136.224ZM111.044 140.416L113.526 138.984C113.634 138.922 113.624 138.819 113.526 138.752L110.663 137.084C110.601 137.052 110.533 137.036 110.464 137.036C110.395 137.036 110.327 137.052 110.266 137.084L107.778 138.516C107.675 138.577 107.681 138.68 107.778 138.747L110.652 140.406C110.715 140.438 110.785 140.455 110.856 140.455C110.927 140.455 110.996 140.438 111.059 140.406L111.044 140.416ZM125.599 132.021L128.086 130.584C128.189 130.522 128.184 130.424 128.086 130.357L125.212 128.699C125.151 128.667 125.083 128.651 125.014 128.651C124.945 128.651 124.877 128.667 124.816 128.699L122.333 130.136C122.225 130.198 122.23 130.296 122.333 130.363L125.207 132.021C125.268 132.052 125.335 132.068 125.403 132.068C125.471 132.068 125.538 132.052 125.599 132.021ZM121.968 134.117L124.455 132.68C124.558 132.624 124.553 132.521 124.455 132.454L121.581 130.795C121.52 130.764 121.452 130.747 121.383 130.747C121.314 130.747 121.246 130.764 121.185 130.795L118.697 132.232C118.594 132.294 118.599 132.397 118.697 132.459L121.571 134.117C121.63 134.146 121.696 134.161 121.762 134.161C121.828 134.161 121.893 134.146 121.952 134.117H121.968ZM129.204 129.914L131.692 128.477C131.795 128.416 131.789 128.318 131.692 128.251L128.818 126.592C128.756 126.561 128.688 126.544 128.619 126.544C128.55 126.544 128.482 126.561 128.421 126.592L125.939 128.029C125.83 128.091 125.841 128.189 125.939 128.256L128.812 129.914C128.873 129.945 128.94 129.961 129.008 129.961C129.076 129.961 129.143 129.945 129.204 129.914ZM145.819 98.8939C145.88 98.9255 145.948 98.942 146.017 98.942C146.086 98.942 146.154 98.9255 146.215 98.8939L148.703 97.457C148.806 97.3952 148.801 97.2973 148.703 97.2304L147.936 96.7874C147.874 96.7558 147.806 96.7393 147.737 96.7393C147.668 96.7393 147.6 96.7558 147.539 96.7874L145.057 98.2192C144.954 98.281 144.959 98.384 145.057 98.451L145.819 98.8939ZM127.952 110.431C128.014 110.461 128.082 110.477 128.151 110.477C128.219 110.477 128.287 110.461 128.349 110.431L130.831 108.999C130.94 108.937 130.934 108.834 130.831 108.767L127.958 107.109C127.896 107.077 127.828 107.061 127.759 107.061C127.69 107.061 127.622 107.077 127.561 107.109L125.084 108.551C124.981 108.613 124.986 108.716 125.084 108.783L127.952 110.431ZM135.214 106.233C135.276 106.265 135.344 106.281 135.413 106.281C135.482 106.281 135.55 106.265 135.611 106.233L138.099 104.801C138.202 104.74 138.196 104.637 138.099 104.57L135.225 102.911C135.163 102.881 135.095 102.865 135.026 102.865C134.958 102.865 134.89 102.881 134.828 102.911L132.34 104.348C132.237 104.41 132.243 104.513 132.34 104.575L135.214 106.233ZM123.539 113.001C123.6 113.032 123.668 113.049 123.737 113.049C123.806 113.049 123.874 113.032 123.935 113.001L126.418 111.569C126.526 111.507 126.521 111.404 126.418 111.337L123.539 109.684C123.477 109.653 123.409 109.638 123.34 109.638C123.271 109.638 123.204 109.653 123.142 109.684L120.654 111.116C120.551 111.177 120.556 111.281 120.654 111.347L123.539 113.001ZM131.604 108.365C131.666 108.396 131.733 108.412 131.802 108.412C131.871 108.412 131.939 108.396 132.001 108.365L134.483 106.934C134.591 106.872 134.586 106.769 134.483 106.702L131.609 105.043C131.548 105.012 131.48 104.995 131.411 104.995C131.342 104.995 131.274 105.012 131.213 105.043L128.689 106.455C128.586 106.516 128.591 106.619 128.689 106.681L131.604 108.365ZM116.266 117.193C116.328 117.224 116.396 117.239 116.465 117.239C116.533 117.239 116.601 117.224 116.663 117.193L119.145 115.756C119.248 115.694 119.243 115.591 119.145 115.53L116.271 113.871C116.21 113.84 116.142 113.823 116.073 113.823C116.004 113.823 115.936 113.84 115.875 113.871L113.392 115.303C113.284 115.365 113.294 115.468 113.392 115.535L116.266 117.193ZM119.897 115.097C119.959 115.129 120.027 115.145 120.096 115.145C120.165 115.145 120.233 115.129 120.294 115.097L122.776 113.665C122.884 113.603 122.874 113.5 122.776 113.433L119.908 111.775C119.846 111.744 119.778 111.729 119.709 111.729C119.64 111.729 119.573 111.744 119.511 111.775L117.023 113.207C116.92 113.269 116.925 113.372 117.023 113.438L119.897 115.097ZM138.567 103.097C138.629 103.128 138.697 103.145 138.766 103.145C138.835 103.145 138.903 103.128 138.964 103.097L141.446 101.665C141.554 101.603 141.549 101.5 141.446 101.433L140.679 100.99C140.617 100.96 140.549 100.944 140.481 100.944C140.412 100.944 140.344 100.96 140.282 100.99L137.8 102.422C137.692 102.484 137.697 102.587 137.8 102.654L138.567 103.097ZM149.46 96.808C149.522 96.8396 149.59 96.8561 149.659 96.8561C149.727 96.8561 149.795 96.8396 149.857 96.808L152.344 95.3711C152.447 95.3093 152.442 95.2063 152.344 95.1445L151.582 94.7015C151.52 94.6711 151.453 94.6553 151.384 94.6553C151.315 94.6553 151.247 94.6711 151.186 94.7015L148.698 96.1385C148.595 96.2003 148.6 96.3033 148.698 96.3651L149.46 96.808ZM155.496 100.295C155.558 100.325 155.626 100.341 155.695 100.341C155.763 100.341 155.831 100.325 155.893 100.295L158.381 98.863C158.484 98.8012 158.478 98.6982 158.381 98.6313L155.471 96.978C155.409 96.9475 155.341 96.9317 155.272 96.9317C155.204 96.9317 155.136 96.9475 155.074 96.978L152.592 98.4098C152.483 98.4716 152.489 98.5746 152.592 98.6415L155.496 100.295ZM164.576 109.509L167.059 108.072C167.167 108.01 167.162 107.912 167.059 107.845L164.185 106.187C164.124 106.155 164.056 106.139 163.987 106.139C163.918 106.139 163.85 106.155 163.788 106.187L161.301 107.624C161.198 107.686 161.203 107.783 161.301 107.85L164.175 109.509C164.237 109.541 164.306 109.558 164.376 109.558C164.446 109.558 164.515 109.541 164.576 109.509ZM142.198 101C142.26 101.032 142.328 101.049 142.397 101.049C142.465 101.049 142.533 101.032 142.595 101L145.082 99.5635C145.185 99.5068 145.18 99.4038 145.082 99.3368L144.315 98.8939C144.253 98.8635 144.186 98.8477 144.117 98.8477C144.048 98.8477 143.98 98.8635 143.918 98.8939L141.436 100.326C141.328 100.388 141.338 100.491 141.436 100.557L142.198 101ZM112.63 119.289C112.692 119.32 112.76 119.336 112.828 119.336C112.897 119.336 112.965 119.32 113.027 119.289L115.514 117.852C115.617 117.791 115.612 117.688 115.514 117.626L112.64 115.967C112.579 115.936 112.511 115.919 112.442 115.919C112.373 115.919 112.305 115.936 112.244 115.967L109.761 117.404C109.653 117.461 109.664 117.564 109.761 117.631L112.63 119.289Z" fill="#E0E0E0"/>
<path d="M127.396 141.863L154.595 126.16L171.334 135.822L144.135 151.525L127.396 141.863Z" fill="#263238"/>
<path d="M72.7665 48.7399L153.807 1.949C155.393 1.03224 156.691 1.78418 156.691 3.61256V66.385C156.664 66.8489 156.529 67.3001 156.296 67.7025C156.064 68.1049 155.741 68.4473 155.352 68.7026L72.2514 116.678C71.5149 117.1 70.9124 116.755 70.9124 115.906V51.9485C70.9494 51.3061 71.1363 50.6812 71.4583 50.124C71.7803 49.5668 72.2283 49.0928 72.7665 48.7399Z" fill="#F5F5F5"/>
<path d="M156.691 5.11652V3.61262C156.691 1.78424 155.393 1.03745 153.807 1.94906L72.7665 48.7399C72.2283 49.0928 71.7803 49.5669 71.4583 50.1241C71.1363 50.6813 70.9494 51.3061 70.9124 51.9486V54.6422L156.691 5.11652Z" fill="#263238"/>
<path d="M144.604 8.54146C144.318 8.73237 144.081 8.98727 143.911 9.28588C143.741 9.58449 143.643 9.91861 143.625 10.2617C143.625 10.8952 144.073 11.1527 144.619 10.8334C144.909 10.6468 145.15 10.394 145.323 10.0958C145.496 9.79755 145.595 9.46251 145.613 9.1183C145.598 8.48481 145.17 8.22729 144.604 8.54146Z" fill="#E0E0E0"/>
<path d="M148.543 6.27014C148.254 6.45784 148.012 6.71162 147.839 7.01066C147.667 7.30969 147.567 7.64544 147.549 7.99035C147.549 8.62384 147.992 8.87621 148.543 8.56204C148.835 8.3714 149.078 8.11414 149.25 7.81148C149.423 7.50881 149.522 7.1694 149.537 6.82122C149.537 6.20833 149.089 5.95082 148.543 6.27014Z" fill="#E0E0E0"/>
<path d="M152.484 3.99373C152.194 4.18204 151.953 4.43597 151.781 4.73488C151.608 5.03378 151.508 5.36923 151.49 5.71394C151.49 6.34744 151.932 6.60495 152.484 6.28563C152.772 6.09786 153.012 5.84464 153.183 5.5466C153.355 5.24856 153.454 4.91413 153.472 4.57057C153.472 3.93707 153.029 3.67956 152.484 3.99373Z" fill="#E0E0E0"/>
<path d="M70.9124 54.6422V66.7197L156.686 17.1992V5.11646L70.9124 54.6422Z" fill="#BA68C8"/>
<path opacity="0.1" d="M70.9124 54.6422V66.7197L156.686 17.1992V5.11646L70.9124 54.6422Z" fill="black"/>
<path d="M85.5548 63.609V106.063C85.5548 106.347 85.7039 106.491 85.8839 106.383C85.9882 106.295 86.0718 106.185 86.1287 106.062C86.1857 105.938 86.2145 105.803 86.2131 105.667V63.2124C86.2131 62.9291 86.0639 62.7901 85.8839 62.8982C85.7792 62.9842 85.6952 63.0928 85.6382 63.2159C85.5812 63.339 85.5527 63.4733 85.5548 63.609Z" fill="#BA68C8"/>
<path d="M60.4521 80.0798L79.1427 69.2641C79.7607 68.9087 80.2603 69.1971 80.2603 69.9079V83.0567C80.2393 83.4439 80.1271 83.8207 79.9329 84.1563C79.7387 84.4919 79.4679 84.7769 79.1427 84.9881L60.4521 95.7781C59.8392 96.1334 59.3396 95.845 59.3396 95.1343V82.0163C59.3601 81.6289 59.4714 81.2517 59.6647 80.9153C59.858 80.5789 60.1277 80.2927 60.4521 80.0798Z" fill="#E0E0E0"/>
<path d="M80.2757 69.9284C80.2757 69.2176 79.7606 68.9292 79.1581 69.2846L60.4674 80.1003C60.1437 80.3127 59.8744 80.5981 59.6812 80.9335C59.488 81.269 59.3762 81.6451 59.355 82.0317V83.1493L80.2757 71.0512V69.9284Z" fill="#BA68C8"/>
<path d="M61.4254 84.3391L69.7947 79.5081V87.9649L61.4254 92.7959V84.3391Z" fill="#FAFAFA"/>
<path d="M61.4305 91.5651L64.5671 85.9924C64.5918 85.9362 64.6309 85.8874 64.6804 85.851C64.7298 85.8147 64.788 85.7919 64.8491 85.7852C64.9101 85.7784 64.9719 85.7878 65.0282 85.8124C65.0844 85.837 65.1332 85.876 65.1697 85.9254L66.2667 87.1306L68.1569 82.7683C68.2702 82.5056 68.4917 82.4799 68.6719 82.7168L69.8153 84.3391V87.9444L61.446 92.7754L61.4305 91.5651Z" fill="#BA68C8"/>
<path d="M71.891 79.029C71.891 79.4308 72.1897 79.5853 72.5605 79.369L77.4946 76.5208C77.6858 76.3998 77.8459 76.2357 77.9622 76.0416C78.0785 75.8475 78.1476 75.6289 78.1641 75.4032C78.1641 75.0015 77.8654 74.847 77.4997 75.0633L72.5502 77.896C72.3581 78.0187 72.198 78.1855 72.0833 78.3826C71.9687 78.5797 71.9027 78.8013 71.891 79.029Z" fill="#FAFAFA"/>
<path d="M71.891 82.5314C71.891 82.9331 72.1897 83.0876 72.5605 82.8765L77.4946 80.0232C77.6863 79.9028 77.8469 79.7388 77.9633 79.5446C78.0796 79.3504 78.1484 79.1314 78.1641 78.9056C78.1641 78.5038 77.8654 78.3545 77.4997 78.5656L72.5502 81.388C72.3576 81.5127 72.1973 81.6814 72.0827 81.8802C71.9681 82.079 71.9024 82.3022 71.891 82.5314Z" fill="#FAFAFA"/>
<path d="M71.891 85.9819C71.891 86.3888 72.1897 86.5382 72.5605 86.327L77.4946 83.4737C77.6862 83.3545 77.8468 83.1914 77.9632 82.9981C78.0796 82.8047 78.1485 82.5864 78.1641 82.3612C78.1641 81.9595 77.8654 81.805 77.4997 82.0162L72.5502 84.8694C72.3605 84.9899 72.2019 85.1534 72.0873 85.3467C71.9728 85.54 71.9055 85.7577 71.891 85.9819Z" fill="#FAFAFA"/>
<path d="M60.4521 100.434L79.1427 89.644C79.7607 89.2886 80.2603 89.577 80.2603 90.2878V103.437C80.2393 103.824 80.1271 104.201 79.9329 104.536C79.7387 104.872 79.4679 105.157 79.1427 105.368L60.4521 116.184C59.8392 116.539 59.3396 116.251 59.3396 115.54V102.365C59.3609 101.979 59.4726 101.603 59.6658 101.267C59.8591 100.932 60.1284 100.646 60.4521 100.434Z" fill="#E0E0E0"/>
<path d="M80.2757 90.2878C80.2757 89.577 79.7606 89.2886 79.1581 89.644L60.4674 100.434C60.1437 100.646 59.8744 100.932 59.6812 101.267C59.488 101.603 59.3762 101.979 59.355 102.365V103.488L80.2757 91.4054V90.2878Z" fill="#BA68C8"/>
<path d="M61.4254 104.693L69.7947 99.8623V108.319L61.4254 113.15V104.693Z" fill="#FAFAFA"/>
<path d="M61.4305 111.924L64.5671 106.352C64.5918 106.295 64.6309 106.247 64.6804 106.21C64.7298 106.174 64.788 106.151 64.8491 106.144C64.9101 106.138 64.9719 106.147 65.0282 106.172C65.0844 106.196 65.1332 106.235 65.1697 106.285L66.2667 107.485L68.1569 103.122C68.2702 102.86 68.4917 102.839 68.6719 103.071L69.8153 104.693V108.298L61.446 113.129L61.4305 111.924Z" fill="#BA68C8"/>
<path d="M71.891 99.3832C71.891 99.7849 72.1897 99.9394 72.5605 99.7283L77.4946 96.875C77.6862 96.7557 77.8468 96.5927 77.9632 96.3993C78.0796 96.2059 78.1485 95.9877 78.1641 95.7625C78.1641 95.3556 77.8654 95.2063 77.4997 95.4174L72.5502 98.2707C72.3605 98.3911 72.2019 98.5546 72.0873 98.748C71.9728 98.9413 71.9055 99.1589 71.891 99.3832Z" fill="#FAFAFA"/>
<path d="M71.891 102.86C71.891 103.267 72.1897 103.416 72.5605 103.205L77.4946 100.352C77.6862 100.232 77.8468 100.069 77.9632 99.8759C78.0796 99.6825 78.1485 99.4642 78.1641 99.239C78.1641 98.8373 77.8654 98.6828 77.4997 98.894L72.5502 101.747C72.3605 101.868 72.2019 102.031 72.0873 102.225C71.9728 102.418 71.9055 102.635 71.891 102.86Z" fill="#FAFAFA"/>
<path d="M71.891 106.341C71.891 106.743 72.1897 106.898 72.5605 106.681L77.4946 103.833C77.6858 103.712 77.8459 103.548 77.9622 103.354C78.0785 103.16 78.1476 102.941 78.1641 102.715C78.1641 102.314 77.8654 102.159 77.4997 102.376L72.5502 105.224C72.361 105.346 72.2028 105.51 72.0883 105.704C71.9739 105.898 71.9063 106.117 71.891 106.341Z" fill="#FAFAFA"/>
<path d="M92.9506 80.5689L150.413 47.3956C151.026 47.0402 151.525 47.3286 151.525 48.0393V64.7934C151.504 65.18 151.393 65.5561 151.199 65.8916C151.006 66.2271 150.737 66.5125 150.413 66.7248L92.9506 99.8982C92.3326 100.254 91.833 99.9651 91.833 99.2544V82.5003C91.854 82.1131 91.9662 81.7363 92.1604 81.4007C92.3546 81.0651 92.6254 80.7801 92.9506 80.5689Z" fill="#E0E0E0"/>
<path d="M151.525 48.024C151.525 47.3132 151.01 47.0248 150.413 47.3802L92.9506 80.569C92.6254 80.7802 92.3546 81.0652 92.1604 81.4008C91.9662 81.7364 91.854 82.1132 91.833 82.5004V83.618L151.525 49.157V48.024Z" fill="#BA68C8"/>
<path d="M106.027 77.0875L94.4186 83.7829C94.16 83.9533 93.9448 84.1817 93.7901 84.4499C93.6354 84.7182 93.5455 85.0189 93.5276 85.328V96.803C93.5276 97.3695 93.9293 97.6013 94.4186 97.318L106.027 90.6226C106.286 90.4525 106.502 90.2242 106.657 89.9558C106.811 89.6875 106.901 89.3867 106.918 89.0775V77.6025C106.898 77.0359 106.496 76.8042 106.027 77.0875Z" fill="#FAFAFA"/>
<path d="M97.6015 87.1666L93.507 95.9222V96.8287C93.507 97.3952 93.9087 97.627 94.398 97.3437L106.007 90.6483C106.266 90.4782 106.481 90.2499 106.636 89.9816C106.791 89.7132 106.88 89.4124 106.898 89.1032V85.1065L104.704 80.9862C104.436 80.4712 104.039 80.4969 103.818 81.0223L100.362 89.1341L98.6831 87.043C98.6272 86.9403 98.5419 86.8566 98.4381 86.8026C98.3343 86.7487 98.2168 86.7269 98.1006 86.7402C97.9844 86.7535 97.8748 86.8012 97.7859 86.8772C97.6969 86.9531 97.6327 87.0539 97.6015 87.1666Z" fill="#BA68C8"/>
<path d="M94.8512 87.0635C95.4345 86.6832 95.9199 86.1706 96.268 85.5675C96.6161 84.9643 96.8171 84.2876 96.8547 83.5922C96.8693 83.2248 96.7625 82.8628 96.5508 82.5621L94.398 83.8034C94.1394 83.9737 93.9242 84.2021 93.7695 84.4704C93.6148 84.7386 93.5249 85.0393 93.507 85.3485V87.2592C93.7301 87.3378 93.969 87.361 94.2032 87.3269C94.4373 87.2928 94.6597 87.2024 94.8512 87.0635Z" fill="#BA68C8"/>
<path d="M112.141 74.5636L148.018 53.8541C148.533 53.5657 148.909 53.7614 148.909 54.2867C148.886 54.5833 148.793 54.8701 148.638 55.1241C148.483 55.3782 148.271 55.5924 148.018 55.7494L112.141 76.4641C111.626 76.7474 111.25 76.5517 111.25 76.0263C111.274 75.7298 111.367 75.443 111.521 75.1889C111.676 74.9349 111.888 74.7207 112.141 74.5636Z" fill="#FAFAFA"/>
<path d="M112.141 79.3947L148.018 58.6852C148.533 58.3967 148.909 58.5924 148.909 59.1178C148.886 59.4143 148.793 59.7011 148.638 59.9552C148.483 60.2092 148.271 60.4234 148.018 60.5805L112.141 81.2952C111.626 81.5784 111.25 81.3827 111.25 80.8574C111.274 80.561 111.367 80.2743 111.522 80.0203C111.677 79.7663 111.889 79.5521 112.141 79.3947Z" fill="#FAFAFA"/>
<path d="M112.141 84.2259L148.018 63.5163C148.533 63.2279 148.909 63.4236 148.909 63.949C148.885 64.2461 148.792 64.5335 148.637 64.7883C148.483 65.0431 148.271 65.2583 148.018 65.4168L112.141 86.1366C111.626 86.4199 111.25 86.2242 111.25 85.6989C111.272 85.4006 111.365 85.1119 111.52 84.856C111.674 84.6001 111.887 84.3843 112.141 84.2259Z" fill="#FAFAFA"/>
<path d="M170.839 27.5823L165.576 27.4226C165.22 27.1239 159.689 20.8817 159.689 20.8817C159.689 20.8817 157.701 24.0183 157.665 24.2191C157.629 24.42 163.088 30.2553 163.629 30.8425C163.78 31.0397 163.976 31.1995 164.199 31.3093C164.422 31.4192 164.668 31.4762 164.916 31.476C166.343 31.5584 171.684 31.9343 171.684 31.9343L170.839 27.5823Z" fill="#F28F8F"/>
<path d="M178.323 33.6341L170.206 33.0315L170.834 27.5824L179.214 27.7678L178.323 33.6341Z" fill="#BA68C8"/>
<path opacity="0.2" d="M178.323 33.6341L170.206 33.0315L170.834 27.5824L179.214 27.7678L178.323 33.6341Z" fill="black"/>
<path d="M103.411 51.5571L160.873 18.3837C161.486 18.0283 161.986 18.3168 161.986 19.0275V35.7867C161.964 36.1732 161.852 36.5492 161.659 36.8846C161.466 37.22 161.197 37.5055 160.873 37.7181L103.411 70.8915C102.793 71.2468 102.293 70.9584 102.293 70.2477V53.4885C102.314 53.1013 102.427 52.7245 102.621 52.3889C102.815 52.0532 103.086 51.7682 103.411 51.5571Z" fill="#E0E0E0"/>
<path d="M161.986 19.0275C161.986 18.3168 161.471 18.0283 160.873 18.3837L103.411 51.5571C103.086 51.7682 102.815 52.0532 102.621 52.3889C102.427 52.7245 102.314 53.1013 102.293 53.4885V54.6061L161.986 20.1451V19.0275Z" fill="#BA68C8"/>
<path d="M116.467 48.0807L104.858 54.7761C104.599 54.9456 104.383 55.1738 104.228 55.4422C104.073 55.7107 103.984 56.0118 103.967 56.3212V67.7911C103.967 68.3576 104.369 68.5894 104.858 68.3061L116.467 61.6106C116.727 61.4412 116.942 61.213 117.097 60.9445C117.252 60.6761 117.341 60.375 117.358 60.0655V48.5957C117.358 48.024 116.956 47.7974 116.467 48.0807Z" fill="#FAFAFA"/>
<path d="M108.088 58.16L103.967 66.8898V67.7963C103.967 68.3628 104.369 68.5946 104.858 68.3113L116.467 61.6158C116.727 61.4464 116.942 61.2182 117.097 60.9497C117.252 60.6813 117.341 60.3802 117.358 60.0707V56.1101L115.164 51.9898C114.896 51.4748 114.5 51.5057 114.278 52.0259L110.822 60.1531L109.143 58.057C109.085 57.9635 109.002 57.8881 108.903 57.8394C108.804 57.7907 108.693 57.7706 108.584 57.7813C108.474 57.792 108.369 57.8331 108.282 57.9C108.194 57.9669 108.127 58.0569 108.088 58.16Z" fill="#BA68C8"/>
<path d="M105.312 58.057C105.895 57.6752 106.38 57.1616 106.728 56.5577C107.076 55.9538 107.277 55.2765 107.315 54.5805C107.329 54.2132 107.222 53.8514 107.011 53.5504L104.858 54.7968C104.599 54.9663 104.383 55.1945 104.228 55.4629C104.073 55.7313 103.984 56.0325 103.967 56.3419V58.2475C104.19 58.3268 104.429 58.3508 104.663 58.3177C104.897 58.2845 105.12 58.195 105.312 58.057Z" fill="#BA68C8"/>
<path d="M122.601 45.5519L158.479 24.8475C158.994 24.5643 159.37 24.7548 159.37 25.2802C159.346 25.5774 159.253 25.8649 159.098 26.1198C158.943 26.3747 158.731 26.5898 158.479 26.748L122.601 47.4576C122.112 47.7408 121.71 47.5503 121.71 47.0249C121.734 46.7269 121.826 46.4385 121.981 46.1827C122.136 45.9269 122.348 45.7109 122.601 45.5519Z" fill="#FAFAFA"/>
<path d="M122.601 50.3828L158.479 29.6733C158.994 29.39 159.37 29.5857 159.37 30.1059C159.346 30.4031 159.253 30.6907 159.098 30.9456C158.943 31.2004 158.731 31.4156 158.479 31.5738L122.601 52.2833C122.112 52.5717 121.71 52.376 121.71 51.8507C121.734 51.5536 121.827 51.2662 121.982 51.0113C122.137 50.7565 122.349 50.5413 122.601 50.3828Z" fill="#FAFAFA"/>
<path d="M122.601 55.2346L158.479 34.5251C158.994 34.2418 159.37 34.4375 159.37 34.9577C159.346 35.2549 159.253 35.5425 159.098 35.7974C158.943 36.0523 158.731 36.2674 158.479 36.4256L122.601 57.1351C122.112 57.4235 121.71 57.2278 121.71 56.7025C121.734 56.4054 121.827 56.118 121.982 55.8631C122.137 55.6083 122.349 55.3931 122.601 55.2346Z" fill="#FAFAFA"/>
<path d="M188.685 91.2457H185.646V95.675H188.685V91.2457Z" fill="#FFA8A7"/>
<path d="M177.998 85.7532L174.961 85.8577L175.113 90.2843L178.15 90.1799L177.998 85.7532Z" fill="#FFA8A7"/>
<path d="M188.49 48.024C188.49 50.9288 188.866 69.7121 188.866 69.7121C188.938 70.5465 189.721 72.0865 189.551 75.3003C189.324 79.6575 188.943 91.7814 188.943 91.7814C188.943 91.7814 187.521 93.1977 185.508 91.7814C185.508 91.7814 182.752 75.326 182.206 71.01C181.732 67.24 180.924 56.9959 180.924 56.9959L178.132 69.0271C178.132 69.0271 178.647 71.8598 178.74 73.8633C178.833 75.8668 178.225 87.4139 178.225 87.4139C177.733 87.7229 177.169 87.8974 176.589 87.92C176.009 87.9426 175.433 87.8125 174.918 87.5426C174.918 87.5426 172.467 70.6856 172.132 68.852C171.797 67.0185 174.27 48.024 174.27 48.024H188.49Z" fill="#455A64"/>
<path d="M183.916 27.9016H183.957C185.258 28.2345 186.411 28.9925 187.232 30.0553C188.053 31.1182 188.496 32.4248 188.49 33.7679V48.024C186.357 50.3417 178.925 51.4233 174.27 48.024V33.191C174.27 30.8219 175.583 27.9737 179.219 27.7626L183.916 27.9016Z" fill="#BA68C8"/>
<path d="M184.936 15.7777C185.181 15.7492 185.43 15.777 185.663 15.8591C185.896 15.9412 186.107 16.0755 186.28 16.2516C186.857 16.8387 186.733 17.9306 186.28 20.4336L184.498 20.6397L184.936 15.7777Z" fill="#263238"/>
<path d="M174.563 15.0619C174.179 15.0635 173.799 14.9864 173.445 14.8353C172.899 14.5211 172.76 15.1392 173.059 15.68C173.256 16.0663 173.549 16.3956 173.91 16.6364C174.27 16.8772 174.687 17.0213 175.119 17.0551C175.119 16.9778 175.634 15.6645 175.634 15.6645L174.563 15.0619Z" fill="#263238"/>
<path d="M184.101 20.6396C184.369 20.7993 184.745 20.2894 185.07 19.9495C185.198 19.8034 185.362 19.6924 185.545 19.6269C185.728 19.5614 185.925 19.5435 186.117 19.5749C186.309 19.6063 186.49 19.686 186.643 19.8065C186.796 19.9269 186.915 20.0843 186.991 20.2637C187.532 21.4019 186.306 22.9161 185.585 23.4157C185.383 23.591 185.13 23.6978 184.864 23.7209C184.598 23.7441 184.331 23.6823 184.101 23.5444L183.916 27.9016C183.597 28.6005 183.11 29.2093 182.498 29.6732C181.886 30.1371 181.168 30.4415 180.409 30.5592C177.834 30.9094 178.379 28.7978 179.219 27.7626V26.1814C178.579 26.3174 177.922 26.3505 177.272 26.2793C176.937 26.1917 176.144 25.2492 175.629 24.1522C175.052 22.9419 174.084 20.7942 174.944 17.1632C175.866 13.2644 180.053 13.1459 182.551 14.7168C185.049 16.2876 184.101 20.6396 184.101 20.6396Z" fill="#FFA8A7"/>
<path d="M184.101 21.0877C184.235 21.0877 184.74 20.2482 185.07 19.9494C185.528 19.5374 184.936 15.7777 184.936 15.7777C184.936 15.7777 185.399 14.3562 184.498 13.4085C183.597 12.4608 181.851 12.6256 180.573 12.5793C179.006 12.5888 177.453 12.2768 176.01 11.6625C174.202 10.8745 174.063 10.7818 173.842 11.5801C173.62 12.3784 173.528 14.1965 174.615 15.4223L175.511 15.7519C175.511 15.7519 176 16.1845 177.689 16.3906C179.249 16.5082 180.817 16.4772 182.371 16.2978C182.86 16.2309 182.968 16.7099 183.231 18.0078C183.463 19.146 183.659 21.0774 184.101 21.0877Z" fill="#263238"/>
<path d="M184.936 16.0918L186.532 15.2368C186.482 15.129 186.409 15.0326 186.32 14.9535C186.231 14.8744 186.127 14.8142 186.013 14.7767C185.9 14.7391 185.781 14.7249 185.662 14.7349C185.543 14.745 185.427 14.779 185.322 14.8351C185.109 14.9548 184.949 15.1521 184.878 15.3861C184.806 15.6201 184.826 15.8728 184.936 16.0918Z" fill="#263238"/>
<path d="M179.224 26.1814C180.316 25.973 181.386 25.6662 182.422 25.2647C182.907 25.0079 183.305 24.6137 183.566 24.1316C183.441 24.6152 183.22 25.0688 182.917 25.4655C182.309 26.2381 179.224 26.8098 179.224 26.8098V26.1814Z" fill="#F28F8F"/>
<path d="M179.791 20.0473C179.798 20.1404 179.832 20.2294 179.889 20.3034C179.946 20.3773 180.023 20.4331 180.111 20.4637C180.199 20.4943 180.294 20.4985 180.385 20.4757C180.475 20.4529 180.557 20.4042 180.62 20.3355C180.683 20.2668 180.725 20.1811 180.74 20.089C180.755 19.9969 180.743 19.9023 180.706 19.817C180.668 19.7317 180.606 19.6592 180.527 19.6087C180.449 19.5581 180.358 19.5315 180.264 19.5322C180.199 19.5342 180.135 19.5492 180.076 19.5763C180.017 19.6034 179.963 19.642 179.919 19.69C179.875 19.738 179.841 19.7943 179.819 19.8557C179.797 19.917 179.787 19.9822 179.791 20.0473Z" fill="#263238"/>
<path d="M180.295 18.255L181.325 18.8164C181.397 18.6771 181.413 18.5151 181.369 18.3644C181.325 18.2136 181.224 18.0858 181.088 18.0078C181.021 17.9682 180.946 17.9431 180.868 17.9342C180.79 17.9253 180.712 17.9327 180.637 17.956C180.562 17.9792 180.493 18.0179 180.435 18.0694C180.376 18.1209 180.328 18.1841 180.295 18.255Z" fill="#263238"/>
<path d="M179.826 23.2664L178.745 23.6732C178.768 23.7463 178.806 23.814 178.856 23.8721C178.906 23.9301 178.967 23.9775 179.036 24.0112C179.105 24.0449 179.18 24.0643 179.256 24.0681C179.333 24.072 179.409 24.0603 179.481 24.0338C179.627 23.9751 179.744 23.8624 179.808 23.7194C179.872 23.5764 179.879 23.4141 179.826 23.2664Z" fill="#F28F8F"/>
<path d="M175.557 18.667L176.483 17.9512C176.44 17.8888 176.384 17.8359 176.32 17.7957C176.255 17.7555 176.183 17.7288 176.108 17.7172C176.033 17.7057 175.957 17.7095 175.883 17.7284C175.81 17.7474 175.741 17.7811 175.681 17.8275C175.557 17.9253 175.475 18.0666 175.452 18.2227C175.429 18.3788 175.467 18.5378 175.557 18.667Z" fill="#263238"/>
<path d="M175.846 19.9134C175.84 19.979 175.848 20.0451 175.869 20.1074C175.89 20.1697 175.924 20.227 175.969 20.2754C176.013 20.3239 176.067 20.3625 176.128 20.3889C176.188 20.4152 176.253 20.4287 176.319 20.4284C176.422 20.4367 176.525 20.4137 176.615 20.3624C176.705 20.3111 176.777 20.2338 176.823 20.1407C176.868 20.0476 176.884 19.9431 176.869 19.8406C176.854 19.7381 176.809 19.6426 176.739 19.5664C176.669 19.4901 176.578 19.4368 176.477 19.4134C176.376 19.39 176.27 19.3975 176.174 19.4349C176.077 19.4724 175.995 19.5381 175.936 19.6235C175.877 19.7088 175.846 19.8099 175.846 19.9134Z" fill="#263238"/>
<path d="M178.261 19.4653L178.107 22.3186L176.613 21.8139L178.261 19.4653Z" fill="#F28F8F"/>
<path d="M185.652 94.171V93.7384C185.358 93.862 184.683 96.4423 183.478 97.5445C182.515 98.4201 181.207 99.4295 180.877 100.403C180.548 101.376 182.7 101.979 183.597 101.819C184.627 101.634 186.44 100.903 186.893 100.223C187.346 99.5428 187.557 98.5385 187.923 98.0441C188.289 97.5496 189.138 96.9883 189.339 96.4114C189.399 95.8728 189.339 95.3277 189.164 94.8148C189.025 94.2998 188.871 93.6869 188.685 93.7384V94.068C188.254 94.4104 187.717 94.5924 187.166 94.583C186.728 94.5985 185.647 94.5109 185.652 94.171Z" fill="#263238"/>
<path d="M175.078 89.3557C174.918 89.3557 174.79 89.5823 174.439 89.9634C173.92 90.4894 173.316 90.9246 172.652 91.251C171.514 91.8175 169.299 92.6931 168.3 93.1463C167.672 93.4296 167.703 94.1764 168.347 94.6142C168.99 95.0519 170.556 95.3558 172.436 94.9335C173.466 94.7069 174.785 93.7644 175.629 93.8159C176.474 93.8674 178.045 93.8519 178.668 93.4244C179.291 92.997 179.039 92.0802 178.864 91.2973C178.673 90.4372 178.395 89.1239 178.112 89.1857V89.4535C177.746 90.0046 175.887 90.2312 175.083 89.8243L175.078 89.3557Z" fill="#263238"/>
<path d="M184.828 29.8794L175.433 39.5929C175.433 39.5929 167.193 38.1199 164.381 37.3113C163.495 37.059 162.877 35.7353 162.681 34.7362C162.631 34.2159 162.377 33.7365 161.976 33.4022C161.976 33.4022 161.976 34.1284 161.79 35.3182C161.718 35.8332 160.904 35.9001 160.178 36.0598C157.603 36.616 156.727 36.0598 155.661 36.8015C154.837 37.3886 155.872 38.9131 157.752 39.4281C160.394 40.1543 161.873 39.7938 163.459 40.1904C164.7 40.4994 173.631 43.2806 175.33 43.672C176.227 43.8677 176.912 43.8059 177.906 42.8428C178.9 41.8797 186.295 35.4109 186.295 35.4109L184.828 29.8794Z" fill="#FFA8A7"/>
<path d="M185.245 29.5446C184.215 29.2819 177.931 36.7551 177.931 36.7551L181.392 39.6599C181.392 39.6599 185.873 36.7242 186.666 35.5396C187.46 34.355 188.361 30.3223 185.245 29.5446Z" fill="#BA68C8"/>
<path d="M181.619 39.8556C181.619 39.8556 186.347 35.622 186.569 35.1585C186.996 34.2675 186.878 32.6194 186.878 32.6194C186.878 32.6194 187.393 34.0512 186.878 35.1585C186.363 36.2658 182.757 39.4127 182.186 39.9535L181.604 40.4994L181.042 39.9844L181.377 39.6908L181.619 39.8556Z" fill="#BA68C8"/>
<path opacity="0.2" d="M181.619 39.8556C181.619 39.8556 186.347 35.622 186.569 35.1585C186.996 34.2675 186.878 32.6194 186.878 32.6194C186.878 32.6194 187.393 34.0512 186.878 35.1585C186.363 36.2658 182.757 39.4127 182.186 39.9535L181.604 40.4994L181.042 39.9844L181.377 39.6908L181.619 39.8556Z" fill="black"/>
<path d="M157.866 18.8937C158.896 18.7804 159.581 18.0181 159.813 18.2293C159.906 18.3293 159.961 18.4598 159.967 18.5969C159.973 18.734 159.929 18.8686 159.843 18.9761C159.368 19.3371 158.849 19.6365 158.298 19.8671C158.169 20.3906 158.076 20.9223 158.02 21.4585C157.933 22.2465 157.964 23.8226 157.289 24.3582C155.275 25.9754 154.76 23.4105 154.837 21.6903C154.956 19.5529 156.789 19.0121 157.866 18.8937Z" fill="#F28F8F"/>
</svg>
