<svg width="64" height="64" viewBox="0 0 64 64" fill="none" xmlns="http://www.w3.org/2000/svg">
<path d="M32 0C14.327 0 0 14.327 0 32C0 49.673 14.327 64 32 64C49.673 64 64 49.673 64 32C64 14.327 49.673 0 32 0Z" fill="#5B5B5B"/>
<path d="M30.488 31.657C29.528 30.768 28.461 29.522 27.998 28.418C27.927 28.276 27.785 27.919 27.998 27.635C28.424 27.065 28.495 27.03 28.958 26.497C29.279 26.105 29.526 25.75 29.421 25.43L27.82 21.266C27.678 20.982 27.252 20.945 26.753 20.911C26.327 20.911 25.864 20.911 25.544 20.982C24.832 21.232 23.375 23.153 23.196 24.541C22.804 27.564 25.544 31.586 28.281 34.078C31.02 36.604 35.253 38.989 38.24 38.313C39.628 37.992 41.405 36.391 41.547 35.645C41.618 35.324 41.584 34.864 41.51 34.436C41.476 33.939 41.368 33.582 41.082 33.44L37.456 31.766C37.135 31.587 36.815 31.729 36.496 32.123C36.104 32.657 35.926 32.87 35.465 33.44C35.215 33.761 35.039 33.974 34.755 34.008C34.434 34.079 34.008 33.9 33.937 33.9C32.799 33.507 31.485 32.545 30.488 31.657ZM18.539 44.432L20.603 39.201C18.326 36.567 16.941 33.116 16.941 29.343C16.941 21.017 23.698 14.291 32.021 14.291C40.342 14.291 47.065 21.018 47.065 29.343C47.065 37.671 40.343 44.43 32.021 44.43C28.677 44.43 25.619 43.363 23.13 41.512L18.539 44.432ZM16.013 39.306L13.168 50.694L23.34 46.068C25.937 47.419 28.887 48.203 32.018 48.203C42.403 48.203 50.832 39.77 50.832 29.344C50.832 18.955 42.403 10.522 32.018 10.522C21.597 10.522 13.168 18.955 13.168 29.344C13.168 33.008 14.235 36.425 16.013 39.306Z" fill="white"/>
</svg>
